  0
SECTION
  2
HEADER
  9
$ACADVER
  1
AC1027
  9
$ACADMAINTVER
 70
     8
  9
$DWGCODEPAGE
  3
ANSI_1252
  9
$REQUIREDVERSIONS
160
                 0
  9
$COMMENTS
  1
File was created by SpaceClaim
  9
$INSBASE
 10
0.0
 20
0.0
 30
0.0
  9
$EXTMIN
 10
-96.68528189576156
 20
-117.5983812039957
 30
-298.5966449621153
  9
$EXTMAX
 10
11.7914701647035
 20
27.61919217764924
 30
-248.7475891944681
  9
$LIMMIN
 10
0.0
 20
0.0
  9
$LIMMAX
 10
420.0
 20
297.0
  9
$ORTHOMODE
 70
     0
  9
$REGENMODE
 70
     1
  9
$FILLMODE
 70
     1
  9
$QTEXTMODE
 70
     0
  9
$MIRRTEXT
 70
     1
  9
$LTSCALE
 40
1.0
  9
$ATTMODE
 70
     1
  9
$TEXTSIZE
 40
2.5
  9
$TRACEWID
 40
1.0
  9
$TEXTSTYLE
  7
Standard
  9
$CLAYER
  8
0
  9
$CELTYPE
  6
ByLayer
  9
$CECOLOR
 62
   256
  9
$CELTSCALE
 40
1.0
  9
$DISPSILH
 70
     0
  9
$DIMSCALE
 40
1.0
  9
$DIMASZ
 40
2.5
  9
$DIMEXO
 40
0.625
  9
$DIMDLI
 40
3.75
  9
$DIMRND
 40
0.0
  9
$DIMDLE
 40
0.0
  9
$DIMEXE
 40
1.25
  9
$DIMTP
 40
0.0
  9
$DIMTM
 40
0.0
  9
$DIMTXT
 40
2.5
  9
$DIMCEN
 40
2.5
  9
$DIMTSZ
 40
0.0
  9
$DIMTOL
 70
     0
  9
$DIMLIM
 70
     0
  9
$DIMTIH
 70
     1
  9
$DIMTOH
 70
     0
  9
$DIMSE1
 70
     0
  9
$DIMSE2
 70
     0
  9
$DIMTAD
 70
     1
  9
$DIMZIN
 70
     8
  9
$DIMBLK
  1

  9
$DIMASO
 70
     1
  9
$DIMSHO
 70
     1
  9
$DIMPOST
  1
mm
  9
$DIMAPOST
  1

  9
$DIMALT
 70
     0
  9
$DIMALTD
 70
     3
  9
$DIMALTF
 40
0.0393700787401575
  9
$DIMLFAC
 40
1.0
  9
$DIMTOFL
 70
     1
  9
$DIMTVP
 40
0.0
  9
$DIMTIX
 70
     0
  9
$DIMSOXD
 70
     0
  9
$DIMSAH
 70
     0
  9
$DIMBLK1
  1

  9
$DIMBLK2
  1

  9
$DIMSTYLE
  2
ISO-25
  9
$DIMCLRD
 70
     0
  9
$DIMCLRE
 70
     0
  9
$DIMCLRT
 70
     0
  9
$DIMTFAC
 40
1.0
  9
$DIMGAP
 40
0.625
  9
$DIMJUST
 70
     0
  9
$DIMSD1
 70
     0
  9
$DIMSD2
 70
     0
  9
$DIMTOLJ
 70
     0
  9
$DIMTZIN
 70
     8
  9
$DIMALTZ
 70
     0
  9
$DIMALTTZ
 70
     8
  9
$DIMUPT
 70
     0
  9
$DIMDEC
 70
     3
  9
$DIMTDEC
 70
     3
  9
$DIMALTU
 70
     2
  9
$DIMALTTD
 70
     3
  9
$DIMTXSTY
  7
Standard
  9
$DIMAUNIT
 70
     0
  9
$DIMADEC
 70
     1
  9
$DIMALTRND
 40
0.0
  9
$DIMAZIN
 70
     0
  9
$DIMDSEP
 70
    46
  9
$DIMATFIT
 70
     3
  9
$DIMFRAC
 70
     0
  9
$DIMLDRBLK
  1

  9
$DIMLUNIT
 70
     2
  9
$DIMLWD
 70
    -2
  9
$DIMLWE
 70
    -2
  9
$DIMTMOVE
 70
     0
  9
$DIMFXL
 40
1.0
  9
$DIMFXLON
 70
     0
  9
$DIMJOGANG
 40
0.7853981633974483
  9
$DIMTFILL
 70
     0
  9
$DIMTFILLCLR
 70
     0
  9
$DIMARCSYM
 70
     0
  9
$DIMLTYPE
  6

  9
$DIMLTEX1
  6

  9
$DIMLTEX2
  6

  9
$DIMTXTDIRECTION
 70
     0
  9
$LUNITS
 70
     2
  9
$LUPREC
 70
     4
  9
$SKETCHINC
 40
1.0
  9
$FILLETRAD
 40
10.0
  9
$AUNITS
 70
     0
  9
$AUPREC
 70
     0
  9
$MENU
  1
.
  9
$ELEVATION
 40
0.0
  9
$PELEVATION
 40
0.0
  9
$THICKNESS
 40
0.0
  9
$LIMCHECK
 70
     0
  9
$CHAMFERA
 40
0.0
  9
$CHAMFERB
 40
0.0
  9
$CHAMFERC
 40
0.0
  9
$CHAMFERD
 40
0.0
  9
$SKPOLY
 70
     0
  9
$TDCREATE
 40
2457944.786605475
  9
$TDUCREATE
 40
2457944.953272141
  9
$TDUPDATE
 40
2457944.786605637
  9
$TDUUPDATE
 40
2457944.953272303
  9
$TDINDWG
 40
0.0000000116
  9
$TDUSRTIMER
 40
0.0000000116
  9
$USRTIMER
 70
     1
  9
$ANGBASE
 50
0.0
  9
$ANGDIR
 70
     0
  9
$PDMODE
 70
     0
  9
$PDSIZE
 40
0.0
  9
$PLINEWID
 40
0.0
  9
$SPLFRAME
 70
     0
  9
$SPLINETYPE
 70
     6
  9
$SPLINESEGS
 70
     8
  9
$HANDSEED
  5
E1
  9
$SURFTAB1
 70
     6
  9
$SURFTAB2
 70
     6
  9
$SURFTYPE
 70
     6
  9
$SURFU
 70
     6
  9
$SURFV
 70
     6
  9
$UCSBASE
  2

  9
$UCSNAME
  2

  9
$UCSORG
 10
0.0
 20
0.0
 30
0.0
  9
$UCSXDIR
 10
1.0
 20
0.0
 30
0.0
  9
$UCSYDIR
 10
0.0
 20
1.0
 30
0.0
  9
$UCSORTHOREF
  2

  9
$UCSORTHOVIEW
 70
     0
  9
$UCSORGTOP
 10
0.0
 20
0.0
 30
0.0
  9
$UCSORGBOTTOM
 10
0.0
 20
0.0
 30
0.0
  9
$UCSORGLEFT
 10
0.0
 20
0.0
 30
0.0
  9
$UCSORGRIGHT
 10
0.0
 20
0.0
 30
0.0
  9
$UCSORGFRONT
 10
0.0
 20
0.0
 30
0.0
  9
$UCSORGBACK
 10
0.0
 20
0.0
 30
0.0
  9
$PUCSBASE
  2

  9
$PUCSNAME
  2

  9
$PUCSORG
 10
0.0
 20
0.0
 30
0.0
  9
$PUCSXDIR
 10
1.0
 20
0.0
 30
0.0
  9
$PUCSYDIR
 10
0.0
 20
1.0
 30
0.0
  9
$PUCSORTHOREF
  2

  9
$PUCSORTHOVIEW
 70
     0
  9
$PUCSORGTOP
 10
0.0
 20
0.0
 30
0.0
  9
$PUCSORGBOTTOM
 10
0.0
 20
0.0
 30
0.0
  9
$PUCSORGLEFT
 10
0.0
 20
0.0
 30
0.0
  9
$PUCSORGRIGHT
 10
0.0
 20
0.0
 30
0.0
  9
$PUCSORGFRONT
 10
0.0
 20
0.0
 30
0.0
  9
$PUCSORGBACK
 10
0.0
 20
0.0
 30
0.0
  9
$USERI1
 70
     0
  9
$USERI2
 70
     0
  9
$USERI3
 70
     0
  9
$USERI4
 70
     0
  9
$USERI5
 70
     0
  9
$USERR1
 40
0.0
  9
$USERR2
 40
0.0
  9
$USERR3
 40
0.0
  9
$USERR4
 40
0.0
  9
$USERR5
 40
0.0
  9
$WORLDVIEW
 70
     1
  9
$SHADEDGE
 70
     3
  9
$SHADEDIF
 70
    70
  9
$TILEMODE
 70
     1
  9
$MAXACTVP
 70
    64
  9
$PINSBASE
 10
0.0
 20
0.0
 30
0.0
  9
$PLIMCHECK
 70
     0
  9
$PEXTMIN
 10
1.000000000000000E+20
 20
1.000000000000000E+20
 30
1.000000000000000E+20
  9
$PEXTMAX
 10
-1.000000000000000E+20
 20
-1.000000000000000E+20
 30
-1.000000000000000E+20
  9
$PLIMMIN
 10
0.0
 20
0.0
  9
$PLIMMAX
 10
420.0
 20
297.0
  9
$UNITMODE
 70
     0
  9
$VISRETAIN
 70
     1
  9
$PLINEGEN
 70
     0
  9
$PSLTSCALE
 70
     1
  9
$TREEDEPTH
 70
  3020
  9
$CMLSTYLE
  2
Standard
  9
$CMLJUST
 70
     0
  9
$CMLSCALE
 40
20.0
  9
$PROXYGRAPHICS
 70
     1
  9
$MEASUREMENT
 70
     1
  9
$CELWEIGHT
370
    -1
  9
$ENDCAPS
280
     0
  9
$JOINSTYLE
280
     0
  9
$LWDISPLAY
290
     0
  9
$INSUNITS
 70
     4
  9
$HYPERLINKBASE
  1

  9
$STYLESHEET
  1

  9
$XEDIT
290
     1
  9
$CEPSNTYPE
380
     0
  9
$PSTYLEMODE
290
     1
  9
$FINGERPRINTGUID
  2
{7D224BFB-9A3C-42ED-ABF2-B7D12619B9A0}
  9
$VERSIONGUID
  2
{FAEB1C32-E019-11D5-929B-00C0DF256EC4}
  9
$EXTNAMES
290
     1
  9
$PSVPSCALE
 40
0.0
  9
$OLESTARTUP
290
     0
  9
$SORTENTS
280
   127
  9
$INDEXCTL
280
     0
  9
$HIDETEXT
280
     1
  9
$XCLIPFRAME
280
     2
  9
$HALOGAP
280
     0
  9
$OBSCOLOR
 70
   257
  9
$OBSLTYPE
280
     0
  9
$INTERSECTIONDISPLAY
280
     0
  9
$INTERSECTIONCOLOR
 70
   257
  9
$DIMASSOC
280
     2
  9
$PROJECTNAME
  1

  9
$CAMERADISPLAY
290
     0
  9
$LENSLENGTH
 40
50.0
  9
$CAMERAHEIGHT
 40
0.0
  9
$STEPSPERSEC
 40
2.0
  9
$STEPSIZE
 40
6.0
  9
$3DDWFPREC
 40
2.0
  9
$PSOLWIDTH
 40
5.0
  9
$PSOLHEIGHT
 40
80.0
  9
$LOFTANG1
 40
1.570796326794897
  9
$LOFTANG2
 40
1.570796326794897
  9
$LOFTMAG1
 40
0.0
  9
$LOFTMAG2
 40
0.0
  9
$LOFTPARAM
 70
     7
  9
$LOFTNORMALS
280
     1
  9
$LATITUDE
 40
37.795
  9
$LONGITUDE
 40
-122.394
  9
$NORTHDIRECTION
 40
0.0
  9
$TIMEZONE
 70
 -8000
  9
$LIGHTGLYPHDISPLAY
280
     1
  9
$TILEMODELIGHTSYNCH
280
     1
  9
$CMATERIAL
347
44
  9
$SOLIDHIST
280
     1
  9
$SHOWHIST
280
     1
  9
$DWFFRAME
280
     2
  9
$DGNFRAME
280
     2
  9
$REALWORLDSCALE
290
     1
  9
$INTERFERECOLOR
 62
   256
  9
$CSHADOW
280
     0
  9
$SHADOWPLANELOCATION
 40
0.0
  0
ENDSEC
  0
SECTION
  2
CLASSES
  0
CLASS
  1
ACDBDICTIONARYWDFLT
  2
AcDbDictionaryWithDefault
  3
ObjectDBX Classes
 90
        0
 91
        4
280
     0
281
     0
  0
CLASS
  1
VISUALSTYLE
  2
AcDbVisualStyle
  3
ObjectDBX Classes
 90
     4095
 91
        4
280
     0
281
     0
  0
CLASS
  1
MATERIAL
  2
AcDbMaterial
  3
ObjectDBX Classes
 90
     1153
 91
        4
280
     0
281
     0
  0
CLASS
  1
SCALE
  2
AcDbScale
  3
ObjectDBX Classes
 90
     1153
 91
        4
280
     0
281
     0
  0
CLASS
  1
SUN
  2
AcDbSun
  3
SCENEOE
 90
     1153
 91
        4
280
     0
281
     0
  0
CLASS
  1
DICTIONARYVAR
  2
AcDbDictionaryVar
  3
ObjectDBX Classes
 90
        0
 91
        4
280
     0
281
     0
  0
ENDSEC
  0
SECTION
  2
TABLES
  0
TABLE
  2
VPORT
  5
8
330
0
100
AcDbSymbolTable
 70
     1
  0
VPORT
  5
29
330
8
100
AcDbSymbolTableRecord
100
AcDbViewportTableRecord
  2
*Active
 70
     0
 10
0.0
 20
0.0
 11
1.0
 21
1.0
 12
-42.44690586552903
 22
-44.98959451317321
 13
0.0
 23
0.0
 14
10.0
 24
10.0
 15
10.0
 25
10.0
 16
0.0
 26
0.0
 36
1.0
 17
0.0
 27
0.0
 37
0.0
 40
145.2175733816449
 41
0.7469946614200634
 42
50.0
 43
0.0
 44
0.0
 50
0.0
 51
0.0
 71
     0
 72
   100
 73
     1
 74
     3
 75
     0
 76
     0
 77
     0
 78
     0
281
     0
 65
     1
110
0.0
120
0.0
130
0.0
111
1.0
121
0.0
131
0.0
112
0.0
122
1.0
132
0.0
 79
     0
146
0.0
 60
     3
 61
     5
292
     1
282
     1
141
0.0
142
0.0
 63
   250
361
69
  0
ENDTAB
  0
TABLE
  2
LTYPE
  5
5
330
0
100
AcDbSymbolTable
 70
     2
  0
LTYPE
  5
14
330
5
100
AcDbSymbolTableRecord
100
AcDbLinetypeTableRecord
  2
ByBlock
 70
     0
  3

 72
    65
 73
     0
 40
0.0
  0
LTYPE
  5
15
330
5
100
AcDbSymbolTableRecord
100
AcDbLinetypeTableRecord
  2
ByLayer
 70
     0
  3

 72
    65
 73
     0
 40
0.0
  0
LTYPE
  5
16
330
5
100
AcDbSymbolTableRecord
100
AcDbLinetypeTableRecord
  2
Continuous
 70
     0
  3
Solid line
 72
    65
 73
     0
 40
0.0
  0
LTYPE
  5
B1
330
5
100
AcDbSymbolTableRecord
100
AcDbLinetypeTableRecord
  2
HIDDEN
 70
     0
  3
- - - - - - - - - - - - - - - - - - - - -
 72
    65
 73
     2
 40
9.524999999999999
 49
6.35
 74
     0
 49
-3.175
 74
     0
  0
ENDTAB
  0
TABLE
  2
LAYER
  5
2
330
0
100
AcDbSymbolTable
 70
     2
  0
LAYER
  5
10
330
2
100
AcDbSymbolTableRecord
100
AcDbLayerTableRecord
  2
0
 70
     0
 62
   253
420
  9416591
  6
Continuous
370
    70
390
F
347
46
348
0
  0
LAYER
  5
B0
330
2
100
AcDbSymbolTableRecord
100
AcDbLayerTableRecord
  2
Hidden
 70
     0
 62
    98
420
   346117
  6
HIDDEN
370
    70
390
F
347
46
348
0
  0
ENDTAB
  0
TABLE
  2
STYLE
  5
3
330
0
100
AcDbSymbolTable
 70
     1
  0
STYLE
  5
11
330
3
100
AcDbSymbolTableRecord
100
AcDbTextStyleTableRecord
  2
Standard
 70
     0
 40
0.0
 41
1.0
 50
0.0
 71
     0
 42
2.5
  3
txt
  4

  0
ENDTAB
  0
TABLE
  2
VIEW
  5
6
330
0
100
AcDbSymbolTable
 70
     0
  0
ENDTAB
  0
TABLE
  2
UCS
  5
7
330
0
100
AcDbSymbolTable
 70
     0
  0
ENDTAB
  0
TABLE
  2
APPID
  5
9
330
0
100
AcDbSymbolTable
 70
     1
  0
APPID
  5
12
330
9
100
AcDbSymbolTableRecord
100
AcDbRegAppTableRecord
  2
ACAD
 70
     0
  0
ENDTAB
  0
TABLE
  2
DIMSTYLE
  5
A
330
0
100
AcDbSymbolTable
 70
     1
100
AcDbDimStyleTable
  0
DIMSTYLE
105
27
330
A
100
AcDbSymbolTableRecord
100
AcDbDimStyleTableRecord
  2
ISO-25
 70
     0
 41
2.5
 42
0.625
 43
3.75
 44
1.25
 73
     0
 74
     0
 77
     1
 78
     8
140
2.5
141
2.5
143
0.03937007874016
147
0.625
171
     3
172
     1
178
     0
271
     2
272
     2
274
     3
278
    44
283
     0
284
     8
340
11
  0
ENDTAB
  0
TABLE
  2
BLOCK_RECORD
  5
1
330
0
100
AcDbSymbolTable
 70
     1
  0
BLOCK_RECORD
  5
1F
330
1
100
AcDbSymbolTableRecord
100
AcDbBlockTableRecord
  2
*Model_Space
340
22
 70
     0
280
     1
281
     0
  0
BLOCK_RECORD
  5
1B
330
1
100
AcDbSymbolTableRecord
100
AcDbBlockTableRecord
  2
*Paper_Space
340
1E
 70
     0
280
     1
281
     0
  0
BLOCK_RECORD
  5
23
330
1
100
AcDbSymbolTableRecord
100
AcDbBlockTableRecord
  2
*Paper_Space0
340
26
 70
     0
280
     1
281
     0
  0
ENDTAB
  0
ENDSEC
  0
SECTION
  2
BLOCKS
  0
BLOCK
  5
20
330
1F
100
AcDbEntity
  8
0
100
AcDbBlockBegin
  2
*Model_Space
 70
     0
 10
0.0
 20
0.0
 30
0.0
  3
*Model_Space
  1
*Model_Space
  0
ENDBLK
  5
21
330
1F
100
AcDbEntity
  8
0
100
AcDbBlockEnd
  0
BLOCK
  5
1C
330
1B
100
AcDbEntity
 67
     1
  8
0
100
AcDbBlockBegin
  2
*Paper_Space
 70
     0
 10
0.0
 20
0.0
 30
0.0
  3
*Paper_Space
  1
*Paper_Space
  0
ENDBLK
  5
1D
330
1B
100
AcDbEntity
 67
     1
  8
0
100
AcDbBlockEnd
  0
BLOCK
  5
24
330
23
100
AcDbEntity
  8
0
100
AcDbBlockBegin
  2
*Paper_Space0
 70
     0
 10
0.0
 20
0.0
 30
0.0
  3
*Paper_Space0
  1
*Paper_Space0
  0
ENDBLK
  5
25
330
23
100
AcDbEntity
  8
0
100
AcDbBlockEnd
  0
ENDSEC
  0
SECTION
  2
ENTITIES
  0
ELLIPSE
  5
6A
330
1F
100
AcDbEntity
  8
0
 62
    98
420
   346117
370
    -3
100
AcDbEllipse
 10
-35.77945491468368
 20
-0.2946059898637698
 30
0.0
 11
-46.51495310049114
 21
0.0
 31
5.164197192152458E-15
210
1.110223024625157E-16
220
5.551115123125782E-17
230
1.0
 40
0.5
 41
4.18879020478639
 42
4.234609991592666
  0
ELLIPSE
  5
6B
330
1F
100
AcDbEntity
  8
0
 62
    98
420
   346117
370
    -3
100
AcDbEllipse
 10
-35.77945491468368
 20
-0.2946059898637698
 30
0.0
 11
-46.51495310049114
 21
0.0
 31
5.164197192152458E-15
210
1.110223024625157E-16
220
5.551115123125782E-17
230
1.0
 40
0.5
 41
5.790527114940995
 42
7.33038285837618
  0
LINE
  5
6C
330
1F
100
AcDbEntity
  8
0
 62
    98
420
   346117
370
    -3
100
AcDbLine
 10
-12.52197836443887
 20
19.84695953056604
 30
0.0000000000000017
 11
-11.85717546276758
 21
11.26308149586234
 31
0.0000000000000003
  0
ELLIPSE
  5
6D
330
1F
100
AcDbEntity
  8
0
 62
    98
420
   346117
370
    -3
100
AcDbEllipse
 10
-35.77945491468365
 20
-9.454220225935176
 30
-0.0000000000000035
 11
47.84455890383554
 21
0.0
 31
-5.311813089807276E-15
210
-1.110223024625157E-16
220
-5.551115123125782E-17
230
-1.0
 40
0.5
 41
2.094395102393195
 42
3.214328124936169
  0
LINE
  5
6E
330
1F
100
AcDbEntity
  8
0
 62
    98
420
   346117
370
    -3
100
AcDbLine
 10
-59.70173436660215
 20
-30.17152194772164
 30
0.0000000000000052
 11
-59.03693146492918
 21
-20.43617151029307
 31
0.0000000000000047
  0
ELLIPSE
  5
6F
330
1F
100
AcDbEntity
  8
0
 62
    98
420
   346117
370
    -3
100
AcDbEllipse
 10
-35.77945491468363
 20
5.481783453378425
 30
0.0000000000000052
 11
-37.78470091792813
 21
0.0
 31
4.194944493765910E-15
210
1.110223024625157E-16
220
5.551115123125781E-17
230
1.0
 40
0.5
 41
4.188790204786391
 42
7.330382858376189
  0
ELLIPSE
  5
70
330
1F
100
AcDbEntity
  8
0
 62
    98
420
   346117
370
    -3
100
AcDbEllipse
 10
-35.77945491468367
 20
-1.160631393648203
 30
-0.0000000000000104
 11
-37.78470091792813
 21
0.0
 31
4.194944493765910E-15
210
1.110223024625157E-16
220
5.551115123125781E-17
230
1.0
 40
0.5
 41
4.18879020478639
 42
6.106536913107303
  0
LINE
  5
71
330
1F
100
AcDbEntity
  8
0
 62
    98
420
   346117
370
    -3
100
AcDbLine
 10
-16.88710445571954
 20
21.84303888803995
 30
0.0000000000000017
 11
-16.88710445571958
 21
15.2006240410133
 31
0.0000000000000003
  0
SPLINE
  5
72
330
1F
100
AcDbEntity
  8
0
 62
    98
420
   346117
370
    -3
100
AcDbSpline
210
0.0
220
0.0
230
1.0
 70
     8
 71
     3
 72
    20
 73
    16
 74
     0
 42
0.000000001
 43
0.00000001
 40
-0.0331020738910749
 40
-0.0331020738910749
 40
-0.0331020738910749
 40
-0.0331020738910749
 40
-0.0328239546961199
 40
-0.0328239546961199
 40
-0.0328239546961199
 40
-0.02461796602209
 40
-0.02461796602209
 40
-0.02461796602209
 40
-0.01641197734806
 40
-0.01641197734806
 40
-0.01641197734806
 40
-0.00820598867403
 40
-0.00820598867403
 40
-0.00820598867403
 40
-0.0020343050762846
 40
-0.0020343050762846
 40
-0.0020343050762846
 40
-0.0020343050762846
 10
-16.84274037597709
 20
15.16245638686236
 30
0.0000000000000711
 10
-16.98630046674508
 20
15.20389861538726
 30
0.0000000000000694
 10
-17.13032104349189
 20
15.24484540149802
 30
0.0000000000000781
 10
-17.27478306401234
 20
15.28529358085084
 30
0.0000000000000087
 10
-21.53717748238398
 20
16.47872901312305
 30
0.0000000000000729
 10
-26.35633790955781
 20
17.26593333571383
 30
0.0000000000000625
 10
-31.20578344843724
 20
17.56090649856905
 30
0.0000000000000781
 10
-36.05522898731668
 20
17.8558796614243
 30
0.0
 10
-41.11130390531103
 20
17.66934800962657
 30
0.0000000000000069
 10
-45.821645005793
 20
17.02168964696784
 30
0.0000000000000694
 10
-50.53198610627495
 20
16.37403128430912
 30
0.0000000000000069
 10
-55.06787929068491
 20
15.24169489165842
 30
0.0000000000000069
 10
-58.93378988053448
 20
13.74838531114062
 30
0.0000000000000763
 10
-61.84132216280947
 20
12.62527454283001
 30
0.0000000000000798
 10
-64.44939900852839
 20
11.26726438246483
 30
0.0000000000000139
 10
-66.60600330063579
 20
9.76415027287409
 30
0.0000000000000139
  0
LINE
  5
73
330
1F
100
AcDbEntity
  8
0
 62
    98
420
   346117
370
    -3
100
AcDbLine
 10
-16.8427403759772
 20
15.16245638686244
 30
-0.0000000000000017
 11
-16.88710445571959
 21
15.2006240410133
 31
-0.0000000000000012
  0
ELLIPSE
  5
74
330
1F
100
AcDbEntity
  8
0
 62
    98
420
   346117
370
    -3
100
AcDbEllipse
 10
-35.77945491468363
 20
5.481783453378425
 30
0.0000000000000052
 11
42.29470091792813
 21
0.0
 31
-4.695655077871856E-15
210
-1.110223024625157E-16
220
-5.551115123125781E-17
230
-1.0
 40
0.5
 41
2.094395102393195
 42
5.235987755982991
  0
ELLIPSE
  5
75
330
1F
100
AcDbEntity
  8
0
 62
    98
420
   346117
370
    -3
100
AcDbEllipse
 10
-35.77945491468368
 20
-0.2946059898637698
 30
0.0
 11
43.05740303009128
 21
0.0
 31
-4.780332022457232E-15
210
-1.110223024625157E-16
220
-5.551115123125782E-17
230
-1.0
 40
0.5
 41
2.094395102393195
 42
3.20774260076869
  0
LINE
  5
76
330
1F
100
AcDbEntity
  8
0
 62
    98
420
   346117
370
    -3
100
AcDbLine
 10
-57.30815642972863
 20
-18.93900841238941
 30
0.0000000000000052
 11
-56.92680537365018
 21
-12.83235926680815
 31
0.0000000000000021
  0
SPLINE
  5
77
330
1F
100
AcDbEntity
  8
0
 62
    98
420
   346117
370
    -3
100
AcDbSpline
210
0.0
220
0.0
230
1.0
 70
     8
 71
     3
 72
     8
 73
     4
 74
     0
 42
0.000000001
 43
0.00000001
 40
-0.0059093387908842
 40
-0.0059093387908842
 40
-0.0059093387908842
 40
-0.0059093387908842
 40
0.0
 40
0.0
 40
0.0
 40
0.0
 10
-31.27486500229266
 20
-55.39319509784045
 30
-0.0000000000000069
 10
-29.47650215917245
 20
-56.50674072978683
 30
0.0000000000000069
 10
-27.73320060737604
 20
-57.59620945767763
 30
0.0000000000000625
 10
-26.05339395779581
 20
-58.61886869716787
 30
0.0000000000000763
  0
ELLIPSE
  5
78
330
1F
100
AcDbEntity
  8
0
 62
    98
420
   346117
370
    -3
100
AcDbEllipse
 10
-35.77945491468076
 20
-101.2087213157167
 30
0.0000000000000069
 11
-13.86596158844944
 21
-48.03309993398577
 31
2.775248669249416E-15
210
-1.487294956741782E-16
220
-1.484333087270395E-17
230
-1.0
 40
0.4330127018922194
 41
1.11369341714748
 42
1.356271081927745
  0
SPLINE
  5
79
330
1F
100
AcDbEntity
  8
0
 62
    98
420
   346117
370
    -3
100
AcDbSpline
210
0.0
220
0.0
230
1.0
 70
     8
 71
     3
 72
    18
 73
    14
 74
     0
 42
0.000000001
 43
0.00000001
 40
0.1632931907836574
 40
0.1632931907836574
 40
0.1632931907836574
 40
0.1632931907836574
 40
0.163393130822943
 40
0.163393130822943
 40
0.1697214520909269
 40
0.1697214520909269
 40
0.1760497733589108
 40
0.1760497733589108
 40
0.1823780946268947
 40
0.1823780946268947
 40
0.1855422552608867
 40
0.1855422552608867
 40
0.1887064158948786
 40
0.1887064158948786
 40
0.1887064158948786
 40
0.1887064158948786
 10
-75.49831759150914
 20
-100.820453066867
 30
0.0000000000000208
 10
-75.48206270771301
 20
-100.8480832989727
 30
0.0000000000000278
 10
-75.4657977927056
 20
-100.8756984979862
 30
0.0000000000000278
 10
-74.41898423539195
 20
-102.6509912315922
 30
0.0000000000000208
 10
-73.35557199334949
 20
-104.3291765831224
 30
0.0000000000000208
 10
-71.163174458306
 20
-107.526043407339
 30
0.0000000000000139
 10
-70.03526132896764
 20
-109.0457009681769
 30
0.0000000000000208
 10
-67.68469331097796
 20
-111.8792359796443
 30
0.0000000000000208
 10
-66.47921979972115
 20
-113.1850128634662
 30
0.0
 10
-64.48691433422334
 20
-114.9047870172178
 30
0.0000000000000139
 10
-63.79294144515043
 20
-115.4357077192254
 30
0.0000000000000208
 10
-62.2873876563128
 20
-116.3612511870848
 30
0.0000000000000208
 10
-61.47623249388342
 20
-116.7567423738589
 30
0.0000000000000139
 10
-60.56281799698618
 20
-117.0204224266915
 30
0.0000000000000278
  0
SPLINE
  5
7A
330
1F
100
AcDbEntity
  8
0
 62
    98
420
   346117
370
    -3
100
AcDbSpline
210
0.0
220
0.0
230
1.0
 70
     8
 71
     3
 72
     8
 73
     4
 74
     0
 42
0.000000001
 43
0.00000001
 40
0.1562311018899263
 40
0.1562311018899263
 40
0.1562311018899263
 40
0.1562311018899263
 40
0.1632931907836574
 40
0.1632931907836574
 40
0.1632931907836574
 40
0.1632931907836574
 10
-78.7787883175346
 20
-94.77330808677978
 30
0.0000000000000278
 10
-77.74604425534645
 20
-96.84233551042925
 30
0.0000000000000139
 10
-76.64694860203751
 20
-98.86803637450473
 30
0.0000000000000208
 10
-75.49831759157652
 20
-100.8204530667524
 30
0.0000000000000139
  0
SPLINE
  5
7B
330
1F
100
AcDbEntity
  8
0
 62
    98
420
   346117
370
    -3
100
AcDbSpline
210
0.0
220
0.0
230
1.0
 70
     8
 71
     3
 72
    10
 73
     6
 74
     0
 42
0.000000001
 43
0.00000001
 40
-0.0333771734385093
 40
-0.0333771734385093
 40
-0.0333771734385093
 40
-0.0333771734385093
 40
-0.0142182375182622
 40
-0.0142182375182622
 40
0.0
 40
0.0
 40
0.0
 40
0.0
 10
-87.07903402823852
 20
-64.50122696823341
 30
0.0000000000000173
 10
-86.98279604454945
 20
-69.73156646169804
 30
0.0000000000000139
 10
-85.97100948590344
 20
-75.54915840878304
 30
0.0000000000000139
 10
-82.65656827347308
 20
-86.21440251138107
 30
0.0000000000000139
 10
-80.84143480647971
 20
-90.64174003151335
 30
0.0000000000000139
 10
-78.77878831753829
 20
-94.77330808677226
 30
0.0000000000000278
  0
SPLINE
  5
7C
330
1F
100
AcDbEntity
  8
0
 62
    98
420
   346117
370
    -3
100
AcDbSpline
210
0.0
220
0.0
230
1.0
 70
     8
 71
     3
 72
     8
 73
     4
 74
     0
 42
0.000000001
 43
0.00000001
 40
0.0254132251110685
 40
0.0254132251110685
 40
0.0254132251110685
 40
0.0254132251110685
 40
0.0285387932757206
 40
0.0285387932757206
 40
0.0285387932757206
 40
0.0285387932757206
 10
-28.95028627091339
 20
-60.508675447202
 30
0.000000000000059
 10
-29.71603473035605
 20
-59.86746678116558
 30
0.000000000000059
 10
-30.49125144289817
 20
-59.22850687330869
 30
-0.0000000000000035
 10
-31.27417882348237
 20
-58.59399036415646
 30
0.000000000000059
  0
SPLINE
  5
7D
330
1F
100
AcDbEntity
  8
0
 62
    98
420
   346117
370
    -3
100
AcDbSpline
210
0.0
220
0.0
230
1.0
 70
     8
 71
     3
 72
    18
 73
    14
 74
     0
 42
0.000000001
 43
0.00000001
 40
0.0
 40
0.0
 40
0.0
 40
0.0
 40
0.0031641606339892
 40
0.0031641606339892
 40
0.0063283212679784
 40
0.0063283212679784
 40
0.0126566425359568
 40
0.0126566425359568
 40
0.0189849638039351
 40
0.0189849638039351
 40
0.0253132850719135
 40
0.0253132850719135
 40
0.0254132251110685
 40
0.0254132251110685
 40
0.0254132251110685
 40
0.0254132251110685
 10
-10.99609183237925
 20
-74.0943783856629
 30
0.0000000000000763
 10
-11.90950632927569
 20
-73.83069833283047
 30
0.0000000000000069
 10
-12.74285014733759
 20
-73.45442308551107
 30
0.0000000000000694
 10
-14.3212319331098
 20
-72.5919505131052
 30
0.0
 10
-15.06621718911254
 20
-72.10520781676647
 30
0.0000000000000625
 10
-17.25101636719122
 20
-70.55213810817982
 30
0.0000000000000069
 10
-18.63618238193988
 20
-69.40197949725177
 30
-0.0000000000000035
 10
-21.46760802044145
 20
-66.98487940075262
 30
0.0000000000000139
 10
-22.89544710191081
 20
-65.72496533371532
 30
0.0000000000000659
 10
-25.82602344964324
 20
-63.16738011382525
 30
0.0
 10
-27.32768405208204
 20
-61.86872897556657
 30
0.0000000000000069
 10
-28.90132728831589
 20
-60.5496841274292
 30
0.0000000000000659
 10
-28.92580240674799
 20
-60.52917917320609
 30
0.0000000000000173
 10
-28.95028627091339
 20
-60.508675447202
 30
0.000000000000059
  0
ELLIPSE
  5
7E
330
1F
100
AcDbEntity
  8
0
 62
    98
420
   346117
370
    -3
100
AcDbEllipse
 10
-35.77945491468076
 20
-101.2087213157167
 30
0.0000000000000069
 11
-13.86596158844944
 21
-48.03309993398577
 31
2.775248669249416E-15
210
-1.487294956741782E-16
220
-1.484333087270395E-17
230
-1.0
 40
0.4330127018922194
 41
3.750909018156142
 42
3.99348668293694
  0
SPLINE
  5
7F
330
1F
100
AcDbEntity
  8
0
 62
    98
420
   346117
370
    -3
100
AcDbSpline
210
0.0
220
0.0
230
1.0
 70
     8
 71
     3
 72
    10
 73
     6
 74
     0
 42
0.000000001
 43
0.00000001
 40
-0.0158821700510916
 40
-0.0158821700510916
 40
-0.0158821700510916
 40
-0.0158821700510916
 40
-0.0103094398797993
 40
-0.0103094398797993
 40
0.0
 40
0.0
 40
0.0
 40
0.0
 10
-26.05339395780395
 20
-58.61886869716299
 30
0.0000000000000625
 10
-24.46869966870393
 20
-59.58609134648247
 30
0.0000000000000625
 10
-22.89000522774513
 20
-60.52258832347401
 30
0.0000000000000139
 10
-18.39634622523719
 20
-63.00942699254622
 30
0.0000000000000035
 10
-15.48151819931242
 20
-64.39677388309673
 30
0.000000000000059
 10
-12.50543925441421
 20
-65.25589387307998
 30
0.0000000000000069
  0
ELLIPSE
  5
80
330
1F
100
AcDbEntity
  8
0
 62
    98
420
   346117
370
    -3
100
AcDbEllipse
 10
-35.77945491468366
 20
-81.51759078916061
 30
0.0
 11
46.81882266271592
 21
0.0
 31
-5.197933490598929E-15
210
-1.110223024625157E-16
220
-5.551115123125782E-17
230
-1.0
 40
0.5
 41
4.92165119300242
 42
5.235987755982988
  0
ELLIPSE
  5
81
330
1F
100
AcDbEntity
  8
0
 62
    98
420
   346117
370
    -3
100
AcDbEllipse
 10
-236.963160767856
 20
-232.3214138713857
 30
0.0
 11
124.8075441506766
 21
432.3460152737352
 31
-2.498001805406602E-14
210
1.487294956741782E-16
220
1.484333087270395E-17
230
1.0
 40
0.4330127018922195
 41
5.240243211315024
 42
5.306054741272219
  0
SPLINE
  5
82
330
1F
100
AcDbEntity
  8
0
 62
    98
420
   346117
370
    -3
100
AcDbSpline
210
0.0
220
0.0
230
1.0
 70
     8
 71
     3
 72
    17
 73
    13
 74
     0
 42
0.000000001
 43
0.00000001
 40
0.0334067315981569
 40
0.0334067315981569
 40
0.0334067315981569
 40
0.0334067315981569
 40
0.0428704638597893
 40
0.0428704638597893
 40
0.0428704638597893
 40
0.0491749438391701
 40
0.0491749438391701
 40
0.0491749438391701
 40
0.0575953852151187
 40
0.0575953852151187
 40
0.0575953852151187
 40
0.0621049362234691
 40
0.0621049362234691
 40
0.0621049362234691
 40
0.0621049362234691
 10
-49.35021048079255
 20
-3.192703307315476
 30
0.0000000000000139
 10
-50.0700824884389
 20
-6.005767273335884
 30
0.0000000000000763
 10
-50.67780599615404
 20
-8.836932576175734
 30
0.0000000000000729
 10
-51.18623211993699
 20
-11.67267335776645
 30
0.0000000000000069
 10
-51.52493171854772
 20
-13.56176642274477
 30
0.0
 10
-51.81941213970448
 20
-15.4528915165271
 30
0.0000000000000729
 10
-52.07237220202875
 20
-17.34215216670468
 30
0.0000000000000069
 10
-52.41023279992484
 20
-19.86550200693521
 30
0.0000000000000173
 10
-52.67581339970464
 20
-22.39818416627737
 30
0.0000000000000173
 10
-52.87233103134329
 20
-24.93700384290778
 30
0.0000000000000104
 10
-52.97757566690913
 20
-26.29666378489945
 30
0.0000000000000625
 10
-53.0629769374524
 20
-27.65809733137166
 30
0.0000000000000139
 10
-53.12881026503898
 20
-29.02089317733171
 30
0.0000000000000069
  0
ELLIPSE
  5
83
330
1F
100
AcDbEntity
  8
0
 62
    98
420
   346117
370
    -3
100
AcDbEllipse
 10
-35.7794549146831
 20
-25.18224843123226
 30
-0.0000000000000035
 11
46.02527333657625
 21
-7.371094657777998E-13
 31
-5.109831817285773E-15
210
-1.110223024623516E-16
220
1.774111354547410E-30
230
-1.0
 40
0.4999999999999792
 41
4.413085811968287
 42
5.235987755982981
  0
ELLIPSE
  5
84
330
1F
100
AcDbEntity
  8
0
 62
    98
420
   346117
370
    -3
100
AcDbEllipse
 10
-236.963160767856
 20
-232.3214138713857
 30
0.0
 11
124.8075441506766
 21
432.3460152737352
 31
-2.498001805406602E-14
210
1.487294956741782E-16
220
1.484333087270395E-17
230
1.0
 40
0.4330127018922195
 41
5.384936712106326
 42
5.415392115565538
  0
SPLINE
  5
85
330
1F
100
AcDbEntity
  8
0
 62
    98
420
   346117
370
    -3
100
AcDbSpline
210
0.0
220
0.0
230
1.0
 70
     8
 71
     3
 72
    16
 73
    12
 74
     0
 42
0.000000001
 43
0.00000001
 40
0.0022798973877195
 40
0.0022798973877195
 40
0.0022798973877195
 40
0.0022798973877195
 40
0.00820598867403
 40
0.00820598867403
 40
0.01641197734806
 40
0.01641197734806
 40
0.02461796602209
 40
0.02461796602209
 40
0.0328239546961199
 40
0.0328239546961199
 40
0.0331020738910749
 40
0.0331020738910749
 40
0.0331020738910749
 40
0.0331020738910749
 10
-71.8248515456144
 20
-0.1889814022089745
 30
0.0000000000000069
 10
-69.3416284825424
 20
1.499340020395832
 30
0.0000000000000243
 10
-66.3750829586297
 20
3.026393350055562
 30
0.0000000000000278
 10
-58.52429680422209
 20
6.058965859558299
 30
0.0000000000000104
 10
-53.17558758380489
 20
7.394212933894497
 30
-0.0000000000000139
 10
-42.06675241014949
 20
8.921645840797797
 30
0.0000000000000104
 10
-36.10464672698519
 20
9.141603305691154
 30
0.0000000000000104
 10
-24.66774862856134
 20
8.445940682346228
 30
0.0000000000000642
 10
-18.98501167609316
 20
7.517672125876453
 30
0.0000000000000069
 10
-13.78846213017976
 20
6.062680929632264
 30
0.0000000000000121
 10
-13.61865723129469
 20
6.014375546814482
 30
0.0000000000000113
 10
-13.44934802289962
 20
5.965528094605805
 30
0.000000000000072
  0
ELLIPSE
  5
86
330
1F
100
AcDbEntity
  8
0
 62
    98
420
   346117
370
    -3
100
AcDbEllipse
 10
165.4042509384887
 20
116.138986321301
 30
-0.0000000000000139
 11
124.8075441506766
 21
432.3460152737352
 31
-2.498001805406602E-14
210
1.487294956741782E-16
220
1.484333087270395E-17
230
1.0
 40
0.4330127018922195
 41
2.043798398709183
 42
2.074253802168396
  0
ELLIPSE
  5
87
330
1F
100
AcDbEntity
  8
0
 62
    98
420
   346117
370
    -3
100
AcDbEllipse
 10
165.4042509384887
 20
116.138986321301
 30
-0.0000000000000139
 11
124.8075441506766
 21
432.3460152737352
 31
-2.498001805406602E-14
210
1.487294956741782E-16
220
1.484333087270395E-17
230
1.0
 40
0.4330127018922195
 41
2.141020215988863
 42
2.218947302959712
  0
LINE
  5
88
330
1F
100
AcDbEntity
  8
0
 62
    98
420
   346117
370
    -3
100
AcDbLine
 10
-12.50543925441632
 20
-65.25589387308307
 30
0.0000000000000035
 11
-12.37004358332863
 21
-61.24444588855273
 31
0.0000000000000055
  0
LINE
  5
89
330
1F
100
AcDbEntity
  8
0
 62
    98
420
   346117
370
    -3
100
AcDbLine
 10
-10.50696582106583
 20
-59.60275146367803
 30
0.0
 11
-10.99609183238492
 21
-74.09437838566633
 31
0.000000000000004
  0
SPLINE
  5
8A
330
1F
100
AcDbEntity
  8
0
 62
    98
420
   346117
370
    -3
100
AcDbSpline
210
0.0
220
0.0
230
1.0
 70
     8
 71
     3
 72
    10
 73
     6
 74
     0
 42
0.000000001
 43
0.00000001
 40
0.0
 40
0.0
 40
0.0
 40
0.0
 40
0.0066053257213158
 40
0.0066053257213158
 40
0.0132101392014008
 40
0.0132101392014008
 40
0.0132101392014008
 40
0.0132101392014008
 10
-53.12881026512969
 20
-29.02089317721217
 30
0.0000000000000729
 10
-51.07874897854276
 20
-28.61931412813033
 30
0.0
 10
-48.91008804118749
 20
-28.38968101151099
 30
0.0000000000000121
 10
-44.51096260155962
 20
-28.29273137172089
 30
0.0000000000000035
 10
-42.31045401725034
 20
-28.42604642800155
 30
-0.0000000000000121
 10
-40.1977554207181
 20
-28.73573192563354
 30
0.0000000000000035
  0
SPLINE
  5
8B
330
1F
100
AcDbEntity
  8
0
 62
    98
420
   346117
370
    -3
100
AcDbSpline
210
0.0
220
0.0
230
1.0
 70
     8
 71
     3
 72
    20
 73
    16
 74
     0
 42
0.000000001
 43
0.00000001
 40
-0.0617500447743805
 40
-0.0617500447743805
 40
-0.0617500447743805
 40
-0.0617500447743805
 40
-0.0575953852151187
 40
-0.0575953852151187
 40
-0.0575953852151187
 40
-0.0491749438391701
 40
-0.0491749438391701
 40
-0.0491749438391701
 40
-0.0428704638597893
 40
-0.0428704638597893
 40
-0.0428704638597893
 40
-0.0327832958927801
 40
-0.0327832958927801
 40
-0.0327832958927801
 40
-0.0317101485466828
 40
-0.0317101485466828
 40
-0.0317101485466828
 40
-0.0317101485466828
 10
-40.19775542071807
 20
-28.7357319256337
 30
-0.0000000000000017
 10
-40.14779183928017
 20
-27.54151423036651
 30
-0.0000000000000035
 10
-40.08479469374895
 20
-26.34981425503119
 30
0.0000000000000035
 10
-40.00869646865914
 20
-25.16093766693442
 30
0.0000000000000746
 10
-39.85446466361174
 20
-22.75138630165091
 30
0.0000000000000087
 10
-39.64646300253902
 20
-20.3533904156017
 30
0.0000000000000121
 10
-39.38365392803727
 20
-17.96994311119253
 30
0.0000000000000173
 10
-39.18688579266028
 20
-16.18542907663412
 30
-0.0000000000000035
 10
-38.95862569928784
 20
-14.4023708261868
 30
0.0000000000000121
 10
-38.69777421634488
 20
-12.62446458817986
 30
0.0000000000000104
 10
-38.28041184363457
 20
-9.779814607369067
 30
0.0000000000000156
 10
-37.77980082528455
 20
-6.948389235714712
 30
-0.0000000000000087
 10
-37.19003776645019
 20
-4.145254311898001
 30
-0.0000000000000017
 10
-37.12729442129287
 20
-3.847036138661964
 30
0.0000000000000659
 10
-37.06353899854237
 20
-3.549137825590531
 30
0.0000000000000295
 10
-36.9987618324709
 20
-3.251577297694615
 30
0.0000000000000607
  0
SPLINE
  5
8C
330
1F
100
AcDbEntity
  8
0
 62
    98
420
   346117
370
    -3
100
AcDbSpline
210
0.0
220
0.0
230
1.0
 70
     8
 71
     3
 72
    10
 73
     6
 74
     0
 42
0.000000001
 43
0.00000001
 40
0.0
 40
0.0
 40
0.0
 40
0.0
 40
0.0062742589187608
 40
0.0062742589187608
 40
0.0125739659800785
 40
0.0125739659800785
 40
0.0125739659800785
 40
0.0125739659800785
 10
-36.99876183247089
 20
-3.251577297694555
 30
0.0000000000000677
 10
-38.98603677767829
 20
-2.925703702185115
 30
0.0000000000000711
 10
-41.06212611952684
 20
-2.753846800152839
 30
0.0000000000000711
 10
-45.25306741588243
 20
-2.73185226173215
 30
-0.0000000000000035
 10
-47.34389887040562
 20
-2.883156614422894
 30
0.0000000000000173
 10
-49.35021047690233
 20
-3.19270331458738
 30
0.0000000000000659
  0
ELLIPSE
  5
8D
330
1F
100
AcDbEntity
  8
0
 62
    98
420
   346117
370
    -3
100
AcDbEllipse
 10
-35.77945491468363
 20
-25.18224843123268
 30
-0.0000000000000069
 11
46.02527333657635
 21
-7.371094657778013E-13
 31
-5.109831817285785E-15
210
-1.110223024623516E-16
220
1.774111354547410E-30
230
-1.0
 40
0.4999999999999792
 41
5.235987755982981
 42
5.836308323144108
  0
ELLIPSE
  5
8E
330
1F
100
AcDbEntity
  8
0
 62
    98
420
   346117
370
    -3
100
AcDbEllipse
 10
-69.89588729825464
 20
-53.40571226248176
 30
0.0000000000000139
 11
-105.565003103204
 21
1.747711045624445E-12
 31
1.276171035955076E-14
210
1.208895939412284E-16
220
5.551115123125584E-17
230
1.0
 40
0.4999999999999792
 41
4.395481968959304
 42
4.443092465669404
  0
ELLIPSE
  5
8F
330
1F
100
AcDbEntity
  8
0
 62
    98
420
   346117
370
    -3
100
AcDbEllipse
 10
-69.89588729825464
 20
-53.40571226248176
 30
0.0000000000000139
 11
-105.565003103204
 21
1.747711045624445E-12
 31
1.276171035955076E-14
210
1.208895939412284E-16
220
5.551115123125584E-17
230
1.0
 40
0.4999999999999792
 41
3.926990816987249
 42
4.395481968959304
  0
LINE
  5
90
330
1F
100
AcDbEntity
  8
0
 62
    98
420
   346117
370
    -3
100
AcDbLine
 10
5.726187821900715
 20
-15.23730742095055
 30
0.0
 11
4.749842251999958
 21
-16.08284748735698
 31
-0.0000000000000004
  0
ELLIPSE
  5
91
330
1F
100
AcDbEntity
  8
0
 62
    98
420
   346117
370
    -3
100
AcDbEllipse
 10
-69.89588729825502
 20
-79.38647437601523
 30
0.0
 11
105.565003103204
 21
-1.676688535275687E-12
 31
-1.120689724889465E-14
210
-1.061611037697635E-16
220
1.681697683067813E-30
230
-1.0
 40
0.4999999999999787
 41
4.997564142709854
 42
5.49778714378213
  0
LINE
  5
92
330
1F
100
AcDbEntity
  8
0
 62
    98
420
   346117
370
    -3
100
AcDbLine
 10
4.749842251999974
 20
-16.08284748735701
 30
0.0
 11
4.749842251999558
 21
-42.06360960089044
 31
0.0000000000000014
  0
LINE
  5
93
330
1F
100
AcDbEntity
  8
0
 62
    98
420
   346117
370
    -3
100
AcDbLine
 10
-59.44209158297186
 20
-71.65545502002558
 30
0.0000000000000069
 11
-59.56019069618399
 21
-71.75773185223173
 31
0.0000000000000062
  0
LINE
  5
94
330
1F
100
AcDbEntity
  8
0
 62
    98
420
   346117
370
    -3
100
AcDbLine
 10
-33.03450081976059
 20
-74.78581056634135
 30
0.0000000000000069
 11
-31.27543108457638
 21
-73.2624114886435
 31
0.0000000000000122
  0
ELLIPSE
  5
95
330
1F
100
AcDbEntity
  8
0
 62
    98
420
   346117
370
    -3
100
AcDbEllipse
 10
-35.77945491468365
 20
-51.16301054476683
 30
0.0000000000000139
 11
47.32527333657634
 21
0.0
 31
-5.254160810494606E-15
210
-1.110223024625157E-16
220
-5.551115123125782E-17
230
-1.0
 40
0.5
 41
1.512761891089517
 42
2.094395102393195
  0
ELLIPSE
  5
96
330
1F
100
AcDbEntity
  8
0
 62
    98
420
   346117
370
    -3
100
AcDbEllipse
 10
-3.953197785159908
 20
3.702332049724148
 30
-0.0000000000000033
 11
-105.5650031032008
 21
3.931635294424632E-12
 31
9.679096240841681E-15
210
9.168849482607008E-17
220
5.551115123125441E-17
230
1.0
 40
0.5000000000000167
 41
1.026546132611848
 42
1.308996938995752
  0
LINE
  5
97
330
1F
100
AcDbEntity
  8
0
 62
    98
420
   346117
370
    -3
100
AcDbLine
 10
-31.27543108457741
 20
-73.26241148864315
 30
0.0
 11
-31.27543108457643
 21
-47.2816493751103
 31
0.0
  0
LINE
  5
98
330
1F
100
AcDbEntity
  8
0
 62
    98
420
   346117
370
    -3
100
AcDbLine
 10
4.749842251999573
 20
-42.06360960089046
 30
-0.0000000000000035
 11
6.508911987183671
 21
-40.54021052319274
 31
-0.0000000000000027
  0
SPLINE
  5
99
330
1F
100
AcDbEntity
  8
0
 62
    98
420
   346117
370
    -3
100
AcDbSpline
210
0.0
220
0.0
230
1.0
 70
    12
 71
     2
 72
     6
 73
     3
 74
     0
 42
0.000000001
 43
0.00000001
 40
4.9526244758939
 40
4.9526244758939
 40
4.9526244758939
 40
5.096889072470946
 40
5.096889072470946
 40
5.096889072470946
 10
6.50891198703394
 20
-40.54021052314953
 30
0.0000000000000729
 41
7.460212627245095
 10
6.112099794735997
 20
-27.63115422734124
 30
0.0000000000000642
 41
7.528295676449551
 10
5.726187821649075
 20
-15.23730742087789
 30
0.0000000000000833
 41
7.594863645785364
  0
LINE
  5
9A
330
1F
100
AcDbEntity
  8
0
 62
    98
420
   346117
370
    -3
100
AcDbLine
 10
-31.27543108457636
 20
-47.28164937511032
 30
0.0
 11
-32.25177665447714
 21
-48.12718944151675
 31
0.0000000000000042
  0
SPLINE
  5
9B
330
1F
100
AcDbEntity
  8
0
 62
    98
420
   346117
370
    -3
100
AcDbSpline
210
0.0
220
0.0
230
1.0
 70
    12
 71
     2
 72
     6
 73
     3
 74
     0
 42
0.000000001
 43
0.00000001
 40
17.77397816849385
 40
17.77397816849385
 40
17.77397816849385
 40
17.91824276507086
 40
17.91824276507086
 40
17.91824276507086
 10
-32.25177665472876
 20
-48.12718944144413
 30
0.0000000000000069
 41
7.594863645787414
 10
-32.63768862780971
 20
-61.18945539243217
 30
0.0000000000000035
 41
7.528295676451573
 10
-33.03450081991029
 20
-74.78581056629812
 30
0.0000000000000069
 41
7.46021262724709
  0
ELLIPSE
  5
9C
330
1F
100
AcDbEntity
  8
0
 62
    98
420
   346117
370
    -3
100
AcDbEllipse
 10
-35.77945491468363
 20
-25.18224843123367
 30
0.0000000000000052
 11
46.02527333657635
 21
0.0
 31
-5.109831817293336E-15
210
-1.110223024625157E-16
220
-5.551115123125782E-17
230
-1.0
 40
0.5
 41
1.494074535232068
 42
2.094395102393195
  0
LINE
  5
9D
330
1F
100
AcDbEntity
  8
0
 62
    98
420
   346117
370
    -3
100
AcDbLine
 10
-59.44209158297645
 20
-71.65545502001459
 30
0.0
 11
-58.7920915829714
 21
-45.11177639401759
 31
0.0000000000000059
  0
LINE
  5
9E
330
1F
100
AcDbEntity
  8
0
 62
    98
420
   346117
370
    -3
100
AcDbLine
 10
-60.5628179969889
 20
-117.0204224266428
 30
0.0
 11
-61.05194400830352
 21
-103.3759866075548
 31
0.0000000000000045
  0
LINE
  5
9F
330
1F
100
AcDbEntity
  8
0
 62
    98
420
   346117
370
    -3
100
AcDbLine
 10
-59.18886624604131
 20
-101.7907356897758
 30
0.0000000000000069
 11
-59.05347057495363
 21
-105.5676714928462
 31
0.0000000000000009
  0
LINE
  5
A0
330
1F
100
AcDbEntity
  8
0
 62
    98
420
   346117
370
    -3
100
AcDbLine
 10
-54.71616945340793
 20
-17.63689532260004
 30
0.0000000000000009
 11
-58.1095618064888
 21
-32.71135158040195
 31
-0.0000000000000008
  0
LINE
  5
A1
330
1F
100
AcDbEntity
  8
0
 62
    98
420
   346117
370
    -3
100
AcDbLine
 10
-54.67180537364771
 20
-17.52188682830968
 30
0.0000000000000052
 11
-54.71616945339002
 21
-17.63689532260521
 31
0.0000000000000032
  0
LINE
  5
A2
330
1F
100
AcDbEntity
  8
0
 62
    98
420
   346117
370
    -3
100
AcDbLine
 10
-54.67180537364769
 20
-10.87947198128306
 30
0.0000000000000026
 11
-54.67180537364771
 21
-17.52188682830968
 31
0.0000000000000052
  0
LINE
  5
A3
330
1F
100
AcDbEntity
  8
0
 62
    98
420
   346117
370
    -3
100
AcDbLine
 10
-54.67180537364769
 20
-10.87947198128306
 30
0.0000000000000026
 11
-56.9268053736475
 21
-12.83235926681676
 31
0.0000000000000008
  0
LINE
  5
A4
330
1F
100
AcDbEntity
  8
0
 62
    98
420
   346117
370
    -3
100
AcDbLine
 10
-57.30815642972961
 20
-18.93900841238608
 30
0.0000000000000035
 11
-59.03693146492922
 21
-20.43617151029729
 31
0.0000000000000031
  0
ELLIPSE
  5
A5
330
1F
100
AcDbEntity
  8
0
 62
    98
420
   346117
370
    -3
100
AcDbEllipse
 10
163.5411731762263
 20
114.5537354034954
 30
0.0
 11
-124.8075441506766
 21
-432.3460152737352
 31
2.498001805406602E-14
210
-1.487294956741782E-16
220
-1.484333087270395E-17
230
-1.0
 40
0.4330127018922195
 41
0.9226453506300917
 42
1.107849592550493
  0
ELLIPSE
  5
A6
330
1F
100
AcDbEntity
  8
0
 62
    98
420
   346117
370
    -3
100
AcDbEllipse
 10
-235.1000830055935
 20
-230.679719446501
 30
0.0000000000000139
 11
-124.8075441506766
 21
-432.3460152737352
 31
2.498001805406602E-14
210
-1.487294956741782E-16
220
-1.484333087270395E-17
230
-1.0
 40
0.4330127018922195
 41
3.999330507533981
 42
4.045869087590346
  0
ELLIPSE
  5
A7
330
1F
100
AcDbEntity
  8
0
 62
    98
420
   346117
370
    -3
100
AcDbEllipse
 10
-235.1000830055935
 20
-230.679719446501
 30
0.0000000000000139
 11
-124.8075441506766
 21
-432.3460152737352
 31
2.498001805406602E-14
210
-1.487294956741782E-16
220
-1.484333087270395E-17
230
-1.0
 40
0.4330127018922195
 41
4.124548653862742
 42
4.184534749454363
  0
LINE
  5
A8
330
1F
100
AcDbEntity
  8
0
 62
    98
420
   346117
370
    -3
100
AcDbLine
 10
-12.52197836443805
 20
19.8469595305698
 30
0.0
 11
-14.25075339963825
 21
18.34979643265808
 31
-0.0000000000000003
  0
LINE
  5
A9
330
1F
100
AcDbEntity
  8
0
 62
    98
420
   346117
370
    -3
100
AcDbLine
 10
-14.6321044557188
 20
23.79592617357356
 30
0.0000000000000017
 11
-14.25075339963584
 21
18.34979643267776
 31
0.0000000000000008
  0
LINE
  5
AA
330
1F
100
AcDbEntity
  8
0
 62
    98
420
   346117
370
    -3
100
AcDbLine
 10
-14.63210445571956
 20
23.79592617357385
 30
0.0000000000000017
 11
-16.88710445571954
 21
21.84303888803995
 31
0.0000000000000011
  0
LINE
  5
AB
330
1F
100
AcDbEntity
  8
0
 62
    98
420
   346117
370
    -3
100
AcDbLine
 10
-13.44934802289962
 20
5.965528094605835
 30
0.0000000000000022
 11
-16.84274037597731
 21
15.16245638686242
 31
0.0000000000000005
  0
ELLIPSE
  5
AC
330
1F
100
AcDbEntity
  8
0
 62
    98
420
   346117
370
    -3
100
AcDbEllipse
 10
-35.77945491468367
 20
-81.48936903562094
 30
0.0000000000000069
 11
-50.54497818724074
 21
0.0
 31
5.611619856265098E-15
210
1.110223024625157E-16
220
5.551115123125782E-17
230
1.0
 40
0.5
 41
0.5534536666625983
 42
1.047197551196597
  0
LINE
  5
AD
330
1F
100
AcDbEntity
  8
0
 62
    98
420
   346117
370
    -3
100
AcDbLine
 10
-82.17173011777113
 20
1.393415294206386
 30
0.0000000000000033
 11
-83.49782869172027
 21
-7.717943982243438
 31
0.0000000000000073
  0
LINE
  5
AE
330
1F
100
AcDbEntity
  8
0
 62
    98
420
   346117
370
    -3
100
AcDbLine
 10
-77.98188413474882
 20
6.877911461693318
 30
0.0000000000000052
 11
-78.74292295664456
 21
1.126693547807339
 31
-0.0000000000000025
  0
SPLINE
  5
AF
330
1F
100
AcDbEntity
  8
0
 62
    98
420
   346117
370
    -3
100
AcDbSpline
210
0.0
220
0.0
230
1.0
 70
     8
 71
     3
 72
    10
 73
     6
 74
     0
 42
0.000000001
 43
0.00000001
 40
0.0
 40
0.0
 40
0.0
 40
0.0
 40
0.0417632849444012
 40
0.0417632849444012
 40
0.0635872879490964
 40
0.0635872879490964
 40
0.0635872879490964
 40
0.0635872879490964
 10
-83.49782900641851
 20
-7.717946144473104
 30
0.0000000000000208
 10
-85.28930140738302
 20
-20.02679633079191
 30
0.0000000000000139
 10
-86.42372187458739
 20
-32.45194190371532
 30
0.0000000000000104
 10
-87.13651714747533
 20
-51.44804234582605
 30
0.0000000000000173
 10
-87.19887882243282
 20
-57.97261770851817
 30
0.0000000000000243
 10
-87.07918966671771
 20
-64.4927828665969
 30
0.0000000000000139
  0
ELLIPSE
  5
B2
330
1F
100
AcDbEntity
  8
Hidden
370
    -3
100
AcDbEllipse
 10
-35.77945491468365
 20
-9.454220225935176
 30
-0.0000000000000035
 11
47.84455890383554
 21
0.0
 31
-5.311813089807276E-15
210
-1.110223024625157E-16
220
-5.551115123125782E-17
230
-1.0
 40
0.5
 41
3.214328124936168
 42
5.235987755982995
  0
ELLIPSE
  5
B3
330
1F
100
AcDbEntity
  8
Hidden
370
    -3
100
AcDbEllipse
 10
-35.77945491468368
 20
-0.2946059898637698
 30
0.0
 11
-46.51495310049114
 21
0.0
 31
5.164197192152458E-15
210
1.110223024625157E-16
220
5.551115123125782E-17
230
1.0
 40
0.5
 41
4.234609991592666
 42
5.790527114940995
  0
SPLINE
  5
B4
330
1F
100
AcDbEntity
  8
Hidden
370
    -3
100
AcDbSpline
210
-1.789077770278727E-10
220
2.528556942162602E-10
230
-1.0
 70
     8
 71
     3
 72
     8
 73
     4
 74
     0
 42
0.000000001
 43
0.00000001
 40
-0.0020343050762846
 40
-0.0020343050762846
 40
-0.0020343050762846
 40
-0.0020343050762846
 40
-0.0019880590863205
 40
-0.0019880590863205
 40
-0.0019880590863205
 40
-0.0019880590863205
 10
-66.60600330063579
 20
9.76415027287409
 30
0.0000000000000139
 10
-66.62200753503303
 20
9.752826493878649
 30
0.0000000000000139
 10
-66.63814100105247
 20
9.74155467751639
 30
0.000000000000059
 10
-66.6542490447034
 20
9.730274748114187
 30
0.0000000000000798
  0
SPLINE
  5
B5
330
1F
100
AcDbEntity
  8
Hidden
370
    -3
100
AcDbSpline
210
0.0
220
0.0
230
1.0
 70
     8
 71
     3
 72
     8
 73
     4
 74
     0
 42
0.000000001
 43
0.00000001
 40
-0.0019880590863205
 40
-0.0019880590863205
 40
-0.0019880590863205
 40
-0.0019880590863205
 40
0.0
 40
0.0
 40
0.0
 40
0.0
 10
-66.6542490447034
 20
9.730274748114187
 30
0.0000000000000798
 10
-67.34280575382326
 20
9.24397173716908
 30
0.0000000000000173
 10
-67.9870398976841
 20
8.743622819716762
 30
0.0000000000000104
 10
-68.57880662415134
 20
8.231137801481765
 30
0.0000000000000139
  0
ELLIPSE
  5
B6
330
1F
100
AcDbEntity
  8
Hidden
370
    -3
100
AcDbEllipse
 10
-35.77945491468368
 20
-0.2946059898637698
 30
0.0
 11
43.05740303009128
 21
0.0
 31
-4.780332022457232E-15
210
-1.110223024625157E-16
220
-5.551115123125782E-17
230
-1.0
 40
0.5
 41
3.20774260076869
 42
5.235987755982991
  0
SPLINE
  5
B7
330
1F
100
AcDbEntity
  8
Hidden
370
    -3
100
AcDbSpline
210
0.0
220
0.0
230
1.0
 70
     8
 71
     3
 72
    12
 73
     8
 74
     0
 42
0.000000001
 43
0.00000001
 40
-0.1144409831501957
 40
-0.1144409831501957
 40
-0.1144409831501957
 40
-0.1144409831501957
 40
-0.0991623745527869
 40
-0.0991623745527869
 40
-0.0853056807390681
 40
-0.0853056807390681
 40
-0.0796884902349791
 40
-0.0796884902349791
 40
-0.0796884902349791
 40
-0.0796884902349791
 10
-70.57817452800047
 20
-97.17845976885742
 30
0.0000000000000278
 10
-73.62195000352895
 20
-93.52553179958855
 30
0.0000000000000139
 10
-76.42620457021354
 20
-88.87292985703921
 30
0.0000000000000833
 10
-80.65256426721683
 20
-79.09737834246236
 30
0.0000000000000208
 10
-82.14078975411812
 20
-74.15007759116065
 30
0.0000000000000139
 10
-83.17018539511552
 20
-67.31875451373959
 30
0.0000000000000173
 10
-83.33567706969232
 20
-65.4088609897134
 30
0.0000000000000069
 10
-83.36885712944166
 20
-63.57541420556488
 30
0.0000000000000243
  0
SPLINE
  5
B8
330
1F
100
AcDbEntity
  8
Hidden
370
    -3
100
AcDbSpline
210
0.0
220
0.0
230
1.0
 70
     8
 71
     3
 72
    26
 73
    22
 74
     0
 42
0.000000001
 43
0.00000001
 40
-0.0796884902349791
 40
-0.0796884902349791
 40
-0.0796884902349791
 40
-0.0796884902349791
 40
-0.0739738274384222
 40
-0.0739738274384222
 40
-0.0645579886901801
 40
-0.0645579886901801
 40
-0.0603192736294518
 40
-0.0603192736294518
 40
-0.0581727599119602
 40
-0.0581727599119602
 40
-0.0565514044512758
 40
-0.0565514044512758
 40
-0.0548068735906075
 40
-0.0548068735906075
 40
-0.0520410709097801
 40
-0.0520410709097801
 40
-0.0437539003616554
 40
-0.0437539003616554
 40
-0.0320238949216051
 40
-0.0320238949216051
 40
-0.0303755477350232
 40
-0.0303755477350232
 40
-0.0303755477350232
 40
-0.0303755477350232
 10
-83.36885712944166
 20
-63.57541420556488
 30
0.0000000000000243
 10
-83.40324562043445
 20
-61.71072172117928
 30
0.0000000000000659
 10
-83.30070176051106
 20
-59.92516195619147
 30
0.0000000000000069
 10
-82.66590959681487
 20
-55.45287662507675
 30
0.0000000000000208
 10
-81.89280577029973
 20
-52.89701118091848
 30
0.0000000000000729
 10
-80.17299021790289
 20
-49.66874886424242
 30
0.0000000000000104
 10
-79.55910529553198
 20
-48.74053722529229
 30
0.0000000000000278
 10
-78.5137606919558
 20
-47.46387681134082
 30
0.0000000000000069
 10
-78.14257855903719
 20
-47.05633437645737
 30
0.0000000000000035
 10
-77.45674564390437
 20
-46.37999024836645
 30
0.0000000000000035
 10
-77.15078410464213
 20
-46.1019370980274
 30
0.0000000000000139
 10
-76.49345916878195
 20
-45.55203550582404
 30
0.0000000000000173
 10
-76.14075084468
 20
-45.28254632267986
 30
0.0000000000000694
 10
-75.1984904955554
 20
-44.62626858245221
 30
0.0000000000000729
 10
-74.59235706930076
 20
-44.26399883935144
 30
0.0000000000000139
 10
-72.06251119616674
 20
-42.97674840203118
 30
0.0
 10
-69.94910223906045
 20
-42.38470071436247
 30
0.0000000000000104
 10
-64.44440943338887
 20
-41.78389584974735
 30
0.0000000000000763
 10
-60.84878509323531
 20
-42.11630797388814
 30
0.0000000000000069
 10
-56.42612239722655
 20
-43.22215001192227
 30
0.0000000000000139
 10
-55.87964790818678
 20
-43.37004437518365
 30
0.0000000000000035
 10
-55.33168660894002
 20
-43.52863976495009
 30
-0.0000000000000104
  0
SPLINE
  5
B9
330
1F
100
AcDbEntity
  8
Hidden
370
    -3
100
AcDbSpline
210
0.0
220
0.0
230
1.0
 70
     8
 71
     3
 72
    10
 73
     6
 74
     0
 42
0.000000001
 43
0.00000001
 40
-0.0303755477350232
 40
-0.0303755477350232
 40
-0.0303755477350232
 40
-0.0303755477350232
 40
-0.0143422850026069
 40
-0.0143422850026069
 40
-0.0059093387908842
 40
-0.0059093387908842
 40
-0.0059093387908842
 40
-0.0059093387908842
 10
-55.33168660894002
 20
-43.52863976495009
 30
-0.0000000000000104
 10
-50.00440849254646
 20
-45.07376884209169
 30
-0.0000000000000069
 10
-44.55977418231423
 20
-47.65309095092203
 30
0.0000000000000763
 10
-36.52260280882691
 20
-52.17020199674865
 30
0.0000000000000555
 10
-33.84241445383923
 20
-53.80584348930071
 30
0.0000000000000139
 10
-31.27486500229266
 20
-55.39319509784045
 30
-0.0000000000000069
  0
SPLINE
  5
BA
330
1F
100
AcDbEntity
  8
Hidden
370
    -3
100
AcDbSpline
210
0.0
220
0.0
230
1.0
 70
     8
 71
     3
 72
    10
 73
     6
 74
     0
 42
0.000000001
 43
0.00000001
 40
0.1621166027631035
 40
0.1621166027631035
 40
0.1621166027631035
 40
0.1621166027631035
 40
0.1724260426429048
 40
0.1724260426429048
 40
0.1779987728142577
 40
0.1779987728142577
 40
0.1779987728142577
 40
0.1779987728142577
 10
-59.05347057495226
 20
-105.5676714928418
 30
0.0000000000000278
 10
-62.02954951985105
 20
-104.7085515028583
 30
0.0000000000000139
 10
-64.62626385091828
 20
-103.0457100712685
 30
0.0000000000000069
 10
-68.24890983852042
 20
-99.80455200423582
 30
0.0000000000000139
 10
-69.44777726413786
 20
-98.53911518288935
 30
0.0000000000000208
 10
-70.57817452801643
 20
-97.17845976883824
 30
0.0000000000000139
  0
SPLINE
  5
BB
330
1F
100
AcDbEntity
  8
Hidden
370
    -3
100
AcDbSpline
210
0.0
220
0.0
230
1.0
 70
     8
 71
     3
 72
    12
 73
     8
 74
     0
 42
0.000000001
 43
0.00000001
 40
-0.1310309426865301
 40
-0.1310309426865301
 40
-0.1310309426865301
 40
-0.1310309426865301
 40
-0.1169288977998508
 40
-0.1169288977998508
 40
-0.1010930104955767
 40
-0.1010930104955767
 40
-0.0990000509579189
 40
-0.0990000509579189
 40
-0.0990000509579189
 40
-0.0990000509579189
 10
-34.27066425484473
 20
-56.22814197371155
 30
0.0000000000000694
 10
-37.74598210760571
 20
-53.55698456376208
 30
0.0000000000000035
 10
-41.42034040619104
 20
-50.97408956363156
 30
0.0000000000000625
 10
-49.51861177452409
 20
-46.16787299355642
 30
0.0000000000000625
 10
-53.70319974933617
 20
-44.19208694828814
 30
0.0000000000000069
 10
-58.22363369781954
 20
-42.7045940776521
 30
-0.0000000000000069
 10
-58.74689148890996
 20
-42.54284360599655
 30
0.0000000000000729
 10
-59.26546904597167
 20
-42.39303545593101
 30
0.0000000000000625
  0
SPLINE
  5
BC
330
1F
100
AcDbEntity
  8
Hidden
370
    -3
100
AcDbSpline
210
0.0
220
0.0
230
1.0
 70
     8
 71
     3
 72
    26
 73
    22
 74
     0
 42
0.000000001
 43
0.00000001
 40
-0.0990000509579189
 40
-0.0990000509579189
 40
-0.0990000509579189
 40
-0.0990000509579189
 40
-0.0864914633066711
 40
-0.0864914633066711
 40
-0.07448478751705
 40
-0.07448478751705
 40
-0.0691346277161987
 40
-0.0691346277161987
 40
-0.066470253168448
 40
-0.066470253168448
 40
-0.0645107581696405
 40
-0.0645107581696405
 40
-0.0624542880152769
 40
-0.0624542880152769
 40
-0.0593066110213798
 40
-0.0593066110213798
 40
-0.0507011754220955
 40
-0.0507011754220955
 40
-0.0349520005525143
 40
-0.0349520005525143
 40
-0.0333771734385093
 40
-0.0333771734385093
 40
-0.0333771734385093
 40
-0.0333771734385093
 10
-59.26546904597167
 20
-42.39303545593101
 30
0.0000000000000625
 10
-62.36495401607591
 20
-41.49777936569751
 30
0.0000000000000035
 10
-65.29827509552976
 20
-41.02945196262287
 30
0.0000000000000069
 10
-70.63493852581963
 20
-40.97255165043377
 30
0.0000000000000069
 10
-73.1000929449213
 20
-41.34893555673287
 30
0.0000000000000069
 10
-76.34569003931658
 20
-42.55237900451515
 30
0.0000000000000763
 10
-77.29590930781002
 20
-43.01154454935178
 30
0.0000000000000139
 10
-78.63653732873567
 20
-43.83327975010343
 30
0.0000000000000763
 10
-79.06767276346743
 20
-44.12811557077261
 30
0.0000000000000139
 10
-79.78980781549907
 20
-44.6771859033953
 30
0.0000000000000104
 10
-80.08744886815586
 20
-44.92133061885611
 30
0.0000000000000173
 10
-80.6799696627398
 20
-45.4449840079015
 30
0.0000000000000729
 10
-80.97374964556114
 20
-45.72543796615334
 30
0.0000000000000659
 10
-81.69248287109842
 20
-46.46585665095653
 30
0.0
 10
-82.10366839945432
 20
-46.94143455445132
 30
0.0000000000000729
 10
-83.55013828813946
 20
-48.81749360877814
 30
0.0000000000000208
 10
-84.42249940122889
 20
-50.38029748365372
 30
0.0000000000000173
 10
-86.37336054470556
 20
-55.2618720478679
 30
0.0000000000000173
 10
-87.03960916732079
 20
-59.00508610839118
 30
0.0000000000000833
 10
-87.08875745436298
 20
-63.64541155150008
 30
0.0000000000000729
 10
-87.0870261022172
 20
-64.0713625853341
 30
0.0000000000000278
 10
-87.07903402823852
 20
-64.50122696823341
 30
0.0000000000000173
  0
SPLINE
  5
BD
330
1F
100
AcDbEntity
  8
Hidden
370
    -3
100
AcDbSpline
210
0.0
220
0.0
230
1.0
 70
     8
 71
     3
 72
     8
 73
     4
 74
     0
 42
0.000000001
 43
0.00000001
 40
0.0285387932757206
 40
0.0285387932757206
 40
0.0285387932757206
 40
0.0285387932757206
 40
0.0324753140048809
 40
0.0324753140048809
 40
0.0324753140048809
 40
0.0324753140048809
 10
-31.27417882933713
 20
-58.59399035941597
 30
0.000000000000059
 10
-32.26109952548056
 20
-57.79587084826628
 30
0.0
 10
-33.26097263921871
 20
-57.00566453372097
 30
0.0
 10
-34.27066174769357
 20
-56.22814390072818
 30
0.0000000000000625
  0
ELLIPSE
  5
BE
330
1F
100
AcDbEntity
  8
Hidden
370
    -3
100
AcDbEllipse
 10
-35.77945491468366
 20
-81.51759078916061
 30
0.0
 11
46.81882266271592
 21
0.0
 31
-5.197933490598929E-15
210
-1.110223024625157E-16
220
-5.551115123125782E-17
230
-1.0
 40
0.5
 41
2.094395102393195
 42
2.408731665374561
  0
ELLIPSE
  5
BF
330
1F
100
AcDbEntity
  8
Hidden
370
    -3
100
AcDbEllipse
 10
-236.963160767856
 20
-232.3214138713857
 30
0.0
 11
124.8075441506766
 21
432.3460152737352
 31
-2.498001805406602E-14
210
1.487294956741782E-16
220
1.484333087270395E-17
230
1.0
 40
0.4330127018922195
 41
5.306054741272219
 42
5.318170298285859
  0
ELLIPSE
  5
C0
330
1F
100
AcDbEntity
  8
Hidden
370
    -3
100
AcDbEllipse
 10
-35.77945491468351
 20
-51.16301054476574
 30
0.0
 11
-47.56147156300067
 21
8.087722591805586E-13
 31
4.469581932788001E-15
210
9.397484530871944E-17
220
5.551115123125623E-17
230
1.0
 40
0.4999999999999779
 41
4.188790204786399
 42
5.085782821101851
  0
SPLINE
  5
C1
330
1F
100
AcDbEntity
  8
Hidden
370
    -3
100
AcDbSpline
210
0.0
220
0.0
230
1.0
 70
     8
 71
     3
 72
     8
 73
     4
 74
     0
 42
0.000000001
 43
0.00000001
 40
0.0
 40
0.0
 40
0.0
 40
0.0
 40
0.0022798973877195
 40
0.0022798973877195
 40
0.0022798973877195
 40
0.0022798973877195
 10
-74.45633458969755
 20
-2.207858297009133
 30
0.0000000000000035
 10
-73.65609003987497
 20
-1.514826187622723
 30
0.0000000000000694
 10
-72.77447856882586
 20
-0.8406148474952717
 30
0.0000000000000139
 10
-71.8248515456144
 20
-0.1889814022089745
 30
0.0000000000000069
  0
SPLINE
  5
C2
330
1F
100
AcDbEntity
  8
Hidden
370
    -3
100
AcDbSpline
210
0.0
220
0.0
230
1.0
 70
     8
 71
     3
 72
    12
 73
     8
 74
     0
 42
0.000000001
 43
0.00000001
 40
0.0993052707546946
 40
0.0993052707546946
 40
0.0993052707546946
 40
0.0993052707546946
 40
0.1066778527623898
 40
0.1066778527623898
 40
0.1148838414364198
 40
0.1148838414364198
 40
0.1227747382238636
 40
0.1227747382238636
 40
0.1227747382238636
 40
0.1227747382238636
 10
-58.10956180646768
 20
-32.71135158040806
 30
0.0000000000000243
 10
-62.60351417545807
 20
-31.410255903118
 30
0.0000000000000312
 10
-66.69650169519838
 20
-29.69358341952298
 30
0.0000000000000208
 10
-73.71788888972272
 20
-25.50133423646535
 30
0.0000000000000139
 10
-76.59683205718251
 20
-22.88160545464415
 30
0.0000000000000139
 10
-80.01956121371093
 20
-17.49701138439816
 30
0.0000000000000173
 10
-80.70743817180099
 20
-14.64928141880533
 30
0.0000000000000729
 10
-80.34000402606829
 20
-11.8819256526002
 30
0.0000000000000104
  0
SPLINE
  5
C3
330
1F
100
AcDbEntity
  8
Hidden
370
    -3
100
AcDbSpline
210
0.0
220
0.0
230
1.0
 70
     8
 71
     3
 72
    10
 73
     6
 74
     0
 42
0.000000001
 43
0.00000001
 40
0.1227747382238636
 40
0.1227747382238636
 40
0.1227747382238636
 40
0.1227747382238636
 40
0.1230898301104497
 40
0.1230898301104497
 40
0.1273580795422844
 40
0.1273580795422844
 40
0.1273580795422844
 40
0.1273580795422844
 10
-80.34000402606829
 20
-11.8819256526002
 30
0.0000000000000104
 10
-80.32515297634116
 20
-11.77142814364305
 30
0.0000000000000139
 10
-80.30879110989217
 20
-11.66105308298168
 30
0.0000000000000104
 10
-80.0462496041486
 20
-10.05766378664266
 30
0.0000000000000729
 10
-79.49621433320489
 20
-8.568747797091513
 30
0.0000000000000173
 10
-78.65815709561461
 20
-7.128882705632142
 30
0.0000000000000139
  0
SPLINE
  5
C4
330
1F
100
AcDbEntity
  8
Hidden
370
    -3
100
AcDbSpline
210
0.0
220
0.0
230
1.0
 70
     8
 71
     3
 72
    10
 73
     6
 74
     0
 42
0.000000001
 43
0.00000001
 40
0.1273580795422844
 40
0.1273580795422844
 40
0.1273580795422844
 40
0.1273580795422844
 40
0.1277659142666366
 40
0.1277659142666366
 40
0.1324419984228233
 40
0.1324419984228233
 40
0.1324419984228233
 40
0.1324419984228233
 10
-78.65815709561461
 20
-7.128882705632142
 30
0.0000000000000139
 10
-78.57799169778525
 20
-6.991315274578052
 30
0.0000000000000763
 10
-78.49527657329308
 20
-6.854184048470938
 30
0.0000000000000035
 10
-77.43158049613972
 20
-5.150827449819348
 30
0.0000000000000139
 10
-76.09764129089226
 20
-3.629271595645362
 30
0.0000000000000833
 10
-74.45633458969755
 20
-2.207858297009133
 30
0.0000000000000035
  0
ELLIPSE
  5
C5
330
1F
100
AcDbEntity
  8
Hidden
370
    -3
100
AcDbEllipse
 10
-35.77945491468363
 20
-25.18224843123367
 30
0.0000000000000052
 11
46.02527333657635
 21
0.0
 31
-5.109831817293337E-15
210
-1.110223024625157E-16
220
-5.551115123125782E-17
230
-1.0
 40
0.5
 41
2.094395102393196
 42
2.917297046398968
  0
SPLINE
  5
C6
330
1F
100
AcDbEntity
  8
Hidden
370
    -3
100
AcDbSpline
210
0.0
220
0.0
230
1.0
 70
     8
 71
     3
 72
    17
 73
    13
 74
     0
 42
0.000000001
 43
0.00000001
 40
0.0527888579114726
 40
0.0527888579114726
 40
0.0527888579114726
 40
0.0527888579114726
 40
0.0573043881201923
 40
0.0573043881201923
 40
0.0573043881201923
 40
0.0657315040202205
 40
0.0657315040202205
 40
0.0657315040202205
 40
0.0720360083708664
 40
0.0720360083708664
 40
0.0720360083708664
 40
0.0814999062228896
 40
0.0814999062228896
 40
0.0814999062228896
 40
0.0814999062228896
 10
-82.80540485682194
 20
-54.72157799234406
 30
0.0000000000000069
 10
-82.76877971508412
 20
-53.38482215210896
 30
0.0000000000000035
 10
-82.72122398835623
 20
-52.05650956629336
 30
0.0000000000000208
 10
-82.66245892116305
 20
-50.73705143352991
 30
0.0000000000000139
 10
-82.55278851498274
 20
-48.27461045847895
 30
0.0000000000000243
 10
-82.40419605268016
 20
-45.8429597506245
 30
0.0000000000000069
 10
-82.21350931701876
 20
-43.44529481229463
 30
0.0000000000000312
 10
-82.07085252092752
 20
-41.65155075864504
 30
0.0000000000000729
 10
-81.90413590976947
 20
-39.87106369815761
 30
0.0000000000000104
 10
-81.71100449787846
 20
-38.10802790772865
 30
0.0000000000000104
 10
-81.42108861353711
 20
-35.46147717160856
 30
0.0000000000000173
 10
-81.07198619333869
 20
-32.85424182735798
 30
0.0000000000000139
 10
-80.65184208718593
 20
-30.30071145894534
 30
0.0000000000000173
  0
ELLIPSE
  5
C7
330
1F
100
AcDbEntity
  8
Hidden
370
    -3
100
AcDbEllipse
 10
-35.77945491468365
 20
-51.16301054476683
 30
0.0000000000000139
 11
-47.56147156300067
 21
0.0
 31
5.280384081429797E-15
210
1.110223024625157E-16
220
5.551115123125782E-17
230
1.0
 40
0.5
 41
0.150204934891547
 42
1.047197551196597
  0
ELLIPSE
  5
C8
330
1F
100
AcDbEntity
  8
Hidden
370
    -3
100
AcDbEllipse
 10
-35.77945491468367
 20
-81.48936903562094
 30
0.0000000000000069
 11
-50.54497818724074
 21
0.0
 31
5.611619856265098E-15
210
1.110223024625157E-16
220
5.551115123125782E-17
230
1.0
 40
0.5
 41
4.18879020478639
 42
4.682534089319908
  0
SPLINE
  5
C9
330
1F
100
AcDbEntity
  8
Hidden
370
    -3
100
AcDbSpline
210
0.0
220
0.0
230
1.0
 70
     8
 71
     3
 72
    10
 73
     6
 74
     0
 42
0.000000001
 43
0.00000001
 40
0.0
 40
0.0
 40
0.0
 40
0.0
 40
0.0062962570591558
 40
0.0062962570591558
 40
0.0125725015699155
 40
0.0125725015699155
 40
0.0125725015699155
 40
0.0125725015699155
 10
-80.65184207466724
 20
-30.30071145845977
 30
0.0000000000000798
 10
-80.18503827381375
 20
-31.32380183214988
 30
0.0000000000000208
 10
-79.40216230834868
 20
-32.30440847790905
 30
0.0000000000000139
 10
-77.26907436368703
 20
-34.10828321241433
 30
0.0000000000000798
 10
-75.9328866600086
 20
-34.92172811299189
 30
0.0000000000000104
 10
-74.37414502035938
 20
-35.61960861526521
 30
0.0000000000000139
  0
SPLINE
  5
CA
330
1F
100
AcDbEntity
  8
Hidden
370
    -3
100
AcDbSpline
210
0.0
220
0.0
230
1.0
 70
     8
 71
     3
 72
    20
 73
    16
 74
     0
 42
0.000000001
 43
0.00000001
 40
-0.0831964892290699
 40
-0.0831964892290699
 40
-0.0831964892290699
 40
-0.0831964892290699
 40
-0.0821232153318997
 40
-0.0821232153318997
 40
-0.0821232153318997
 40
-0.0720360083708664
 40
-0.0720360083708664
 40
-0.0720360083708664
 40
-0.0657315040202205
 40
-0.0657315040202205
 40
-0.0657315040202205
 40
-0.0573043881201923
 40
-0.0573043881201923
 40
-0.0573043881201923
 40
-0.0531444146257706
 40
-0.0531444146257706
 40
-0.0531444146257706
 40
-0.0531444146257706
 10
-74.3741450203591
 20
-35.61960861526385
 30
0.0000000000000347
 10
-74.42493772759913
 20
-35.90508672686337
 30
0.0000000000000208
 10
-74.4748689996402
 20
-36.19104174307555
 30
0.0000000000000763
 10
-74.52395209387203
 20
-36.47745884033757
 30
0.0000000000000035
 10
-74.98526148666502
 20
-39.16936120084215
 30
0.0000000000000208
 10
-75.37200283266093
 20
-41.90218474594333
 30
0.0000000000000763
 10
-75.69249755399558
 20
-44.66295756838588
 30
0.0000000000000208
 10
-75.89280675482962
 20
-46.38844058241371
 30
0.0000000000000035
 10
-76.06714596477102
 20
-48.124810099319
 30
0.0000000000000104
 10
-76.21697890196192
 20
-49.86868533864391
 30
0.0000000000000902
 10
-76.41725785445722
 20
-52.1996915430373
 30
0.0000000000000173
 10
-76.57467266580537
 20
-54.55414136610294
 30
0.0000000000000798
 10
-76.69114690397264
 20
-56.92987099244015
 30
0.0000000000000694
 10
-76.74864341277912
 20
-58.10262954859598
 30
0.0000000000000243
 10
-76.79614575134941
 20
-59.28057745218199
 30
0.0000000000000139
 10
-76.83379120177631
 20
-60.46346961717741
 30
0.0000000000000104
  0
SPLINE
  5
CB
330
1F
100
AcDbEntity
  8
Hidden
370
    -3
100
AcDbSpline
210
0.0
220
0.0
230
1.0
 70
     8
 71
     3
 72
    10
 73
     6
 74
     0
 42
0.000000001
 43
0.00000001
 40
0.0
 40
0.0
 40
0.0
 40
0.0
 40
0.0066047247949032
 40
0.0066047247949032
 40
0.0132102120355427
 40
0.0132102120355427
 40
0.0132102120355427
 40
0.0132102120355427
 10
-76.83379120177636
 20
-60.46346961717755
 30
0.0000000000000173
 10
-78.42650134946841
 20
-59.70350143280405
 30
0.0000000000000104
 10
-79.75764403999274
 20
-58.81732987022906
 30
0.0000000000000069
 10
-81.78930931304615
 20
-56.86398416314556
 30
0.0000000000000173
 10
-82.47592328050293
 20
-55.81009070903939
 30
0.0000000000000347
 10
-82.80540484614262
 20
-54.72157799170225
 30
0.0000000000000798
  0
ELLIPSE
  5
CC
330
1F
100
AcDbEntity
  8
Hidden
370
    -3
100
AcDbEllipse
 10
-3.953197785160884
 20
-22.27843006380958
 30
-0.0000000000000052
 11
105.5650031032008
 21
-7.911973980775222E-13
 31
-1.529577362564030E-14
210
-1.448943605930379E-16
220
-5.551115123125675E-17
230
-1.0
 40
0.4999999999999943
 41
1.832595714594045
 42
2.332818715563648
  0
ELLIPSE
  5
CD
330
1F
100
AcDbEntity
  8
Hidden
370
    -3
100
AcDbEllipse
 10
-3.953197785159908
 20
3.702332049724148
 30
-0.0000000000000033
 11
-105.5650031032008
 21
3.931635294424632E-12
 31
9.679096240841681E-15
210
9.168849482607008E-17
220
5.551115123125441E-17
230
1.0
 40
0.5000000000000167
 41
0.8405057870300003
 42
1.026546132611848
  0
ELLIPSE
  5
CE
330
1F
100
AcDbEntity
  8
Hidden
370
    -3
100
AcDbEllipse
 10
-3.953197785159908
 20
3.702332049724148
 30
-0.0000000000000033
 11
-105.5650031032008
 21
3.931635294424632E-12
 31
9.679096240841681E-15
210
9.168849482607008E-17
220
5.551115123125441E-17
230
1.0
 40
0.5000000000000167
 41
0.7928952903136236
 42
0.8405057870300003
  0
LINE
  5
CF
330
1F
100
AcDbEntity
  8
Hidden
370
    -3
100
AcDbLine
 10
-11.99871913318329
 20
-30.56828923730212
 30
0.0
 11
-12.11681824639594
 21
-30.67056606950867
 31
0.0000000000000004
  0
ELLIPSE
  5
D0
330
1F
100
AcDbEntity
  8
Hidden
370
    -3
100
AcDbEllipse
 10
-35.7794549146841
 20
-51.16301054476622
 30
0.0
 11
47.32527333657629
 21
-8.047557608065198E-13
 31
-4.447385240997576E-15
210
-9.397484530871944E-17
220
-5.551115123125623E-17
230
-1.0
 40
0.4999999999999779
 41
5.23598775598298
 42
5.817620967286659
  0
LINE
  5
D1
330
1F
100
AcDbEntity
  8
Hidden
370
    -3
100
AcDbLine
 10
-12.76681824639756
 20
-5.252720468412632
 30
0.0000000000000004
 11
-12.11681824639415
 21
-30.67056606952041
 31
0.0000000000000004
  0
ELLIPSE
  5
D2
330
1F
100
AcDbEntity
  8
Hidden
370
    -3
100
AcDbEllipse
 10
-235.1000830055935
 20
-230.679719446501
 30
0.0000000000000139
 11
-124.8075441506766
 21
-432.3460152737352
 31
2.498001805406602E-14
210
-1.487294956741782E-16
220
-1.484333087270395E-17
230
-1.0
 40
0.4330127018922195
 41
4.045869087590345
 42
4.124548653862742
  0
SPLINE
  5
D3
330
1F
100
AcDbEntity
  8
Hidden
370
    -3
100
AcDbSpline
210
0.0
220
0.0
230
1.0
 70
     8
 71
     3
 72
    10
 73
     6
 74
     0
 42
0.000000001
 43
0.00000001
 40
-0.1324419984228233
 40
-0.1324419984228233
 40
-0.1324419984228233
 40
-0.1324419984228233
 40
-0.1277659142666366
 40
-0.1277659142666366
 40
-0.1273580795422845
 40
-0.1273580795422845
 40
-0.1273580795422845
 40
-0.1273580795422845
 10
-68.57880662415134
 20
8.231137801481765
 30
0.0000000000000139
 10
-69.9706923245474
 20
7.025729425774489
 30
0.0000000000000069
 10
-71.10191959829825
 20
5.735396647484407
 30
0.0000000000000035
 10
-72.00397121258791
 20
4.290890455794209
 30
0.0000000000000694
 10
-72.07411654185712
 20
4.174598362087881
 30
0.0000000000000208
 10
-72.14209961340885
 20
4.057936351273421
 30
0.0000000000000833
  0
SPLINE
  5
D4
330
1F
100
AcDbEntity
  8
Hidden
370
    -3
100
AcDbSpline
210
0.0
220
0.0
230
1.0
 70
     8
 71
     3
 72
    14
 73
    10
 74
     0
 42
0.000000001
 43
0.00000001
 40
-0.1273580795422845
 40
-0.1273580795422845
 40
-0.1273580795422845
 40
-0.1273580795422845
 40
-0.1230898301104497
 40
-0.1230898301104497
 40
-0.1148838414364198
 40
-0.1148838414364198
 40
-0.1066778527623898
 40
-0.1066778527623898
 40
-0.0993052707546946
 40
-0.0993052707546946
 40
-0.0993052707546946
 40
-0.0993052707546946
 10
-72.14209961340885
 20
4.057936351273421
 30
0.0000000000000833
 10
-72.85280157073703
 20
2.836880207505287
 30
0.0000000000000278
 10
-73.31925078938878
 20
1.574227180232043
 30
0.0000000000000104
 10
-73.92521033550207
 20
-2.126479294733694
 30
0.0000000000000763
 10
-73.35343554650761
 20
-4.645216249813069
 30
0.0000000000000867
 10
-70.39402361836547
 20
-9.30092553644916
 30
0.0000000000000173
 10
-67.95257874756624
 20
-11.52254750855146
 30
0.0000000000000208
 10
-61.9981959220475
 20
-15.07772198395431
 30
0.0000000000000139
 10
-58.52719882170101
 20
-16.53352051352843
 30
0.0000000000000139
 10
-54.71616945338995
 20
-17.63689532260523
 30
0.0000000000000104
  0
ELLIPSE
  5
D5
330
1F
100
AcDbEntity
  8
Hidden
370
    -3
100
AcDbEllipse
 10
-35.77945491468367
 20
-1.160631393648203
 30
-0.0000000000000104
 11
-37.78470091792813
 21
0.0
 31
4.194944493765910E-15
210
1.110223024625157E-16
220
5.551115123125781E-17
230
1.0
 40
0.5
 41
6.106536913107302
 42
7.330382858376189
  0
LINE
  5
D6
330
1F
100
AcDbEntity
  8
Hidden
370
    -3
100
AcDbLine
 10
-66.57949403319755
 20
9.78287368648213
 30
0.0000000000000035
 11
-66.65182152798072
 21
9.731982984632038
 31
0.0000000000000049
  0
LINE
  5
D7
330
1F
100
AcDbEntity
  8
Hidden
370
    -3
100
AcDbLine
 10
-55.37237880536416
 20
-43.51687311264976
 30
0.0000000000000069
 11
-59.27371443214366
 21
-42.39065452548965
 31
0.0000000000000103
  0
SPLINE
  5
D8
330
1F
100
AcDbEntity
  8
Hidden
370
    -3
100
AcDbSpline
210
0.0
220
0.0
230
1.0
 70
     8
 71
     3
 72
    10
 73
     6
 74
     0
 42
0.000000001
 43
0.00000001
 40
0.0211254553577693
 40
0.0211254553577693
 40
0.0211254553577693
 40
0.0211254553577693
 40
0.0396508970464124
 40
0.0396508970464124
 40
0.0789979494255624
 40
0.0789979494255624
 40
0.0789979494255624
 40
0.0789979494255624
 10
-83.37071978252739
 20
-63.46479795234608
 30
0.0000000000000104
 10
-83.4556559598709
 20
-57.94276690308289
 30
0.0000000000000729
 10
-83.40967670619253
 20
-52.41773236135021
 30
0.0000000000000763
 10
-82.8565507970491
 20
-35.16615608891782
 30
0.0000000000000243
 10
-81.8900661823633
 20
-23.47747846752561
 30
0.0000000000000243
 10
-80.34024374798221
 20
-11.88371785456707
 30
0.0000000000000173
  0
LINE
  5
D9
330
1F
100
AcDbEntity
  8
Hidden
370
    -3
100
AcDbLine
 10
-78.65819386064574
 20
-7.128945823750066
 30
-0.0000000000000048
 11
-72.14213221607912
 21
4.057880379071957
 31
-0.0000000000000055
  0
LINE
  5
DA
330
1F
100
AcDbEntity
  8
Hidden
370
    -3
100
AcDbLine
 10
-73.56415583261177
 20
5.481786544332353
 30
0.0000000000000087
 11
-73.56415583261177
 21
-1.160628472005047
 31
0.0000000000000054
  0
ENDSEC
  0
SECTION
  2
OBJECTS
  0
DICTIONARY
  5
C
330
0
100
AcDbDictionary
281
     1
  3
ACAD_DETAILVIEWSTYLE
350
DF
  3
ACAD_GROUP
350
D
  3
ACAD_LAYOUT
350
1A
  3
ACAD_MATERIAL
350
43
  3
ACAD_MLEADERSTYLE
350
DE
  3
ACAD_MLINESTYLE
350
17
  3
ACAD_PLOTSETTINGS
350
19
  3
ACAD_PLOTSTYLENAME
350
E
  3
ACAD_SCALELIST
350
47
  3
ACAD_SECTIONVIEWSTYLE
350
E0
  3
ACAD_TABLESTYLE
350
DD
  3
ACAD_VISUALSTYLE
350
2A
  3
AcDbVariableDictionary
350
DB
  0
SUN
  5
69
330
29
100
AcDbSun
 90
        1
290
     0
 63
     7
421
 16777215
 40
1.0
291
     1
 91
  2455826
 92
 54000000
292
     0
 70
     2
 71
   256
280
     1
  0
DICTIONARY
  5
DF
102
{ACAD_REACTORS
330
C
102
}
330
C
100
AcDbDictionary
281
     1
  0
DICTIONARY
  5
D
102
{ACAD_REACTORS
330
C
102
}
330
C
100
AcDbDictionary
281
     1
  0
DICTIONARY
  5
1A
102
{ACAD_REACTORS
330
C
102
}
330
C
100
AcDbDictionary
281
     1
  3
Layout1
350
1E
  3
Layout2
350
26
  3
Model
350
22
  0
DICTIONARY
  5
43
102
{ACAD_REACTORS
330
C
102
}
330
C
100
AcDbDictionary
281
     1
  3
ByBlock
350
45
  3
ByLayer
350
44
  3
Global
350
46
  0
DICTIONARY
  5
DE
102
{ACAD_REACTORS
330
C
102
}
330
C
100
AcDbDictionary
281
     1
  0
DICTIONARY
  5
17
102
{ACAD_REACTORS
330
C
102
}
330
C
100
AcDbDictionary
281
     1
  3
Standard
350
18
  0
DICTIONARY
  5
19
102
{ACAD_REACTORS
330
C
102
}
330
C
100
AcDbDictionary
281
     1
  0
ACDBDICTIONARYWDFLT
  5
E
102
{ACAD_REACTORS
330
C
102
}
330
C
100
AcDbDictionary
281
     1
  3
Normal
350
F
100
AcDbDictionaryWithDefault
340
F
  0
DICTIONARY
  5
47
102
{ACAD_REACTORS
330
C
102
}
330
C
100
AcDbDictionary
281
     1
  3
A0
350
48
  3
A1
350
49
  3
A2
350
4A
  3
A3
350
4B
  3
A4
350
4C
  3
A5
350
4D
  3
A6
350
4E
  3
A7
350
4F
  3
A8
350
50
  3
A9
350
51
  3
B0
350
52
  3
B1
350
53
  3
B2
350
54
  3
B3
350
55
  3
B4
350
56
  3
B5
350
57
  3
B6
350
58
  3
B7
350
59
  3
B8
350
5A
  3
B9
350
5B
  3
C0
350
5C
  3
C1
350
5D
  3
C2
350
5E
  3
C3
350
5F
  3
C4
350
60
  3
C5
350
61
  3
C6
350
62
  3
C7
350
63
  3
C8
350
64
  3
C9
350
65
  3
D0
350
66
  3
D1
350
67
  3
D2
350
68
  0
DICTIONARY
  5
E0
102
{ACAD_REACTORS
330
C
102
}
330
C
100
AcDbDictionary
281
     1
  0
DICTIONARY
  5
DD
102
{ACAD_REACTORS
330
C
102
}
330
C
100
AcDbDictionary
281
     1
  0
DICTIONARY
  5
2A
102
{ACAD_REACTORS
330
C
102
}
330
C
100
AcDbDictionary
281
     1
  3
2dWireframe
350
2F
  3
Basic
350
32
  3
Brighten
350
36
  3
ColorChange
350
3A
  3
Conceptual
350
34
  3
Dim
350
35
  3
EdgeColorOff
350
3D
  3
Facepattern
350
39
  3
Flat
350
2B
  3
FlatWithEdges
350
2C
  3
Gouraud
350
2D
  3
GouraudWithEdges
350
2E
  3
Hidden
350
31
  3
JitterOff
350
3B
  3
Linepattern
350
38
  3
OverhangOff
350
3C
  3
Realistic
350
33
  3
Shaded
350
42
  3
Shaded with edges
350
41
  3
Shades of Gray
350
3E
  3
Sketchy
350
3F
  3
Thicken
350
37
  3
Wireframe
350
30
  3
X-Ray
350
40
  0
DICTIONARY
  5
DB
102
{ACAD_REACTORS
330
C
102
}
330
C
100
AcDbDictionary
281
     1
  3
CANNOSCALE
350
DC
  0
LAYOUT
  5
1E
102
{ACAD_REACTORS
330
1A
102
}
330
1A
100
AcDbPlotSettings
  1

  2
none_device
  4

  6

 40
0.0
 41
0.0
 42
0.0
 43
0.0
 44
0.0
 45
0.0
 46
0.0
 47
0.0
 48
0.0
 49
0.0
140
0.0
141
0.0
142
1.0
143
1.0
 70
   688
 72
     1
 73
     0
 74
     5
  7

 75
    16
 76
     0
 77
     2
 78
   300
147
1.0
148
0.0
149
0.0
100
AcDbLayout
  1
Layout1
 70
     1
 71
     1
 10
0.0
 20
0.0
 11
420.0
 21
297.0
 12
0.0
 22
0.0
 32
0.0
 14
1.000000000000000E+20
 24
1.000000000000000E+20
 34
1.000000000000000E+20
 15
-1.000000000000000E+20
 25
-1.000000000000000E+20
 35
-1.000000000000000E+20
146
0.0
 13
0.0
 23
0.0
 33
0.0
 16
1.0
 26
0.0
 36
0.0
 17
0.0
 27
1.0
 37
0.0
 76
     0
330
1B
  0
LAYOUT
  5
26
102
{ACAD_REACTORS
330
1A
102
}
330
1A
100
AcDbPlotSettings
  1

  2
none_device
  4

  6

 40
0.0
 41
0.0
 42
0.0
 43
0.0
 44
0.0
 45
0.0
 46
0.0
 47
0.0
 48
0.0
 49
0.0
140
0.0
141
0.0
142
1.0
143
1.0
 70
   688
 72
     1
 73
     0
 74
     5
  7

 75
    16
 76
     0
 77
     2
 78
   300
147
1.0
148
0.0
149
0.0
100
AcDbLayout
  1
Layout2
 70
     1
 71
     2
 10
0.0
 20
0.0
 11
0.0
 21
0.0
 12
0.0
 22
0.0
 32
0.0
 14
0.0
 24
0.0
 34
0.0
 15
0.0
 25
0.0
 35
0.0
146
0.0
 13
0.0
 23
0.0
 33
0.0
 16
1.0
 26
0.0
 36
0.0
 17
0.0
 27
1.0
 37
0.0
 76
     0
330
23
  0
LAYOUT
  5
22
102
{ACAD_REACTORS
330
1A
102
}
330
1A
100
AcDbPlotSettings
  1

  2
none_device
  4
Letter_(8.50_x_11.00_Inches)
  6

 40
6.35
 41
6.35
 42
6.35000508
 43
6.35000508
 44
215.9
 45
279.4
 46
0.0
 47
0.0
 48
0.0
 49
0.0
140
0.0
141
0.0
142
1.0
143
1.0
 70
  1712
 72
     1
 73
     0
 74
     0
  7

 75
     0
 76
     0
 77
     2
 78
   300
147
1.0
148
0.0
149
0.0
100
AcDbLayout
  1
Model
 70
     1
 71
     0
 10
0.0
 20
0.0
 11
420.0
 21
297.0
 12
0.0
 22
0.0
 32
0.0
 14
-96.68528189576156
 24
-117.5983812039957
 34
-298.5966449621153
 15
11.7914701647035
 25
27.61919217764924
 35
-248.7475891944681
146
0.0
 13
0.0
 23
0.0
 33
0.0
 16
1.0
 26
0.0
 36
0.0
 17
0.0
 27
1.0
 37
0.0
 76
     0
330
1F
331
29
  0
MATERIAL
  5
45
102
{ACAD_REACTORS
330
43
102
}
330
43
100
AcDbMaterial
  1
ByBlock
 72
     1
 94
      127
  0
MATERIAL
  5
44
102
{ACAD_REACTORS
330
43
102
}
330
43
100
AcDbMaterial
  1
ByLayer
 72
     1
 94
      127
  0
MATERIAL
  5
46
102
{ACAD_REACTORS
330
43
102
}
330
43
100
AcDbMaterial
  1
Global
 72
     1
 94
      127
  0
MLINESTYLE
  5
18
102
{ACAD_REACTORS
330
17
102
}
330
17
100
AcDbMlineStyle
  2
Standard
 70
     0
  3

 62
   256
 51
90.0
 52
90.0
 71
     2
 49
0.5
 62
   256
  6
BYLAYER
 49
-0.5
 62
   256
  6
BYLAYER
  0
ACDBPLACEHOLDER
  5
F
102
{ACAD_REACTORS
330
E
102
}
330
E
  0
SCALE
  5
48
102
{ACAD_REACTORS
330
47
102
}
330
47
100
AcDbScale
 70
     0
300
1:1
140
1.0
141
1.0
290
     1
  0
SCALE
  5
49
102
{ACAD_REACTORS
330
47
102
}
330
47
100
AcDbScale
 70
     0
300
1:2
140
1.0
141
2.0
290
     0
  0
SCALE
  5
4A
102
{ACAD_REACTORS
330
47
102
}
330
47
100
AcDbScale
 70
     0
300
1:4
140
1.0
141
4.0
290
     0
  0
SCALE
  5
4B
102
{ACAD_REACTORS
330
47
102
}
330
47
100
AcDbScale
 70
     0
300
1:5
140
1.0
141
5.0
290
     0
  0
SCALE
  5
4C
102
{ACAD_REACTORS
330
47
102
}
330
47
100
AcDbScale
 70
     0
300
1:8
140
1.0
141
8.0
290
     0
  0
SCALE
  5
4D
102
{ACAD_REACTORS
330
47
102
}
330
47
100
AcDbScale
 70
     0
300
1:10
140
1.0
141
10.0
290
     0
  0
SCALE
  5
4E
102
{ACAD_REACTORS
330
47
102
}
330
47
100
AcDbScale
 70
     0
300
1:16
140
1.0
141
16.0
290
     0
  0
SCALE
  5
4F
102
{ACAD_REACTORS
330
47
102
}
330
47
100
AcDbScale
 70
     0
300
1:20
140
1.0
141
20.0
290
     0
  0
SCALE
  5
50
102
{ACAD_REACTORS
330
47
102
}
330
47
100
AcDbScale
 70
     0
300
1:30
140
1.0
141
30.0
290
     0
  0
SCALE
  5
51
102
{ACAD_REACTORS
330
47
102
}
330
47
100
AcDbScale
 70
     0
300
1:40
140
1.0
141
40.0
290
     0
  0
SCALE
  5
52
102
{ACAD_REACTORS
330
47
102
}
330
47
100
AcDbScale
 70
     0
300
1:50
140
1.0
141
50.0
290
     0
  0
SCALE
  5
53
102
{ACAD_REACTORS
330
47
102
}
330
47
100
AcDbScale
 70
     0
300
1:100
140
1.0
141
100.0
290
     0
  0
SCALE
  5
54
102
{ACAD_REACTORS
330
47
102
}
330
47
100
AcDbScale
 70
     0
300
2:1
140
2.0
141
1.0
290
     0
  0
SCALE
  5
55
102
{ACAD_REACTORS
330
47
102
}
330
47
100
AcDbScale
 70
     0
300
4:1
140
4.0
141
1.0
290
     0
  0
SCALE
  5
56
102
{ACAD_REACTORS
330
47
102
}
330
47
100
AcDbScale
 70
     0
300
8:1
140
8.0
141
1.0
290
     0
  0
SCALE
  5
57
102
{ACAD_REACTORS
330
47
102
}
330
47
100
AcDbScale
 70
     0
300
10:1
140
10.0
141
1.0
290
     0
  0
SCALE
  5
58
102
{ACAD_REACTORS
330
47
102
}
330
47
100
AcDbScale
 70
     0
300
100:1
140
100.0
141
1.0
290
     0
  0
SCALE
  5
59
102
{ACAD_REACTORS
330
47
102
}
330
47
100
AcDbScale
 70
     0
300
1/128" = 1'-0"
140
0.0078125
141
12.0
290
     0
  0
SCALE
  5
5A
102
{ACAD_REACTORS
330
47
102
}
330
47
100
AcDbScale
 70
     0
300
1/64" = 1'-0"
140
0.015625
141
12.0
290
     0
  0
SCALE
  5
5B
102
{ACAD_REACTORS
330
47
102
}
330
47
100
AcDbScale
 70
     0
300
1/32" = 1'-0"
140
0.03125
141
12.0
290
     0
  0
SCALE
  5
5C
102
{ACAD_REACTORS
330
47
102
}
330
47
100
AcDbScale
 70
     0
300
1/16" = 1'-0"
140
0.0625
141
12.0
290
     0
  0
SCALE
  5
5D
102
{ACAD_REACTORS
330
47
102
}
330
47
100
AcDbScale
 70
     0
300
3/32" = 1'-0"
140
0.09375
141
12.0
290
     0
  0
SCALE
  5
5E
102
{ACAD_REACTORS
330
47
102
}
330
47
100
AcDbScale
 70
     0
300
1/8" = 1'-0"
140
0.125
141
12.0
290
     0
  0
SCALE
  5
5F
102
{ACAD_REACTORS
330
47
102
}
330
47
100
AcDbScale
 70
     0
300
3/16" = 1'-0"
140
0.1875
141
12.0
290
     0
  0
SCALE
  5
60
102
{ACAD_REACTORS
330
47
102
}
330
47
100
AcDbScale
 70
     0
300
1/4" = 1'-0"
140
0.25
141
12.0
290
     0
  0
SCALE
  5
61
102
{ACAD_REACTORS
330
47
102
}
330
47
100
AcDbScale
 70
     0
300
3/8" = 1'-0"
140
0.375
141
12.0
290
     0
  0
SCALE
  5
62
102
{ACAD_REACTORS
330
47
102
}
330
47
100
AcDbScale
 70
     0
300
1/2" = 1'-0"
140
0.5
141
12.0
290
     0
  0
SCALE
  5
63
102
{ACAD_REACTORS
330
47
102
}
330
47
100
AcDbScale
 70
     0
300
3/4" = 1'-0"
140
0.75
141
12.0
290
     0
  0
SCALE
  5
64
102
{ACAD_REACTORS
330
47
102
}
330
47
100
AcDbScale
 70
     0
300
1" = 1'-0"
140
1.0
141
12.0
290
     0
  0
SCALE
  5
65
102
{ACAD_REACTORS
330
47
102
}
330
47
100
AcDbScale
 70
     0
300
1-1/2" = 1'-0"
140
1.5
141
12.0
290
     0
  0
SCALE
  5
66
102
{ACAD_REACTORS
330
47
102
}
330
47
100
AcDbScale
 70
     0
300
3" = 1'-0"
140
3.0
141
12.0
290
     0
  0
SCALE
  5
67
102
{ACAD_REACTORS
330
47
102
}
330
47
100
AcDbScale
 70
     0
300
6" = 1'-0"
140
6.0
141
12.0
290
     0
  0
SCALE
  5
68
102
{ACAD_REACTORS
330
47
102
}
330
47
100
AcDbScale
 70
     0
300
1'-0" = 1'-0"
140
12.0
141
12.0
290
     0
  0
VISUALSTYLE
  5
2F
102
{ACAD_REACTORS
330
2A
102
}
330
2A
100
AcDbVisualStyle
  2
2dWireframe
 70
     4
177
     3
291
     0
 70
    58
 90
        0
176
     1
 90
        2
176
     1
 90
        0
176
     1
 90
        0
176
     1
 40
0.6
176
     1
 40
30.0
176
     1
 62
     7
420
 16777215
176
     1
 90
        1
176
     1
 90
        4
176
     1
 62
     7
176
     1
 62
   257
176
     1
 90
        1
176
     1
 90
        1
176
     1
 40
1.0
176
     1
 90
        0
176
     1
 62
   257
176
     1
 40
1.0
176
     1
 90
        1
176
     1
 90
        6
176
     1
 90
        2
176
     1
 62
     7
176
     1
 90
        5
176
     1
 90
        0
176
     1
 90
        0
176
     1
290
     0
176
     1
 90
        1
176
     1
 40
0.0
176
     1
 90
        0
176
     1
290
     1
176
     1
290
     1
176
     1
290
     0
176
     1
290
     0
176
     1
290
     0
176
     1
290
     0
176
     1
290
     0
176
     1
290
     0
176
     1
290
     0
176
     1
 90
       50
176
     1
 40
0.0
176
     1
 40
1.0
176
     1
 90
        0
176
     1
 62
    18
420
        0
176
     1
 90
       50
176
     1
 90
        3
176
     1
 62
     5
420
      255
176
     1
290
     0
176
     1
 90
       50
176
     1
 90
       50
176
     1
 90
       50
176
     1
290
     0
176
     1
 90
       50
176
     1
 62
   256
176
     0
 40
1.0
176
     0
 90
        2
176
     1
  1
strokes_ogs.tif
176
     1
290
     0
176
     1
 40
1.0
176
     1
 40
1.0
176
     1
  0
VISUALSTYLE
  5
32
102
{ACAD_REACTORS
330
2A
102
}
330
2A
100
AcDbVisualStyle
  2
Basic
 70
     7
177
     3
291
     1
 70
    58
 90
        1
176
     1
 90
        0
176
     1
 90
        1
176
     1
 90
        0
176
     1
 40
0.6
176
     1
 40
30.0
176
     1
 62
     7
420
 16777215
176
     1
 90
        0
176
     1
 90
        4
176
     1
 62
     7
176
     1
 62
   257
176
     1
 90
        1
176
     1
 90
        1
176
     1
 40
1.0
176
     1
 90
        8
176
     1
 62
     7
176
     1
 40
1.0
176
     1
 90
        1
176
     1
 90
        6
176
     1
 90
        2
176
     1
 62
     7
176
     1
 90
        5
176
     1
 90
        0
176
     1
 90
        0
176
     1
290
     0
176
     1
 90
        1
176
     1
 40
0.0
176
     1
 90
        0
176
     1
290
     0
176
     1
290
     1
176
     1
290
     1
176
     1
290
     0
176
     1
290
     0
176
     1
290
     0
176
     1
290
     0
176
     1
290
     0
176
     1
290
     0
176
     1
 90
       50
176
     1
 40
0.0
176
     1
 40
1.0
176
     1
 90
        0
176
     1
 62
    18
420
        0
176
     1
 90
       50
176
     1
 90
        3
176
     1
 62
     5
420
      255
176
     1
290
     0
176
     1
 90
       50
176
     1
 90
       50
176
     1
 90
       50
176
     1
290
     0
176
     1
 90
       50
176
     1
 62
   256
176
     0
 40
1.0
176
     0
 90
        2
176
     1
  1
strokes_ogs.tif
176
     1
290
     0
176
     1
 40
1.0
176
     1
 40
1.0
176
     1
  0
VISUALSTYLE
  5
36
102
{ACAD_REACTORS
330
2A
102
}
330
2A
100
AcDbVisualStyle
  2
Brighten
 70
    12
177
     3
291
     1
 70
    58
 90
        2
176
     1
 90
        2
176
     1
 90
        0
176
     1
 90
        0
176
     1
 40
0.6
176
     1
 40
30.0
176
     1
 62
     7
420
 16777215
176
     1
 90
        1
176
     1
 90
        4
176
     1
 62
     7
176
     1
 62
   257
176
     1
 90
        1
176
     1
 90
        1
176
     1
 40
1.0
176
     1
 90
        8
176
     1
 62
     7
176
     1
 40
1.0
176
     1
 90
        1
176
     1
 90
        6
176
     1
 90
        2
176
     1
 62
     7
176
     1
 90
        5
176
     1
 90
        0
176
     1
 90
        0
176
     1
290
     0
176
     1
 90
        1
176
     1
 40
50.0
176
     1
 90
        0
176
     1
290
     0
176
     1
290
     1
176
     1
290
     1
176
     1
290
     0
176
     1
290
     0
176
     1
290
     0
176
     1
290
     0
176
     1
290
     0
176
     1
290
     0
176
     1
 90
       50
176
     1
 40
0.0
176
     1
 40
1.0
176
     1
 90
        0
176
     1
 62
    18
420
        0
176
     1
 90
       50
176
     1
 90
        3
176
     1
 62
     5
420
      255
176
     1
290
     0
176
     1
 90
       50
176
     1
 90
       50
176
     1
 90
       50
176
     1
290
     0
176
     1
 90
       50
176
     1
 62
   256
176
     0
 40
1.0
176
     0
 90
        2
176
     1
  1
strokes_ogs.tif
176
     1
290
     0
176
     1
 40
1.0
176
     1
 40
1.0
176
     1
  0
VISUALSTYLE
  5
3A
102
{ACAD_REACTORS
330
2A
102
}
330
2A
100
AcDbVisualStyle
  2
ColorChange
 70
    16
177
     3
291
     1
 70
    58
 90
        2
176
     1
 90
        2
176
     1
 90
        3
176
     1
 90
        0
176
     1
 40
0.6
176
     1
 40
30.0
176
     1
 62
     8
420
  8421504
176
     1
 90
        1
176
     1
 90
        4
176
     1
 62
     7
176
     1
 62
   257
176
     1
 90
        1
176
     1
 90
        1
176
     1
 40
1.0
176
     1
 90
        8
176
     1
 62
     8
420
  8421504
176
     1
 40
1.0
176
     1
 90
        1
176
     1
 90
        6
176
     1
 90
        2
176
     1
 62
     7
176
     1
 90
        5
176
     1
 90
        0
176
     1
 90
        0
176
     1
290
     0
176
     1
 90
        1
176
     1
 40
0.0
176
     1
 90
        0
176
     1
290
     0
176
     1
290
     1
176
     1
290
     1
176
     1
290
     0
176
     1
290
     0
176
     1
290
     0
176
     1
290
     0
176
     1
290
     0
176
     1
290
     0
176
     1
 90
       50
176
     1
 40
0.0
176
     1
 40
1.0
176
     1
 90
        0
176
     1
 62
    18
420
        0
176
     1
 90
       50
176
     1
 90
        3
176
     1
 62
     5
420
      255
176
     1
290
     0
176
     1
 90
       50
176
     1
 90
       50
176
     1
 90
       50
176
     1
290
     0
176
     1
 90
       50
176
     1
 62
   256
176
     0
 40
1.0
176
     0
 90
        2
176
     1
  1
strokes_ogs.tif
176
     1
290
     0
176
     1
 40
1.0
176
     1
 40
1.0
176
     1
  0
VISUALSTYLE
  5
34
102
{ACAD_REACTORS
330
2A
102
}
330
2A
100
AcDbVisualStyle
  2
Conceptual
 70
     9
177
     3
291
     0
 70
    58
 90
        3
176
     1
 90
        2
176
     1
 90
        0
176
     1
 90
        0
176
     1
 40
0.6
176
     1
 40
30.0
176
     1
 62
     7
420
 16777215
176
     1
 90
        2
176
     1
 90
        2
176
     1
 62
     7
176
     1
 62
   257
176
     1
 90
        1
176
     1
 90
        1
176
     1
 40
179.0
176
     1
 90
        8
176
     1
 62
     7
176
     1
 40
1.0
176
     1
 90
        1
176
     1
 90
        6
176
     1
 90
        2
176
     1
 62
     7
176
     1
 90
        3
176
     1
 90
        0
176
     1
 90
        0
176
     1
290
     0
176
     1
 90
        1
176
     1
 40
0.0
176
     1
 90
        0
176
     1
290
     0
176
     1
290
     1
176
     1
290
     1
176
     1
290
     0
176
     1
290
     0
176
     1
290
     0
176
     1
290
     0
176
     1
290
     0
176
     1
290
     0
176
     1
 90
       50
176
     1
 40
0.0
176
     1
 40
1.0
176
     1
 90
        0
176
     1
 62
    18
420
        0
176
     1
 90
       50
176
     1
 90
        3
176
     1
 62
     5
420
      255
176
     1
290
     0
176
     1
 90
       50
176
     1
 90
       50
176
     1
 90
       50
176
     1
290
     0
176
     1
 90
       50
176
     1
 62
   256
176
     0
 40
1.0
176
     0
 90
        2
176
     1
  1
strokes_ogs.tif
176
     1
290
     0
176
     1
 40
1.0
176
     1
 40
1.0
176
     1
  0
VISUALSTYLE
  5
35
102
{ACAD_REACTORS
330
2A
102
}
330
2A
100
AcDbVisualStyle
  2
Dim
 70
    11
177
     3
291
     1
 70
    58
 90
        2
176
     1
 90
        2
176
     1
 90
        0
176
     1
 90
        0
176
     1
 40
0.6
176
     1
 40
30.0
176
     1
 62
     7
420
 16777215
176
     1
 90
        1
176
     1
 90
        4
176
     1
 62
     7
176
     1
 62
   257
176
     1
 90
        1
176
     1
 90
        1
176
     1
 40
1.0
176
     1
 90
        8
176
     1
 62
     7
176
     1
 40
1.0
176
     1
 90
        1
176
     1
 90
        6
176
     1
 90
        2
176
     1
 62
     7
176
     1
 90
        5
176
     1
 90
        0
176
     1
 90
        0
176
     1
290
     0
176
     1
 90
        1
176
     1
 40
-50.0
176
     1
 90
        0
176
     1
290
     0
176
     1
290
     1
176
     1
290
     1
176
     1
290
     0
176
     1
290
     0
176
     1
290
     0
176
     1
290
     0
176
     1
290
     0
176
     1
290
     0
176
     1
 90
       50
176
     1
 40
0.0
176
     1
 40
1.0
176
     1
 90
        0
176
     1
 62
    18
420
        0
176
     1
 90
       50
176
     1
 90
        3
176
     1
 62
     5
420
      255
176
     1
290
     0
176
     1
 90
       50
176
     1
 90
       50
176
     1
 90
       50
176
     1
290
     0
176
     1
 90
       50
176
     1
 62
   256
176
     0
 40
1.0
176
     0
 90
        2
176
     1
  1
strokes_ogs.tif
176
     1
290
     0
176
     1
 40
1.0
176
     1
 40
1.0
176
     1
  0
VISUALSTYLE
  5
3D
102
{ACAD_REACTORS
330
2A
102
}
330
2A
100
AcDbVisualStyle
  2
EdgeColorOff
 70
    22
177
     3
291
     1
 70
    58
 90
        2
176
     0
 90
        2
176
     0
 90
        0
176
     0
 90
        0
176
     0
 40
0.6
176
     0
 40
30.0
176
     0
 62
     7
420
 16777215
176
     0
 90
        1
176
     0
 90
        4
176
     0
 62
     7
176
     0
 62
   257
176
     0
 90
        1
176
     0
 90
        1
176
     0
 40
1.0
176
     0
 90
        8
176
     2
 62
     7
176
     0
 40
1.0
176
     0
 90
        1
176
     0
 90
        6
176
     0
 90
        2
176
     0
 62
     7
176
     0
 90
        5
176
     0
 90
        0
176
     0
 90
        0
176
     0
290
     0
176
     0
 90
        1
176
     0
 40
0.0
176
     0
 90
        0
176
     0
290
     0
176
     0
290
     1
176
     0
290
     1
176
     0
290
     0
176
     0
290
     0
176
     0
290
     0
176
     0
290
     0
176
     0
290
     0
176
     0
290
     0
176
     0
 90
       50
176
     0
 40
0.0
176
     0
 40
1.0
176
     0
 90
        0
176
     0
 62
    18
420
        0
176
     0
 90
       50
176
     0
 90
        3
176
     0
 62
     5
420
      255
176
     0
290
     0
176
     0
 90
       50
176
     0
 90
       50
176
     0
 90
       50
176
     0
290
     0
176
     0
 90
       50
176
     0
 62
   256
176
     0
 40
1.0
176
     0
 90
        2
176
     0
  1
strokes_ogs.tif
176
     0
290
     0
176
     0
 40
1.0
176
     0
 40
1.0
176
     0
  0
VISUALSTYLE
  5
39
102
{ACAD_REACTORS
330
2A
102
}
330
2A
100
AcDbVisualStyle
  2
Facepattern
 70
    15
177
     3
291
     1
 70
    58
 90
        2
176
     1
 90
        2
176
     1
 90
        0
176
     1
 90
        0
176
     1
 40
0.6
176
     1
 40
30.0
176
     1
 62
     7
420
 16777215
176
     1
 90
        1
176
     1
 90
        4
176
     1
 62
     7
176
     1
 62
   257
176
     1
 90
        1
176
     1
 90
        1
176
     1
 40
1.0
176
     1
 90
        8
176
     1
 62
     7
176
     1
 40
1.0
176
     1
 90
        1
176
     1
 90
        6
176
     1
 90
        2
176
     1
 62
     7
176
     1
 90
        5
176
     1
 90
        0
176
     1
 90
        0
176
     1
290
     0
176
     1
 90
        1
176
     1
 40
0.0
176
     1
 90
        0
176
     1
290
     0
176
     1
290
     1
176
     1
290
     1
176
     1
290
     0
176
     1
290
     0
176
     1
290
     0
176
     1
290
     0
176
     1
290
     0
176
     1
290
     0
176
     1
 90
       50
176
     1
 40
0.0
176
     1
 40
1.0
176
     1
 90
        0
176
     1
 62
    18
420
        0
176
     1
 90
       50
176
     1
 90
        3
176
     1
 62
     5
420
      255
176
     1
290
     0
176
     1
 90
       50
176
     1
 90
       50
176
     1
 90
       50
176
     1
290
     0
176
     1
 90
       50
176
     1
 62
   256
176
     0
 40
1.0
176
     0
 90
        2
176
     1
  1
strokes_ogs.tif
176
     1
290
     0
176
     1
 40
1.0
176
     1
 40
1.0
176
     1
  0
VISUALSTYLE
  5
2B
102
{ACAD_REACTORS
330
2A
102
}
330
2A
100
AcDbVisualStyle
  2
Flat
 70
     0
177
     3
291
     1
 70
    58
 90
        2
176
     1
 90
        1
176
     1
 90
        1
176
     1
 90
        2
176
     1
 40
0.6
176
     1
 40
30.0
176
     1
 62
     7
420
 16777215
176
     1
 90
        0
176
     1
 90
        0
176
     1
 62
     7
176
     1
 62
   257
176
     1
 90
        1
176
     1
 90
        1
176
     1
 40
1.0
176
     1
 90
        8
176
     1
 62
     7
176
     1
 40
1.0
176
     1
 90
        1
176
     1
 90
        6
176
     1
 90
        2
176
     1
 62
     7
176
     1
 90
        5
176
     1
 90
        0
176
     1
 90
        0
176
     1
290
     0
176
     1
 90
       13
176
     1
 40
0.0
176
     1
 90
        0
176
     1
290
     0
176
     1
290
     1
176
     1
290
     1
176
     1
290
     0
176
     1
290
     0
176
     1
290
     0
176
     1
290
     0
176
     1
290
     0
176
     1
290
     0
176
     1
 90
       50
176
     1
 40
0.0
176
     1
 40
1.0
176
     1
 90
        0
176
     1
 62
    18
420
        0
176
     1
 90
       50
176
     1
 90
        3
176
     1
 62
     5
420
      255
176
     1
290
     0
176
     1
 90
       50
176
     1
 90
       50
176
     1
 90
       50
176
     1
290
     0
176
     1
 90
       50
176
     1
 62
   256
176
     0
 40
1.0
176
     0
 90
        2
176
     1
  1
strokes_ogs.tif
176
     1
290
     0
176
     1
 40
1.0
176
     1
 40
1.0
176
     1
  0
VISUALSTYLE
  5
2C
102
{ACAD_REACTORS
330
2A
102
}
330
2A
100
AcDbVisualStyle
  2
FlatWithEdges
 70
     1
177
     3
291
     1
 70
    58
 90
        2
176
     1
 90
        1
176
     1
 90
        1
176
     1
 90
        2
176
     1
 40
0.6
176
     1
 40
30.0
176
     1
 62
     7
420
 16777215
176
     1
 90
        1
176
     1
 90
        0
176
     1
 62
     7
176
     1
 62
   257
176
     1
 90
        1
176
     1
 90
        1
176
     1
 40
1.0
176
     1
 90
        0
176
     1
 62
   257
176
     1
 40
1.0
176
     1
 90
        1
176
     1
 90
        6
176
     1
 90
        2
176
     1
 62
     7
176
     1
 90
        5
176
     1
 90
        0
176
     1
 90
        0
176
     1
290
     0
176
     1
 90
       13
176
     1
 40
0.0
176
     1
 90
        0
176
     1
290
     0
176
     1
290
     1
176
     1
290
     1
176
     1
290
     0
176
     1
290
     0
176
     1
290
     0
176
     1
290
     0
176
     1
290
     0
176
     1
290
     0
176
     1
 90
       50
176
     1
 40
0.0
176
     1
 40
1.0
176
     1
 90
        0
176
     1
 62
    18
420
        0
176
     1
 90
       50
176
     1
 90
        3
176
     1
 62
     5
420
      255
176
     1
290
     0
176
     1
 90
       50
176
     1
 90
       50
176
     1
 90
       50
176
     1
290
     0
176
     1
 90
       50
176
     1
 62
   256
176
     0
 40
1.0
176
     0
 90
        2
176
     1
  1
strokes_ogs.tif
176
     1
290
     0
176
     1
 40
1.0
176
     1
 40
1.0
176
     1
  0
VISUALSTYLE
  5
2D
102
{ACAD_REACTORS
330
2A
102
}
330
2A
100
AcDbVisualStyle
  2
Gouraud
 70
     2
177
     3
291
     1
 70
    58
 90
        2
176
     1
 90
        2
176
     1
 90
        1
176
     1
 90
        2
176
     1
 40
0.6
176
     1
 40
30.0
176
     1
 62
     7
420
 16777215
176
     1
 90
        0
176
     1
 90
        0
176
     1
 62
     7
176
     1
 62
   257
176
     1
 90
        1
176
     1
 90
        1
176
     1
 40
1.0
176
     1
 90
        0
176
     1
 62
     7
176
     1
 40
1.0
176
     1
 90
        1
176
     1
 90
        6
176
     1
 90
        2
176
     1
 62
     7
176
     1
 90
        5
176
     1
 90
        0
176
     1
 90
        0
176
     1
290
     0
176
     1
 90
       13
176
     1
 40
0.0
176
     1
 90
        0
176
     1
290
     0
176
     1
290
     1
176
     1
290
     1
176
     1
290
     0
176
     1
290
     0
176
     1
290
     0
176
     1
290
     0
176
     1
290
     0
176
     1
290
     0
176
     1
 90
       50
176
     1
 40
0.0
176
     1
 40
1.0
176
     1
 90
        0
176
     1
 62
    18
420
        0
176
     1
 90
       50
176
     1
 90
        3
176
     1
 62
     5
420
      255
176
     1
290
     0
176
     1
 90
       50
176
     1
 90
       50
176
     1
 90
       50
176
     1
290
     0
176
     1
 90
       50
176
     1
 62
   256
176
     0
 40
1.0
176
     0
 90
        2
176
     1
  1
strokes_ogs.tif
176
     1
290
     0
176
     1
 40
1.0
176
     1
 40
1.0
176
     1
  0
VISUALSTYLE
  5
2E
102
{ACAD_REACTORS
330
2A
102
}
330
2A
100
AcDbVisualStyle
  2
GouraudWithEdges
 70
     3
177
     3
291
     1
 70
    58
 90
        2
176
     1
 90
        2
176
     1
 90
        1
176
     1
 90
        2
176
     1
 40
0.6
176
     1
 40
30.0
176
     1
 62
     7
420
 16777215
176
     1
 90
        1
176
     1
 90
        0
176
     1
 62
     7
176
     1
 62
   257
176
     1
 90
        1
176
     1
 90
        1
176
     1
 40
1.0
176
     1
 90
        0
176
     1
 62
   257
176
     1
 40
1.0
176
     1
 90
        1
176
     1
 90
        6
176
     1
 90
        2
176
     1
 62
     7
176
     1
 90
        5
176
     1
 90
        0
176
     1
 90
        0
176
     1
290
     0
176
     1
 90
       13
176
     1
 40
0.0
176
     1
 90
        0
176
     1
290
     0
176
     1
290
     1
176
     1
290
     1
176
     1
290
     0
176
     1
290
     0
176
     1
290
     0
176
     1
290
     0
176
     1
290
     0
176
     1
290
     0
176
     1
 90
       50
176
     1
 40
0.0
176
     1
 40
1.0
176
     1
 90
        0
176
     1
 62
    18
420
        0
176
     1
 90
       50
176
     1
 90
        3
176
     1
 62
     5
420
      255
176
     1
290
     0
176
     1
 90
       50
176
     1
 90
       50
176
     1
 90
       50
176
     1
290
     0
176
     1
 90
       50
176
     1
 62
   256
176
     0
 40
1.0
176
     0
 90
        2
176
     1
  1
strokes_ogs.tif
176
     1
290
     0
176
     1
 40
1.0
176
     1
 40
1.0
176
     1
  0
VISUALSTYLE
  5
31
102
{ACAD_REACTORS
330
2A
102
}
330
2A
100
AcDbVisualStyle
  2
Hidden
 70
     6
177
     3
291
     0
 70
    58
 90
        1
176
     1
 90
        2
176
     1
 90
        2
176
     1
 90
        0
176
     1
 40
0.6
176
     1
 40
30.0
176
     1
 62
     7
420
 16777215
176
     1
 90
        2
176
     1
 90
        2
176
     1
 62
     7
176
     1
 62
   257
176
     1
 90
        2
176
     1
 90
        1
176
     1
 40
40.0
176
     1
 90
        0
176
     1
 62
   257
176
     1
 40
1.0
176
     1
 90
        1
176
     1
 90
        6
176
     1
 90
        2
176
     1
 62
     7
176
     1
 90
        3
176
     1
 90
        0
176
     1
 90
        0
176
     1
290
     0
176
     1
 90
        1
176
     1
 40
0.0
176
     1
 90
        0
176
     1
290
     0
176
     1
290
     1
176
     1
290
     1
176
     1
290
     0
176
     1
290
     0
176
     1
290
     0
176
     1
290
     0
176
     1
290
     0
176
     1
290
     0
176
     1
 90
       50
176
     1
 40
0.0
176
     1
 40
1.0
176
     1
 90
        0
176
     1
 62
    18
420
        0
176
     1
 90
       50
176
     1
 90
        3
176
     1
 62
     5
420
      255
176
     1
290
     0
176
     1
 90
       50
176
     1
 90
       50
176
     1
 90
       50
176
     1
290
     0
176
     1
 90
       50
176
     1
 62
   256
176
     0
 40
1.0
176
     0
 90
        2
176
     1
  1
strokes_ogs.tif
176
     1
290
     0
176
     1
 40
1.0
176
     1
 40
1.0
176
     1
  0
VISUALSTYLE
  5
3B
102
{ACAD_REACTORS
330
2A
102
}
330
2A
100
AcDbVisualStyle
  2
JitterOff
 70
    20
177
     3
291
     1
 70
    58
 90
        2
176
     0
 90
        2
176
     0
 90
        0
176
     0
 90
        0
176
     0
 40
0.6
176
     0
 40
30.0
176
     0
 62
     7
420
 16777215
176
     0
 90
        1
176
     0
 90
        4
176
     0
 62
     7
176
     0
 62
   257
176
     0
 90
        1
176
     0
 90
        1
176
     0
 40
1.0
176
     0
 90
       10
176
     2
 62
     7
176
     0
 40
1.0
176
     0
 90
        1
176
     0
 90
        6
176
     0
 90
        2
176
     0
 62
     7
176
     0
 90
        5
176
     0
 90
        0
176
     0
 90
        0
176
     0
290
     0
176
     0
 90
        1
176
     0
 40
0.0
176
     0
 90
        0
176
     0
290
     0
176
     0
290
     1
176
     0
290
     1
176
     0
290
     0
176
     0
290
     0
176
     0
290
     0
176
     0
290
     0
176
     0
290
     0
176
     0
290
     0
176
     0
 90
       50
176
     0
 40
0.0
176
     0
 40
1.0
176
     0
 90
        0
176
     0
 62
    18
420
        0
176
     0
 90
       50
176
     0
 90
        3
176
     0
 62
     5
420
      255
176
     0
290
     0
176
     0
 90
       50
176
     0
 90
       50
176
     0
 90
       50
176
     0
290
     0
176
     0
 90
       50
176
     0
 62
   256
176
     0
 40
1.0
176
     0
 90
        2
176
     0
  1
strokes_ogs.tif
176
     0
290
     0
176
     0
 40
1.0
176
     0
 40
1.0
176
     0
  0
VISUALSTYLE
  5
38
102
{ACAD_REACTORS
330
2A
102
}
330
2A
100
AcDbVisualStyle
  2
Linepattern
 70
    14
177
     3
291
     1
 70
    58
 90
        2
176
     1
 90
        2
176
     1
 90
        0
176
     1
 90
        0
176
     1
 40
0.6
176
     1
 40
30.0
176
     1
 62
     7
420
 16777215
176
     1
 90
        1
176
     1
 90
        4
176
     1
 62
     7
176
     1
 62
   257
176
     1
 90
        7
176
     1
 90
        7
176
     1
 40
1.0
176
     1
 90
        8
176
     1
 62
     7
176
     1
 40
1.0
176
     1
 90
        1
176
     1
 90
        6
176
     1
 90
        2
176
     1
 62
     7
176
     1
 90
        5
176
     1
 90
        0
176
     1
 90
        0
176
     1
290
     0
176
     1
 90
        1
176
     1
 40
0.0
176
     1
 90
        0
176
     1
290
     0
176
     1
290
     1
176
     1
290
     1
176
     1
290
     0
176
     1
290
     0
176
     1
290
     0
176
     1
290
     0
176
     1
290
     0
176
     1
290
     0
176
     1
 90
       50
176
     1
 40
0.0
176
     1
 40
1.0
176
     1
 90
        0
176
     1
 62
    18
420
        0
176
     1
 90
       50
176
     1
 90
        3
176
     1
 62
     5
420
      255
176
     1
290
     0
176
     1
 90
       50
176
     1
 90
       50
176
     1
 90
       50
176
     1
290
     0
176
     1
 90
       50
176
     1
 62
   256
176
     0
 40
1.0
176
     0
 90
        2
176
     1
  1
strokes_ogs.tif
176
     1
290
     0
176
     1
 40
1.0
176
     1
 40
1.0
176
     1
  0
VISUALSTYLE
  5
3C
102
{ACAD_REACTORS
330
2A
102
}
330
2A
100
AcDbVisualStyle
  2
OverhangOff
 70
    21
177
     3
291
     1
 70
    58
 90
        2
176
     0
 90
        2
176
     0
 90
        0
176
     0
 90
        0
176
     0
 40
0.6
176
     0
 40
30.0
176
     0
 62
     7
420
 16777215
176
     0
 90
        1
176
     0
 90
        4
176
     0
 62
     7
176
     0
 62
   257
176
     0
 90
        1
176
     0
 90
        1
176
     0
 40
1.0
176
     0
 90
        9
176
     2
 62
     7
176
     0
 40
1.0
176
     0
 90
        1
176
     0
 90
        6
176
     0
 90
        2
176
     0
 62
     7
176
     0
 90
        5
176
     0
 90
        0
176
     0
 90
        0
176
     0
290
     0
176
     0
 90
        1
176
     0
 40
0.0
176
     0
 90
        0
176
     0
290
     0
176
     0
290
     1
176
     0
290
     1
176
     0
290
     0
176
     0
290
     0
176
     0
290
     0
176
     0
290
     0
176
     0
290
     0
176
     0
290
     0
176
     0
 90
       50
176
     0
 40
0.0
176
     0
 40
1.0
176
     0
 90
        0
176
     0
 62
    18
420
        0
176
     0
 90
       50
176
     0
 90
        3
176
     0
 62
     5
420
      255
176
     0
290
     0
176
     0
 90
       50
176
     0
 90
       50
176
     0
 90
       50
176
     0
290
     0
176
     0
 90
       50
176
     0
 62
   256
176
     0
 40
1.0
176
     0
 90
        2
176
     0
  1
strokes_ogs.tif
176
     0
290
     0
176
     0
 40
1.0
176
     0
 40
1.0
176
     0
  0
VISUALSTYLE
  5
33
102
{ACAD_REACTORS
330
2A
102
}
330
2A
100
AcDbVisualStyle
  2
Realistic
 70
     8
177
     3
291
     0
 70
    58
 90
        2
176
     1
 90
        3
176
     1
 90
        0
176
     1
 90
        2
176
     1
 40
0.6
176
     1
 40
30.0
176
     1
 62
     7
420
 16777215
176
     1
 90
        0
176
     1
 90
        0
176
     1
 62
     7
176
     1
 62
   257
176
     1
 90
        1
176
     1
 90
        1
176
     1
 40
1.0
176
     1
 90
        8
176
     1
 62
   257
176
     1
 40
1.0
176
     1
 90
        1
176
     1
 90
        6
176
     1
 90
        2
176
     1
 62
     7
176
     1
 90
        3
176
     1
 90
        0
176
     1
 90
        0
176
     1
290
     0
176
     1
 90
       13
176
     1
 40
0.0
176
     1
 90
        0
176
     1
290
     0
176
     1
290
     1
176
     1
290
     1
176
     1
290
     0
176
     1
290
     0
176
     1
290
     0
176
     1
290
     0
176
     1
290
     0
176
     1
290
     0
176
     1
 90
       50
176
     1
 40
0.0
176
     1
 40
1.0
176
     1
 90
        0
176
     1
 62
    18
420
        0
176
     1
 90
       50
176
     1
 90
        3
176
     1
 62
     5
420
      255
176
     1
290
     0
176
     1
 90
       50
176
     1
 90
       50
176
     1
 90
       50
176
     1
290
     0
176
     1
 90
       50
176
     1
 62
   256
176
     0
 40
1.0
176
     0
 90
        2
176
     1
  1
strokes_ogs.tif
176
     1
290
     0
176
     1
 40
1.0
176
     1
 40
1.0
176
     1
  0
VISUALSTYLE
  5
42
102
{ACAD_REACTORS
330
2A
102
}
330
2A
100
AcDbVisualStyle
  2
Shaded
 70
    27
177
     3
291
     0
 70
    58
 90
        2
176
     1
 90
        2
176
     1
 90
        1
176
     1
 90
        2
176
     1
 40
0.6
176
     1
 40
30.0
176
     1
 62
     7
420
 16777215
176
     1
 90
        0
176
     1
 90
        4
176
     1
 62
     7
176
     1
 62
   257
176
     1
 90
        1
176
     1
 90
        1
176
     1
 40
1.0
176
     1
 90
        8
176
     1
 62
   257
176
     1
 40
1.0
176
     1
 90
        1
176
     1
 90
        6
176
     1
 90
        2
176
     1
 62
     8
420
  7895160
176
     1
 90
        3
176
     1
 90
        0
176
     1
 90
        0
176
     1
290
     0
176
     1
 90
        5
176
     1
 40
0.0
176
     1
 90
        0
176
     1
290
     0
176
     1
290
     1
176
     1
290
     1
176
     1
290
     0
176
     1
290
     0
176
     1
290
     0
176
     1
290
     0
176
     1
290
     0
176
     1
290
     0
176
     1
 90
       50
176
     1
 40
0.0
176
     1
 40
1.0
176
     1
 90
        0
176
     1
 62
    18
420
        0
176
     1
 90
       50
176
     1
 90
        3
176
     1
 62
     5
420
      255
176
     1
290
     0
176
     1
 90
       50
176
     1
 90
       50
176
     1
 90
       50
176
     1
290
     0
176
     1
 90
       50
176
     1
 62
   256
176
     0
 40
1.0
176
     0
 90
        2
176
     1
  1
strokes_ogs.tif
176
     1
290
     0
176
     1
 40
1.0
176
     1
 40
1.0
176
     1
  0
VISUALSTYLE
  5
41
102
{ACAD_REACTORS
330
2A
102
}
330
2A
100
AcDbVisualStyle
  2
Shaded with edges
 70
    26
177
     3
291
     0
 70
    58
 90
        2
176
     1
 90
        2
176
     1
 90
        1
176
     1
 90
        2
176
     1
 40
0.6
176
     1
 40
30.0
176
     1
 62
     7
420
 16777215
176
     1
 90
        1
176
     1
 90
       10
176
     1
 62
     7
176
     1
 62
   257
176
     1
 90
        2
176
     1
 90
        1
176
     1
 40
1.0
176
     1
 90
        8
176
     1
 62
   257
176
     1
 40
1.0
176
     1
 90
        1
176
     1
 90
        6
176
     1
 90
        2
176
     1
 62
     7
176
     1
 90
        3
176
     1
 90
        0
176
     1
 90
        0
176
     1
290
     0
176
     1
 90
        5
176
     1
 40
0.0
176
     1
 90
        0
176
     1
290
     0
176
     1
290
     1
176
     1
290
     1
176
     1
290
     0
176
     1
290
     0
176
     1
290
     0
176
     1
290
     0
176
     1
290
     0
176
     1
290
     0
176
     1
 90
       50
176
     1
 40
0.0
176
     1
 40
1.0
176
     1
 90
        0
176
     1
 62
    18
420
        0
176
     1
 90
       50
176
     1
 90
        3
176
     1
 62
     5
420
      255
176
     1
290
     0
176
     1
 90
       50
176
     1
 90
       50
176
     1
 90
       50
176
     1
290
     0
176
     1
 90
       50
176
     1
 62
   256
176
     0
 40
1.0
176
     0
 90
        2
176
     1
  1
strokes_ogs.tif
176
     1
290
     0
176
     1
 40
1.0
176
     1
 40
1.0
176
     1
  0
VISUALSTYLE
  5
3E
102
{ACAD_REACTORS
330
2A
102
}
330
2A
100
AcDbVisualStyle
  2
Shades of Gray
 70
    23
177
     3
291
     0
 70
    58
 90
        2
176
     1
 90
        2
176
     1
 90
        3
176
     1
 90
        0
176
     1
 40
0.6
176
     1
 40
30.0
176
     1
 62
     7
420
 16777215
176
     1
 90
        2
176
     1
 90
        2
176
     1
 62
     7
176
     1
 62
     7
176
     1
 90
        1
176
     1
 90
        1
176
     1
 40
40.0
176
     1
 90
        8
176
     1
 62
     7
176
     1
 40
1.0
176
     1
 90
        1
176
     1
 90
        6
176
     1
 90
        2
176
     1
 62
     7
176
     1
 90
        3
176
     1
 90
        0
176
     1
 90
        0
176
     1
290
     0
176
     1
 90
        1
176
     1
 40
0.0
176
     1
 90
        0
176
     1
290
     0
176
     1
290
     1
176
     1
290
     1
176
     1
290
     0
176
     1
290
     0
176
     1
290
     0
176
     1
290
     0
176
     1
290
     0
176
     1
290
     0
176
     1
 90
       50
176
     1
 40
0.0
176
     1
 40
1.0
176
     1
 90
        0
176
     1
 62
    18
420
        0
176
     1
 90
       50
176
     1
 90
        3
176
     1
 62
     5
420
      255
176
     1
290
     0
176
     1
 90
       50
176
     1
 90
       50
176
     1
 90
       50
176
     1
290
     0
176
     1
 90
       50
176
     1
 62
   256
176
     0
 40
1.0
176
     0
 90
        2
176
     1
  1
strokes_ogs.tif
176
     1
290
     0
176
     1
 40
1.0
176
     1
 40
1.0
176
     1
  0
VISUALSTYLE
  5
3F
102
{ACAD_REACTORS
330
2A
102
}
330
2A
100
AcDbVisualStyle
  2
Sketchy
 70
    24
177
     3
291
     0
 70
    58
 90
        1
176
     1
 90
        2
176
     1
 90
        2
176
     1
 90
        0
176
     1
 40
0.6
176
     1
 40
30.0
176
     1
 62
     7
420
 16777215
176
     1
 90
        2
176
     1
 90
        2
176
     1
 62
     7
176
     1
 62
     7
176
     1
 90
        1
176
     1
 90
        1
176
     1
 40
40.0
176
     1
 90
       11
176
     1
 62
     7
176
     1
 40
1.0
176
     1
 90
        1
176
     1
 90
        6
176
     1
 90
        2
176
     1
 62
     7
176
     1
 90
        6
176
     1
 90
        0
176
     1
 90
        0
176
     1
290
     0
176
     1
 90
        1
176
     1
 40
0.0
176
     1
 90
        0
176
     1
290
     0
176
     1
290
     1
176
     1
290
     1
176
     1
290
     0
176
     1
290
     0
176
     1
290
     0
176
     1
290
     0
176
     1
290
     0
176
     1
290
     0
176
     1
 90
       50
176
     1
 40
0.0
176
     1
 40
1.0
176
     1
 90
        0
176
     1
 62
    18
420
        0
176
     1
 90
       50
176
     1
 90
        3
176
     1
 62
     5
420
      255
176
     1
290
     0
176
     1
 90
       50
176
     1
 90
       50
176
     1
 90
       50
176
     1
290
     0
176
     1
 90
       50
176
     1
 62
   256
176
     0
 40
1.0
176
     0
 90
        2
176
     1
  1
strokes_ogs.tif
176
     1
290
     0
176
     1
 40
1.0
176
     1
 40
1.0
176
     1
  0
VISUALSTYLE
  5
37
102
{ACAD_REACTORS
330
2A
102
}
330
2A
100
AcDbVisualStyle
  2
Thicken
 70
    13
177
     3
291
     1
 70
    58
 90
        2
176
     1
 90
        2
176
     1
 90
        0
176
     1
 90
        0
176
     1
 40
0.6
176
     1
 40
30.0
176
     1
 62
     7
420
 16777215
176
     1
 90
        1
176
     1
 90
        4
176
     1
 62
     7
176
     1
 62
   257
176
     1
 90
        1
176
     1
 90
        1
176
     1
 40
1.0
176
     1
 90
       12
176
     1
 62
     7
176
     1
 40
1.0
176
     1
 90
        1
176
     1
 90
        6
176
     1
 90
        2
176
     1
 62
     7
176
     1
 90
        5
176
     1
 90
        0
176
     1
 90
        0
176
     1
290
     0
176
     1
 90
        1
176
     1
 40
0.0
176
     1
 90
        0
176
     1
290
     0
176
     1
290
     1
176
     1
290
     1
176
     1
290
     0
176
     1
290
     0
176
     1
290
     0
176
     1
290
     0
176
     1
290
     0
176
     1
290
     0
176
     1
 90
       50
176
     1
 40
0.0
176
     1
 40
1.0
176
     1
 90
        0
176
     1
 62
    18
420
        0
176
     1
 90
       50
176
     1
 90
        3
176
     1
 62
     5
420
      255
176
     1
290
     0
176
     1
 90
       50
176
     1
 90
       50
176
     1
 90
       50
176
     1
290
     0
176
     1
 90
       50
176
     1
 62
   256
176
     0
 40
1.0
176
     0
 90
        2
176
     1
  1
strokes_ogs.tif
176
     1
290
     0
176
     1
 40
1.0
176
     1
 40
1.0
176
     1
  0
VISUALSTYLE
  5
30
102
{ACAD_REACTORS
330
2A
102
}
330
2A
100
AcDbVisualStyle
  2
Wireframe
 70
     5
177
     3
291
     0
 70
    58
 90
        0
176
     1
 90
        2
176
     1
 90
        0
176
     1
 90
        0
176
     1
 40
0.6
176
     1
 40
30.0
176
     1
 62
     7
420
 16777215
176
     1
 90
        1
176
     1
 90
        4
176
     1
 62
     7
176
     1
 62
   257
176
     1
 90
        1
176
     1
 90
        1
176
     1
 40
1.0
176
     1
 90
        0
176
     1
 62
   257
176
     1
 40
1.0
176
     1
 90
        1
176
     1
 90
        6
176
     1
 90
        2
176
     1
 62
     7
176
     1
 90
        3
176
     1
 90
        0
176
     1
 90
        0
176
     1
290
     0
176
     1
 90
        1
176
     1
 40
0.0
176
     1
 90
        0
176
     1
290
     0
176
     1
290
     1
176
     1
290
     1
176
     1
290
     0
176
     1
290
     0
176
     1
290
     0
176
     1
290
     0
176
     1
290
     0
176
     1
290
     0
176
     1
 90
       50
176
     1
 40
0.0
176
     1
 40
1.0
176
     1
 90
        0
176
     1
 62
    18
420
        0
176
     1
 90
       50
176
     1
 90
        3
176
     1
 62
     5
420
      255
176
     1
290
     0
176
     1
 90
       50
176
     1
 90
       50
176
     1
 90
       50
176
     1
290
     0
176
     1
 90
       50
176
     1
 62
   256
176
     0
 40
1.0
176
     0
 90
        2
176
     1
  1
strokes_ogs.tif
176
     1
290
     0
176
     1
 40
1.0
176
     1
 40
1.0
176
     1
  0
VISUALSTYLE
  5
40
102
{ACAD_REACTORS
330
2A
102
}
330
2A
100
AcDbVisualStyle
  2
X-Ray
 70
    25
177
     3
291
     0
 70
    58
 90
        2
176
     1
 90
        2
176
     1
 90
        1
176
     1
 90
        1
176
     1
 40
0.5
176
     1
 40
30.0
176
     1
 62
     7
420
 16777215
176
     1
 90
        1
176
     1
 90
        0
176
     1
 62
     7
176
     1
 62
   257
176
     1
 90
        1
176
     1
 90
        1
176
     1
 40
1.0
176
     1
 90
        8
176
     1
 62
     7
176
     1
 40
1.0
176
     1
 90
        1
176
     1
 90
        6
176
     1
 90
        2
176
     1
 62
     7
176
     1
 90
        3
176
     1
 90
        0
176
     1
 90
        0
176
     1
290
     0
176
     1
 90
       13
176
     1
 40
0.0
176
     1
 90
        0
176
     1
290
     0
176
     1
290
     1
176
     1
290
     1
176
     1
290
     0
176
     1
290
     0
176
     1
290
     0
176
     1
290
     0
176
     1
290
     0
176
     1
290
     0
176
     1
 90
       50
176
     1
 40
0.0
176
     1
 40
1.0
176
     1
 90
        0
176
     1
 62
    18
420
        0
176
     1
 90
       50
176
     1
 90
        3
176
     1
 62
     5
420
      255
176
     1
290
     0
176
     1
 90
       50
176
     1
 90
       50
176
     1
 90
       50
176
     1
290
     0
176
     1
 90
       50
176
     1
 62
   256
176
     0
 40
1.0
176
     0
 90
        2
176
     1
  1
strokes_ogs.tif
176
     1
290
     0
176
     1
 40
1.0
176
     1
 40
1.0
176
     1
  0
DICTIONARYVAR
  5
DC
102
{ACAD_REACTORS
330
DB
102
}
330
DB
100
DictionaryVariables
280
     0
  1
1:1
  0
ENDSEC
  0
EOF
