  0
SECTION
  2
HEADER
  9
$ACADVER
  1
AC1027
  9
$ACADMAINTVER
 70
     8
  9
$DWGCODEPAGE
  3
ANSI_1252
  9
$REQUIREDVERSIONS
160
                 0
  9
$COMMENTS
  1
File was created by SpaceClaim
  9
$INSBASE
 10
0.0
 20
0.0
 30
0.0
  9
$EXTMIN
 10
163.4500130171109
 20
-80.27712948789424
 30
-92.19181956333426
  9
$EXTMAX
 10
254.2968404611553
 20
51.20612461838145
 30
-58.16449131498144
  9
$LIMMIN
 10
0.0
 20
0.0
  9
$LIMMAX
 10
420.0
 20
297.0
  9
$ORTHOMODE
 70
     0
  9
$REGENMODE
 70
     1
  9
$FILLMODE
 70
     1
  9
$QTEXTMODE
 70
     0
  9
$MIRRTEXT
 70
     1
  9
$LTSCALE
 40
1.0
  9
$ATTMODE
 70
     1
  9
$TEXTSIZE
 40
2.5
  9
$TRACEWID
 40
1.0
  9
$TEXTSTYLE
  7
Standard
  9
$CLAYER
  8
0
  9
$CELTYPE
  6
ByLayer
  9
$CECOLOR
 62
   256
  9
$CELTSCALE
 40
1.0
  9
$DISPSILH
 70
     0
  9
$DIMSCALE
 40
1.0
  9
$DIMASZ
 40
2.5
  9
$DIMEXO
 40
0.625
  9
$DIMDLI
 40
3.75
  9
$DIMRND
 40
0.0
  9
$DIMDLE
 40
0.0
  9
$DIMEXE
 40
1.25
  9
$DIMTP
 40
0.0
  9
$DIMTM
 40
0.0
  9
$DIMTXT
 40
2.5
  9
$DIMCEN
 40
2.5
  9
$DIMTSZ
 40
0.0
  9
$DIMTOL
 70
     0
  9
$DIMLIM
 70
     0
  9
$DIMTIH
 70
     1
  9
$DIMTOH
 70
     0
  9
$DIMSE1
 70
     0
  9
$DIMSE2
 70
     0
  9
$DIMTAD
 70
     1
  9
$DIMZIN
 70
     8
  9
$DIMBLK
  1

  9
$DIMASO
 70
     1
  9
$DIMSHO
 70
     1
  9
$DIMPOST
  1
mm
  9
$DIMAPOST
  1

  9
$DIMALT
 70
     0
  9
$DIMALTD
 70
     3
  9
$DIMALTF
 40
0.0393700787401575
  9
$DIMLFAC
 40
1.0
  9
$DIMTOFL
 70
     1
  9
$DIMTVP
 40
0.0
  9
$DIMTIX
 70
     0
  9
$DIMSOXD
 70
     0
  9
$DIMSAH
 70
     0
  9
$DIMBLK1
  1

  9
$DIMBLK2
  1

  9
$DIMSTYLE
  2
ISO-25
  9
$DIMCLRD
 70
     0
  9
$DIMCLRE
 70
     0
  9
$DIMCLRT
 70
     0
  9
$DIMTFAC
 40
1.0
  9
$DIMGAP
 40
0.625
  9
$DIMJUST
 70
     0
  9
$DIMSD1
 70
     0
  9
$DIMSD2
 70
     0
  9
$DIMTOLJ
 70
     0
  9
$DIMTZIN
 70
     8
  9
$DIMALTZ
 70
     0
  9
$DIMALTTZ
 70
     8
  9
$DIMUPT
 70
     0
  9
$DIMDEC
 70
     3
  9
$DIMTDEC
 70
     3
  9
$DIMALTU
 70
     2
  9
$DIMALTTD
 70
     3
  9
$DIMTXSTY
  7
Standard
  9
$DIMAUNIT
 70
     0
  9
$DIMADEC
 70
     1
  9
$DIMALTRND
 40
0.0
  9
$DIMAZIN
 70
     0
  9
$DIMDSEP
 70
    46
  9
$DIMATFIT
 70
     3
  9
$DIMFRAC
 70
     0
  9
$DIMLDRBLK
  1

  9
$DIMLUNIT
 70
     2
  9
$DIMLWD
 70
    -2
  9
$DIMLWE
 70
    -2
  9
$DIMTMOVE
 70
     0
  9
$DIMFXL
 40
1.0
  9
$DIMFXLON
 70
     0
  9
$DIMJOGANG
 40
0.7853981633974483
  9
$DIMTFILL
 70
     0
  9
$DIMTFILLCLR
 70
     0
  9
$DIMARCSYM
 70
     0
  9
$DIMLTYPE
  6

  9
$DIMLTEX1
  6

  9
$DIMLTEX2
  6

  9
$DIMTXTDIRECTION
 70
     0
  9
$LUNITS
 70
     2
  9
$LUPREC
 70
     4
  9
$SKETCHINC
 40
1.0
  9
$FILLETRAD
 40
10.0
  9
$AUNITS
 70
     0
  9
$AUPREC
 70
     0
  9
$MENU
  1
.
  9
$ELEVATION
 40
0.0
  9
$PELEVATION
 40
0.0
  9
$THICKNESS
 40
0.0
  9
$LIMCHECK
 70
     0
  9
$CHAMFERA
 40
0.0
  9
$CHAMFERB
 40
0.0
  9
$CHAMFERC
 40
0.0
  9
$CHAMFERD
 40
0.0
  9
$SKPOLY
 70
     0
  9
$TDCREATE
 40
2457944.786483437
  9
$TDUCREATE
 40
2457944.953150104
  9
$TDUPDATE
 40
2457944.786483831
  9
$TDUUPDATE
 40
2457944.953150498
  9
$TDINDWG
 40
0.0000000116
  9
$TDUSRTIMER
 40
0.0000000116
  9
$USRTIMER
 70
     1
  9
$ANGBASE
 50
0.0
  9
$ANGDIR
 70
     0
  9
$PDMODE
 70
     0
  9
$PDSIZE
 40
0.0
  9
$PLINEWID
 40
0.0
  9
$SPLFRAME
 70
     0
  9
$SPLINETYPE
 70
     6
  9
$SPLINESEGS
 70
     8
  9
$HANDSEED
  5
158
  9
$SURFTAB1
 70
     6
  9
$SURFTAB2
 70
     6
  9
$SURFTYPE
 70
     6
  9
$SURFU
 70
     6
  9
$SURFV
 70
     6
  9
$UCSBASE
  2

  9
$UCSNAME
  2

  9
$UCSORG
 10
0.0
 20
0.0
 30
0.0
  9
$UCSXDIR
 10
1.0
 20
0.0
 30
0.0
  9
$UCSYDIR
 10
0.0
 20
1.0
 30
0.0
  9
$UCSORTHOREF
  2

  9
$UCSORTHOVIEW
 70
     0
  9
$UCSORGTOP
 10
0.0
 20
0.0
 30
0.0
  9
$UCSORGBOTTOM
 10
0.0
 20
0.0
 30
0.0
  9
$UCSORGLEFT
 10
0.0
 20
0.0
 30
0.0
  9
$UCSORGRIGHT
 10
0.0
 20
0.0
 30
0.0
  9
$UCSORGFRONT
 10
0.0
 20
0.0
 30
0.0
  9
$UCSORGBACK
 10
0.0
 20
0.0
 30
0.0
  9
$PUCSBASE
  2

  9
$PUCSNAME
  2

  9
$PUCSORG
 10
0.0
 20
0.0
 30
0.0
  9
$PUCSXDIR
 10
1.0
 20
0.0
 30
0.0
  9
$PUCSYDIR
 10
0.0
 20
1.0
 30
0.0
  9
$PUCSORTHOREF
  2

  9
$PUCSORTHOVIEW
 70
     0
  9
$PUCSORGTOP
 10
0.0
 20
0.0
 30
0.0
  9
$PUCSORGBOTTOM
 10
0.0
 20
0.0
 30
0.0
  9
$PUCSORGLEFT
 10
0.0
 20
0.0
 30
0.0
  9
$PUCSORGRIGHT
 10
0.0
 20
0.0
 30
0.0
  9
$PUCSORGFRONT
 10
0.0
 20
0.0
 30
0.0
  9
$PUCSORGBACK
 10
0.0
 20
0.0
 30
0.0
  9
$USERI1
 70
     0
  9
$USERI2
 70
     0
  9
$USERI3
 70
     0
  9
$USERI4
 70
     0
  9
$USERI5
 70
     0
  9
$USERR1
 40
0.0
  9
$USERR2
 40
0.0
  9
$USERR3
 40
0.0
  9
$USERR4
 40
0.0
  9
$USERR5
 40
0.0
  9
$WORLDVIEW
 70
     1
  9
$SHADEDGE
 70
     3
  9
$SHADEDIF
 70
    70
  9
$TILEMODE
 70
     1
  9
$MAXACTVP
 70
    64
  9
$PINSBASE
 10
0.0
 20
0.0
 30
0.0
  9
$PLIMCHECK
 70
     0
  9
$PEXTMIN
 10
1.000000000000000E+20
 20
1.000000000000000E+20
 30
1.000000000000000E+20
  9
$PEXTMAX
 10
-1.000000000000000E+20
 20
-1.000000000000000E+20
 30
-1.000000000000000E+20
  9
$PLIMMIN
 10
0.0
 20
0.0
  9
$PLIMMAX
 10
420.0
 20
297.0
  9
$UNITMODE
 70
     0
  9
$VISRETAIN
 70
     1
  9
$PLINEGEN
 70
     0
  9
$PSLTSCALE
 70
     1
  9
$TREEDEPTH
 70
  3020
  9
$CMLSTYLE
  2
Standard
  9
$CMLJUST
 70
     0
  9
$CMLSCALE
 40
20.0
  9
$PROXYGRAPHICS
 70
     1
  9
$MEASUREMENT
 70
     1
  9
$CELWEIGHT
370
    -1
  9
$ENDCAPS
280
     0
  9
$JOINSTYLE
280
     0
  9
$LWDISPLAY
290
     0
  9
$INSUNITS
 70
     4
  9
$HYPERLINKBASE
  1

  9
$STYLESHEET
  1

  9
$XEDIT
290
     1
  9
$CEPSNTYPE
380
     0
  9
$PSTYLEMODE
290
     1
  9
$FINGERPRINTGUID
  2
{5E63CB0F-22BB-4CE0-93CB-1AA32F421806}
  9
$VERSIONGUID
  2
{FAEB1C32-E019-11D5-929B-00C0DF256EC4}
  9
$EXTNAMES
290
     1
  9
$PSVPSCALE
 40
0.0
  9
$OLESTARTUP
290
     0
  9
$SORTENTS
280
   127
  9
$INDEXCTL
280
     0
  9
$HIDETEXT
280
     1
  9
$XCLIPFRAME
280
     2
  9
$HALOGAP
280
     0
  9
$OBSCOLOR
 70
   257
  9
$OBSLTYPE
280
     0
  9
$INTERSECTIONDISPLAY
280
     0
  9
$INTERSECTIONCOLOR
 70
   257
  9
$DIMASSOC
280
     2
  9
$PROJECTNAME
  1

  9
$CAMERADISPLAY
290
     0
  9
$LENSLENGTH
 40
50.0
  9
$CAMERAHEIGHT
 40
0.0
  9
$STEPSPERSEC
 40
2.0
  9
$STEPSIZE
 40
6.0
  9
$3DDWFPREC
 40
2.0
  9
$PSOLWIDTH
 40
5.0
  9
$PSOLHEIGHT
 40
80.0
  9
$LOFTANG1
 40
1.570796326794897
  9
$LOFTANG2
 40
1.570796326794897
  9
$LOFTMAG1
 40
0.0
  9
$LOFTMAG2
 40
0.0
  9
$LOFTPARAM
 70
     7
  9
$LOFTNORMALS
280
     1
  9
$LATITUDE
 40
37.795
  9
$LONGITUDE
 40
-122.394
  9
$NORTHDIRECTION
 40
0.0
  9
$TIMEZONE
 70
 -8000
  9
$LIGHTGLYPHDISPLAY
280
     1
  9
$TILEMODELIGHTSYNCH
280
     1
  9
$CMATERIAL
347
44
  9
$SOLIDHIST
280
     1
  9
$SHOWHIST
280
     1
  9
$DWFFRAME
280
     2
  9
$DGNFRAME
280
     2
  9
$REALWORLDSCALE
290
     1
  9
$INTERFERECOLOR
 62
   256
  9
$CSHADOW
280
     0
  9
$SHADOWPLANELOCATION
 40
0.0
  0
ENDSEC
  0
SECTION
  2
CLASSES
  0
CLASS
  1
ACDBDICTIONARYWDFLT
  2
AcDbDictionaryWithDefault
  3
ObjectDBX Classes
 90
        0
 91
        4
280
     0
281
     0
  0
CLASS
  1
VISUALSTYLE
  2
AcDbVisualStyle
  3
ObjectDBX Classes
 90
     4095
 91
        4
280
     0
281
     0
  0
CLASS
  1
MATERIAL
  2
AcDbMaterial
  3
ObjectDBX Classes
 90
     1153
 91
        4
280
     0
281
     0
  0
CLASS
  1
SCALE
  2
AcDbScale
  3
ObjectDBX Classes
 90
     1153
 91
        4
280
     0
281
     0
  0
CLASS
  1
SUN
  2
AcDbSun
  3
SCENEOE
 90
     1153
 91
        4
280
     0
281
     0
  0
CLASS
  1
DICTIONARYVAR
  2
AcDbDictionaryVar
  3
ObjectDBX Classes
 90
        0
 91
        4
280
     0
281
     0
  0
ENDSEC
  0
SECTION
  2
TABLES
  0
TABLE
  2
VPORT
  5
8
330
0
100
AcDbSymbolTable
 70
     1
  0
VPORT
  5
29
330
8
100
AcDbSymbolTableRecord
100
AcDbViewportTableRecord
  2
*Active
 70
     0
 10
0.0
 20
0.0
 11
1.0
 21
1.0
 12
208.8734267391331
 22
-14.5355024347564
 13
0.0
 23
0.0
 14
10.0
 24
10.0
 15
10.0
 25
10.0
 16
0.0
 26
0.0
 36
1.0
 17
0.0
 27
0.0
 37
0.0
 40
131.4832541062757
 41
0.6909383865006448
 42
50.0
 43
0.0
 44
0.0
 50
0.0
 51
0.0
 71
     0
 72
   100
 73
     1
 74
     3
 75
     0
 76
     0
 77
     0
 78
     0
281
     0
 65
     1
110
0.0
120
0.0
130
0.0
111
1.0
121
0.0
131
0.0
112
0.0
122
1.0
132
0.0
 79
     0
146
0.0
 60
     3
 61
     5
292
     1
282
     1
141
0.0
142
0.0
 63
   250
361
69
  0
ENDTAB
  0
TABLE
  2
LTYPE
  5
5
330
0
100
AcDbSymbolTable
 70
     2
  0
LTYPE
  5
14
330
5
100
AcDbSymbolTableRecord
100
AcDbLinetypeTableRecord
  2
ByBlock
 70
     0
  3

 72
    65
 73
     0
 40
0.0
  0
LTYPE
  5
15
330
5
100
AcDbSymbolTableRecord
100
AcDbLinetypeTableRecord
  2
ByLayer
 70
     0
  3

 72
    65
 73
     0
 40
0.0
  0
LTYPE
  5
16
330
5
100
AcDbSymbolTableRecord
100
AcDbLinetypeTableRecord
  2
Continuous
 70
     0
  3
Solid line
 72
    65
 73
     0
 40
0.0
  0
LTYPE
  5
DF
330
5
100
AcDbSymbolTableRecord
100
AcDbLinetypeTableRecord
  2
HIDDEN
 70
     0
  3
- - - - - - - - - - - - - - - - - - - - -
 72
    65
 73
     2
 40
9.524999999999999
 49
6.35
 74
     0
 49
-3.175
 74
     0
  0
ENDTAB
  0
TABLE
  2
LAYER
  5
2
330
0
100
AcDbSymbolTable
 70
     2
  0
LAYER
  5
10
330
2
100
AcDbSymbolTableRecord
100
AcDbLayerTableRecord
  2
0
 70
     0
 62
   253
420
  9416591
  6
Continuous
370
    70
390
F
347
46
348
0
  0
LAYER
  5
DE
330
2
100
AcDbSymbolTableRecord
100
AcDbLayerTableRecord
  2
Hidden
 70
     0
 62
    98
420
   346117
  6
HIDDEN
370
    70
390
F
347
46
348
0
  0
ENDTAB
  0
TABLE
  2
STYLE
  5
3
330
0
100
AcDbSymbolTable
 70
     1
  0
STYLE
  5
11
330
3
100
AcDbSymbolTableRecord
100
AcDbTextStyleTableRecord
  2
Standard
 70
     0
 40
0.0
 41
1.0
 50
0.0
 71
     0
 42
2.5
  3
txt
  4

  0
ENDTAB
  0
TABLE
  2
VIEW
  5
6
330
0
100
AcDbSymbolTable
 70
     0
  0
ENDTAB
  0
TABLE
  2
UCS
  5
7
330
0
100
AcDbSymbolTable
 70
     0
  0
ENDTAB
  0
TABLE
  2
APPID
  5
9
330
0
100
AcDbSymbolTable
 70
     1
  0
APPID
  5
12
330
9
100
AcDbSymbolTableRecord
100
AcDbRegAppTableRecord
  2
ACAD
 70
     0
  0
ENDTAB
  0
TABLE
  2
DIMSTYLE
  5
A
330
0
100
AcDbSymbolTable
 70
     1
100
AcDbDimStyleTable
  0
DIMSTYLE
105
27
330
A
100
AcDbSymbolTableRecord
100
AcDbDimStyleTableRecord
  2
ISO-25
 70
     0
 41
2.5
 42
0.625
 43
3.75
 44
1.25
 73
     0
 74
     0
 77
     1
 78
     8
140
2.5
141
2.5
143
0.03937007874016
147
0.625
171
     3
172
     1
178
     0
271
     2
272
     2
274
     3
278
    44
283
     0
284
     8
340
11
  0
ENDTAB
  0
TABLE
  2
BLOCK_RECORD
  5
1
330
0
100
AcDbSymbolTable
 70
     1
  0
BLOCK_RECORD
  5
1F
330
1
100
AcDbSymbolTableRecord
100
AcDbBlockTableRecord
  2
*Model_Space
340
22
 70
     0
280
     1
281
     0
  0
BLOCK_RECORD
  5
1B
330
1
100
AcDbSymbolTableRecord
100
AcDbBlockTableRecord
  2
*Paper_Space
340
1E
 70
     0
280
     1
281
     0
  0
BLOCK_RECORD
  5
23
330
1
100
AcDbSymbolTableRecord
100
AcDbBlockTableRecord
  2
*Paper_Space0
340
26
 70
     0
280
     1
281
     0
  0
ENDTAB
  0
ENDSEC
  0
SECTION
  2
BLOCKS
  0
BLOCK
  5
20
330
1F
100
AcDbEntity
  8
0
100
AcDbBlockBegin
  2
*Model_Space
 70
     0
 10
0.0
 20
0.0
 30
0.0
  3
*Model_Space
  1
*Model_Space
  0
ENDBLK
  5
21
330
1F
100
AcDbEntity
  8
0
100
AcDbBlockEnd
  0
BLOCK
  5
1C
330
1B
100
AcDbEntity
 67
     1
  8
0
100
AcDbBlockBegin
  2
*Paper_Space
 70
     0
 10
0.0
 20
0.0
 30
0.0
  3
*Paper_Space
  1
*Paper_Space
  0
ENDBLK
  5
1D
330
1B
100
AcDbEntity
 67
     1
  8
0
100
AcDbBlockEnd
  0
BLOCK
  5
24
330
23
100
AcDbEntity
  8
0
100
AcDbBlockBegin
  2
*Paper_Space0
 70
     0
 10
0.0
 20
0.0
 30
0.0
  3
*Paper_Space0
  1
*Paper_Space0
  0
ENDBLK
  5
25
330
23
100
AcDbEntity
  8
0
100
AcDbBlockEnd
  0
ENDSEC
  0
SECTION
  2
ENTITIES
  0
ELLIPSE
  5
6A
330
1F
100
AcDbEntity
  8
0
 62
    98
420
   346117
370
    -3
100
AcDbEllipse
 10
216.1159627939271
 20
-65.41488773876284
 30
0.0
 11
-24.21050100511303
 21
-2.617563959375173
 31
-1.541329506423356E-15
210
-6.889501335177003E-17
220
4.838593652060404E-17
230
1.0
 40
0.4213367627752357
 41
3.894494222513988
 42
6.027521643930144
  0
ELLIPSE
  5
6B
330
1F
100
AcDbEntity
  8
0
 62
    98
420
   346117
370
    -3
100
AcDbEllipse
 10
218.3827533504478
 20
-65.65008840337025
 30
0.0
 11
1.988412230085265
 21
0.2149809369394214
 31
1.265896331726563E-16
210
6.889501335177002E-17
220
-4.838593652060402E-17
230
-1.0
 40
0.4213367627752357
 41
0.0
 42
6.283185307179586
  0
ELLIPSE
  5
6C
330
1F
100
AcDbEntity
  8
0
 62
    98
420
   346117
370
    -3
100
AcDbEllipse
 10
213.8491722374062
 20
-65.17968707415545
 30
-0.0000000000000069
 11
-1.988412230085265
 21
-0.2149809369394214
 31
-1.265896331726563E-16
210
-6.889501335177002E-17
220
4.838593652060402E-17
230
1.0
 40
0.4213367627752357
 41
0.0
 42
6.283185307179586
  0
ELLIPSE
  5
6D
330
1F
100
AcDbEntity
  8
0
 62
    98
420
   346117
370
    -3
100
AcDbEllipse
 10
209.7689492356689
 20
-64.75632587786205
 30
0.0000000000000069
 11
1.988412230085258
 21
0.2149809369394206
 31
1.265896331726559E-16
210
6.889501335177002E-17
220
-4.838593652060402E-17
230
-1.0
 40
0.4213367627752356
 41
0.0
 42
6.283185307179586
  0
ELLIPSE
  5
6E
330
1F
100
AcDbEntity
  8
0
 62
    98
420
   346117
370
    -3
100
AcDbEllipse
 10
222.4629763521851
 20
-66.0734495996636
 30
-0.0000000000000069
 11
1.988412230085247
 21
0.2149809369394194
 31
1.265896331726552E-16
210
6.889501335177002E-17
220
-4.838593652060402E-17
230
-1.0
 40
0.4213367627752356
 41
1.947337029338603
 42
5.65333471856574
  0
ELLIPSE
  5
6F
330
1F
100
AcDbEntity
  8
0
 62
    98
420
   346117
370
    -3
100
AcDbEllipse
 10
215.1819473334511
 20
-56.77594611380196
 30
-0.0000000000000104
 11
27.00264979829321
 21
2.91944239008992
 31
1.719087964224130E-15
210
6.889501335177002E-17
220
-4.838593652060402E-17
230
-1.0
 40
0.4213367627752357
 41
3.135629475034145
 42
5.78086052094067
  0
ELLIPSE
  5
70
330
1F
100
AcDbEntity
  8
0
 62
    98
420
   346117
370
    -3
100
AcDbEllipse
 10
216.5146637959105
 20
-19.67953999181165
 30
0.0000000000000035
 11
-15.04853131276936
 21
-51.23503284555385
 31
5.928514945804406E-15
210
3.128734109152619E-17
220
1.065225512814109E-16
230
1.0
 40
0.6036999419676544
 41
5.768079993664115
 42
6.863451945948873
  0
ELLIPSE
  5
71
330
1F
100
AcDbEntity
  8
0
 62
    98
420
   346117
370
    -3
100
AcDbEllipse
 10
216.4084134844258
 20
-68.11983701455965
 30
0.0
 11
27.94861643062039
 21
3.021717355941646
 31
1.779311677983291E-15
210
6.889501335177003E-17
220
-4.838593652060404E-17
230
-1.0
 40
0.4213367627752357
 41
0.1288083836008096
 42
3.012714333838951
  0
ELLIPSE
  5
72
330
1F
100
AcDbEntity
  8
0
 62
    98
420
   346117
370
    -3
100
AcDbEllipse
 10
215.0458297325862
 20
-55.51696052120511
 30
-0.0000000000000173
 11
-31.79082884435238
 21
-3.437125394640422
 31
-2.023921046537065E-15
210
-6.889501335177002E-17
220
4.838593652060402E-17
230
1.0
 40
0.4213367627752357
 41
1.974766988774712
 42
3.01278355695376
  0
ELLIPSE
  5
73
330
1F
100
AcDbEntity
  8
0
 62
    98
420
   346117
370
    -3
100
AcDbEllipse
 10
215.0458297325862
 20
-55.51696052120511
 30
-0.0000000000000173
 11
-31.79082884435238
 21
-3.437125394640422
 31
-2.023921046537065E-15
210
-6.889501335177002E-17
220
4.838593652060402E-17
230
1.0
 40
0.4213367627752357
 41
0.128808758677657
 42
0.2258624935020217
  0
ELLIPSE
  5
74
330
1F
100
AcDbEntity
  8
0
 62
    98
420
   346117
370
    -3
100
AcDbEllipse
 10
216.6700392736396
 20
-18.98012063423257
 30
-0.0000000000000139
 11
-16.71513679808467
 21
-56.64812690794391
 31
-3.278640139653620E-15
210
4.233088877920128E-17
220
4.538673533024115E-17
230
-1.0
 40
0.6071791210268699
 41
5.506033127996331
 42
6.835867094736036
  0
SPLINE
  5
75
330
1F
100
AcDbEntity
  8
0
 62
    98
420
   346117
370
    -3
100
AcDbSpline
210
0.0
220
0.0
230
1.0
 70
     8
 71
     3
 72
    20
 73
    16
 74
     0
 42
0.000000001
 43
0.00000001
 40
-0.0046392209204789
 40
-0.0046392209204789
 40
-0.0046392209204789
 40
-0.0046392209204789
 40
-0.0042449999787754
 40
-0.0042449999787754
 40
-0.0032434064581243
 40
-0.0032434064581243
 40
-0.002292680457214
 40
-0.002292680457214
 40
-0.0011547046557653
 40
-0.0011547046557653
 40
-0.0005377287273371
 40
-0.0005377287273371
 40
-0.0002251545806571
 40
-0.0002251545806571
 40
0.0
 40
0.0
 40
0.0
 40
0.0
 10
250.8950407286764
 20
-17.78858424424918
 30
-0.0000000000000069
 10
250.8989531025107
 20
-17.67853051423945
 30
-0.0000000000000069
 10
250.90364776224
 20
-17.56461527224149
 30
-0.0000000000000208
 10
250.923116408544
 20
-17.15019789458929
 30
-0.0000000000000069
 10
250.9420963273244
 20
-16.83595386336146
 30
-0.0000000000000173
 10
250.9857190574443
 20
-16.21694501752746
 30
-0.0000000000000208
 10
251.0095259574032
 20
-15.91885980539661
 30
-0.0000000000000208
 10
251.0622574434125
 20
-15.29609012168183
 30
-0.0000000000000035
 10
251.090911841267
 20
-14.98114186144625
 30
-0.0000000000000208
 10
251.1286301760972
 20
-14.55964389541531
 30
0.0
 10
251.1404242429368
 20
-14.42629832838366
 30
-0.0000000000000104
 10
251.1553880620092
 20
-14.24983100541338
 30
-0.0000000000000312
 10
251.1599392672938
 20
-14.19471416047565
 30
-0.0000000000000173
 10
251.1668871404337
 20
-14.10740523559351
 30
-0.0000000000000173
 10
251.1695302203583
 20
-14.07311780062405
 30
-0.0000000000000035
 10
251.1718991439632
 20
-14.04115026811117
 30
-0.0000000000000208
  0
SPLINE
  5
76
330
1F
100
AcDbEntity
  8
0
 62
    98
420
   346117
370
    -3
100
AcDbSpline
210
0.0
220
0.0
230
1.0
 70
     8
 71
     3
 72
    14
 73
    10
 74
     0
 42
0.000000001
 43
0.00000001
 40
-0.0187800713452409
 40
-0.0187800713452409
 40
-0.0187800713452409
 40
-0.0187800713452409
 40
-0.0187130617156025
 40
-0.0187130617156025
 40
-0.018467335566222
 40
-0.018467335566222
 40
-0.0180644644523748
 40
-0.0180644644523748
 40
-0.0180100524850678
 40
-0.0180100524850678
 40
-0.0180100524850678
 40
-0.0180100524850678
 10
251.1718991439632
 20
-14.04115026811117
 30
-0.0000000000000208
 10
251.172604173783
 20
-14.03163621555273
 30
-0.0000000000000173
 10
251.1732845718269
 20
-14.02233261769154
 30
-0.0000000000000139
 10
251.17634465889
 20
-13.97989769474522
 30
-0.0000000000000243
 10
251.178419357911
 20
-13.94935276446358
 30
-0.000000000000026
 10
251.1830151218188
 20
-13.87625016832013
 30
-0.0000000000000173
 10
251.1849668142956
 20
-13.8385789706488
 30
-0.0000000000000052
 10
251.1861757154636
 20
-13.80476850753566
 30
0.0000000000000087
 10
251.1863030927182
 20
-13.80089029937666
 30
0.0000000000000035
 10
251.1864150106473
 20
-13.79715709299763
 30
-0.0000000000000156
  0
SPLINE
  5
77
330
1F
100
AcDbEntity
  8
0
 62
    98
420
   346117
370
    -3
100
AcDbSpline
210
0.0
220
0.0
230
1.0
 70
     8
 71
     3
 72
    20
 73
    16
 74
     0
 42
0.000000001
 43
0.00000001
 40
-0.0136780998008213
 40
-0.0136780998008213
 40
-0.0136780998008213
 40
-0.0136780998008213
 40
-0.0134833098503069
 40
-0.0134833098503069
 40
-0.0124954807758192
 40
-0.0124954807758192
 40
-0.0115151388275039
 40
-0.0115151388275039
 40
-0.0103307573295657
 40
-0.0103307573295657
 40
-0.009758221336318
 40
-0.009758221336318
 40
-0.0094700148518044
 40
-0.0094700148518044
 40
-0.0093868774492597
 40
-0.0093868774492597
 40
-0.0093868774492597
 40
-0.0093868774492597
 10
251.0446281497695
 20
-15.49580927013082
 30
-0.0000000000000104
 10
251.0425374454009
 20
-15.55203235694032
 30
-0.0000000000000035
 10
251.0405304978334
 20
-15.60906297232469
 30
-0.0000000000000035
 10
251.0289418709068
 20
-15.95974011873286
 30
-0.0000000000000416
 10
251.021946871134
 20
-16.26596883257579
 30
0.0
 10
251.0119179317803
 20
-16.87846545622174
 30
-0.0000000000000035
 10
251.0088754325042
 20
-17.18043293100153
 30
-0.0000000000000139
 10
251.0029420325885
 20
-17.81376560011707
 30
-0.0000000000000208
 10
251.000150975865
 20
-18.13269033732142
 30
-0.0000000000000243
 10
250.9926461167778
 20
-18.5361785769727
 30
-0.0000000000000382
 10
250.9897124327826
 20
-18.6550598635474
 30
-0.0000000000000069
 10
250.9843660478894
 20
-18.81282426890819
 30
-0.0000000000000173
 10
250.9824201000334
 20
-18.86212006045556
 30
-0.0000000000000208
 10
250.9797060695514
 20
-18.92087803969508
 30
-0.0000000000000347
 10
250.9790851087039
 20
-18.93372583414038
 30
-0.0000000000000173
 10
250.9784509239872
 20
-18.94626263295956
 30
-0.0000000000000104
  0
SPLINE
  5
78
330
1F
100
AcDbEntity
  8
0
 62
    98
420
   346117
370
    -3
100
AcDbSpline
210
0.0
220
0.0
230
1.0
 70
     8
 71
     3
 72
    14
 73
    10
 74
     0
 42
0.000000001
 43
0.00000001
 40
-0.0093868774492597
 40
-0.0093868774492597
 40
-0.0093868774492597
 40
-0.0093868774492597
 40
-0.0092463144903403
 40
-0.0092463144903403
 40
-0.0090042370870234
 40
-0.0090042370870234
 40
-0.0086275811105028
 40
-0.0086275811105028
 40
-0.0079172375913542
 40
-0.0079172375913542
 40
-0.0079172375913542
 40
-0.0079172375913542
 10
250.9784509239872
 20
-18.94626263295956
 30
-0.0000000000000104
 10
250.9773785724599
 20
-18.96745898744994
 30
-0.0000000000000173
 10
250.9762683394784
 20
-18.98776634172354
 30
-0.0000000000000208
 10
250.9731437459687
 20
-19.04057560047562
 30
-0.0000000000000451
 10
250.971056277639
 20
-19.07127847855626
 30
-0.0000000000000139
 10
250.9654536878764
 20
-19.1426059376189
 30
-0.0000000000000069
 10
250.9617939627547
 20
-19.17919221509192
 30
-0.0000000000000104
 10
250.9506463049956
 20
-19.26425663338697
 30
0.0000000000000035
 10
250.9426420765561
 20
-19.29427576188941
 30
-0.0000000000000173
 10
250.934526050657
 20
-19.29762871358401
 30
-0.0000000000000347
  0
SPLINE
  5
79
330
1F
100
AcDbEntity
  8
0
 62
    98
420
   346117
370
    -3
100
AcDbSpline
210
0.0
220
0.0
230
1.0
 70
     8
 71
     3
 72
    14
 73
    10
 74
     0
 42
0.000000001
 43
0.00000001
 40
-0.0079172375913542
 40
-0.0079172375913542
 40
-0.0079172375913542
 40
-0.0079172375913542
 40
-0.0076606404901991
 40
-0.0076606404901991
 40
-0.0064977960822137
 40
-0.0064977960822137
 40
-0.0053285173758972
 40
-0.0053285173758972
 40
-0.0046392209204789
 40
-0.0046392209204789
 40
-0.0046392209204789
 40
-0.0046392209204789
 10
250.934526050657
 20
-19.29762871358401
 30
-0.0000000000000347
 10
250.9315829349513
 20
-19.29884143079255
 30
0.0000000000000035
 10
250.9286324920308
 20
-19.29657358490868
 30
-0.0000000000000139
 10
250.9123807699244
 20
-19.26449518940672
 30
-0.0000000000000104
 10
250.8997159650935
 20
-19.16631237628334
 30
-0.0000000000000347
 10
250.8827766779744
 20
-18.8358786216116
 30
-0.0000000000000208
 10
250.8788543309321
 20
-18.60635010355286
 30
-0.0000000000000278
 10
250.8839192262441
 20
-18.16165138261142
 30
-0.0000000000000347
 10
250.8882612153627
 20
-17.98101869879304
 30
-0.0000000000000139
 10
250.8950407286764
 20
-17.78858424424918
 30
-0.0000000000000069
  0
ELLIPSE
  5
7A
330
1F
100
AcDbEntity
  8
0
 62
    98
420
   346117
370
    -3
100
AcDbEllipse
 10
206.9832859064777
 20
17.1489077563971
 30
-0.0000000000000095
 11
-41.0174189024002
 21
-2.624424098640875
 31
5.276153913225672E-15
210
1.245630478463302E-16
220
6.359459968358711E-17
230
1.0
 40
0.3448129900286129
 41
4.059133238849263
 42
4.912739541115492
  0
ELLIPSE
  5
7B
330
1F
100
AcDbEntity
  8
0
 62
    98
420
   346117
370
    -3
100
AcDbEllipse
 10
206.9832859064777
 20
17.1489077563971
 30
-0.0000000000000095
 11
-41.0174189024002
 21
-2.624424098640875
 31
5.276153913225672E-15
210
1.245630478463302E-16
220
6.359459968358711E-17
230
1.0
 40
0.3448129900286129
 41
3.603706180834069
 42
3.673634337982998
  0
ELLIPSE
  5
7C
330
1F
100
AcDbEntity
  8
0
 62
    98
420
   346117
370
    -3
100
AcDbEllipse
 10
205.6852214994751
 20
31.06163643132298
 30
-0.0000000000000139
 11
42.60331413340172
 21
4.606137626064819
 31
2.712283613270426E-15
210
6.889501335177002E-17
220
-4.838593652060402E-17
230
-1.0
 40
0.4213367627752357
 41
3.612074239246323
 42
4.051936853269974
  0
ELLIPSE
  5
7D
330
1F
100
AcDbEntity
  8
0
 62
    98
420
   346117
370
    -3
100
AcDbEllipse
 10
205.6852214994751
 20
31.06163643132298
 30
-0.0000000000000139
 11
42.60331413340172
 21
4.606137626064819
 31
2.712283613270426E-15
210
6.889501335177002E-17
220
-4.838593652060402E-17
230
-1.0
 40
0.4213367627752357
 41
4.303192220000615
 42
6.753666892836118
  0
LINE
  5
7E
330
1F
100
AcDbEntity
  8
0
 62
    98
420
   346117
370
    -3
100
AcDbLine
 10
166.8309884816301
 20
35.09312553485759
 30
-0.0000000000000104
 11
176.5980357621923
 21
-8.664278711569064
 31
-0.0000000000000029
  0
ELLIPSE
  5
7F
330
1F
100
AcDbEntity
  8
0
 62
    98
420
   346117
370
    -3
100
AcDbEllipse
 10
210.3589987614404
 20
-12.16729354122204
 30
-0.0000000000000069
 11
-37.01858974908921
 21
-4.002334620570103
 31
-2.356739526142078E-15
210
-6.889501335177003E-17
220
4.838593652060403E-17
230
1.0
 40
0.4213367627752357
 41
4.943325679190332
 42
5.812703721523056
  0
ELLIPSE
  5
80
330
1F
100
AcDbEntity
  8
0
 62
    98
420
   346117
370
    -3
100
AcDbEllipse
 10
210.5533936145517
 20
-13.96529995469835
 30
-0.0000000000000104
 11
40.67037493880098
 21
4.397154260938173
 31
2.589225597489128E-15
210
6.889501335177002E-17
220
-4.838593652060402E-17
230
-1.0
 40
0.4213367627752356
 41
0.0528354611804498
 42
0.4704815856565299
  0
ELLIPSE
  5
81
330
1F
100
AcDbEntity
  8
0
 62
    98
420
   346117
370
    -3
100
AcDbEllipse
 10
205.685221499475
 20
31.061636431323
 30
-0.0000000000000022
 11
-46.31052306803907
 21
-5.00694950910396
 31
-2.948298163990631E-15
210
-6.889501335177002E-17
220
4.838593652060402E-17
230
1.0
 40
0.4213367627752357
 41
2.671111067933263
 42
5.086987124891351
  0
ELLIPSE
  5
82
330
1F
100
AcDbEntity
  8
0
 62
    98
420
   346117
370
    -3
100
AcDbEllipse
 10
205.685221499475
 20
31.061636431323
 30
-0.0000000000000022
 11
-46.31052306803907
 21
-5.00694950910396
 31
-2.948298163990631E-15
210
-6.889501335177002E-17
220
4.838593652060402E-17
230
1.0
 40
0.4213367627752357
 41
5.30387947410456
 42
5.812703721523056
  0
LINE
  5
83
330
1F
100
AcDbEntity
  8
0
 62
    98
420
   346117
370
    -3
100
AcDbLine
 10
247.9204299818392
 20
26.67933958598411
 30
-0.0000000000000013
 11
247.6447856092505
 21
-17.81387785850071
 31
-0.0000000000000137
  0
ELLIPSE
  5
84
330
1F
100
AcDbEntity
  8
0
 62
    98
420
   346117
370
    -3
100
AcDbEllipse
 10
223.8073505617331
 20
-29.77776113727452
 30
-0.0000000000000139
 11
0.1290065766757118
 21
1.243325099551392
 31
-6.938893903907374E-17
210
1.953272439630063E-17
220
5.378246538711722E-17
230
1.0
 40
0.4111138470519561
 41
0.0
 42
6.283185307179586
  0
ELLIPSE
  5
85
330
1F
100
AcDbEntity
  8
0
 62
    98
420
   346117
370
    -3
100
AcDbEllipse
 10
227.7963441097344
 20
-26.99885547850423
 30
-0.0000000000000208
 11
0.1290065766757092
 21
1.243325099551367
 31
-6.938893903907235E-17
210
1.953272439630063E-17
220
5.378246538711722E-17
230
1.0
 40
0.4111138470519561
 41
0.0
 42
6.283185307179586
  0
LINE
  5
86
330
1F
100
AcDbEntity
  8
0
 62
    98
420
   346117
370
    -3
100
AcDbLine
 10
178.2700279760872
 20
47.88921844283207
 30
-0.0000000000000017
 11
176.9491074668676
 21
19.37260755474097
 31
-0.0000000000000208
  0
LINE
  5
87
330
1F
100
AcDbEntity
  8
0
 62
    98
420
   346117
370
    -3
100
AcDbLine
 10
181.9322203308412
 20
50.83476641866771
 30
0.0000000000000052
 11
178.2700279760872
 21
47.88921844283207
 31
0.0000000000000019
  0
LINE
  5
88
330
1F
100
AcDbEntity
  8
0
 62
    98
420
   346117
370
    -3
100
AcDbLine
 10
182.8036090891286
 20
47.41881711361722
 30
-0.0000000000000121
 11
178.2700279760872
 21
47.88921844283205
 31
-0.0000000000000113
  0
LINE
  5
89
330
1F
100
AcDbEntity
  8
0
 62
    98
420
   346117
370
    -3
100
AcDbLine
 10
182.8036090891286
 20
47.41881711361724
 30
-0.0000000000000035
 11
186.4658014438827
 21
50.3643650894529
 31
-0.0000000000000178
  0
LINE
  5
8A
330
1F
100
AcDbEntity
  8
0
 62
    98
420
   346117
370
    -3
100
AcDbLine
 10
181.9322203308412
 20
50.83476641866771
 30
0.0000000000000017
 11
186.4658014438827
 21
50.36436508945288
 31
-0.0000000000000003
  0
LINE
  5
8B
330
1F
100
AcDbEntity
  8
0
 62
    98
420
   346117
370
    -3
100
AcDbLine
 10
186.4658014438827
 20
50.36436508945291
 30
-0.0000000000000035
 11
188.8328374043617
 21
27.76714516660299
 31
0.0000000000000129
  0
LINE
  5
8C
330
1F
100
AcDbEntity
  8
0
 62
    98
420
   346117
370
    -3
100
AcDbLine
 10
181.6247739699292
 20
21.9696078986804
 30
-0.000000000000007
 11
182.8036090891286
 21
47.41881711361724
 31
-0.0000000000000028
  0
LINE
  5
8D
330
1F
100
AcDbEntity
  8
0
 62
    98
420
   346117
370
    -3
100
AcDbLine
 10
181.6247739699292
 20
21.96960789868041
 30
0.0000000000000017
 11
188.8328374043617
 21
27.76714516660298
 31
-0.0000000000000011
  0
LINE
  5
8E
330
1F
100
AcDbEntity
  8
0
 62
    98
420
   346117
370
    -3
100
AcDbLine
 10
239.9620585777722
 20
44.81362940471787
 30
-0.0000000000000199
 11
242.6143941718968
 21
19.492759029134
 31
-0.0000000000000129
  0
LINE
  5
8F
330
1F
100
AcDbEntity
  8
0
 62
    98
420
   346117
370
    -3
100
AcDbLine
 10
236.2998662230182
 20
41.86808142888223
 30
-0.0000000000000061
 11
239.9620585777723
 21
44.81362940471788
 31
-0.000000000000004
  0
LINE
  5
90
330
1F
100
AcDbEntity
  8
0
 62
    98
420
   346117
370
    -3
100
AcDbLine
 10
234.9789457137987
 20
13.35147054079113
 30
0.0000000000000017
 11
236.2998662230182
 21
41.86808142888222
 31
0.0000000000000002
  0
LINE
  5
91
330
1F
100
AcDbEntity
  8
0
 62
    98
420
   346117
370
    -3
100
AcDbLine
 10
234.9789457137987
 20
13.35147054079111
 30
0.0000000000000095
 11
242.6143941718967
 21
19.49275902913397
 31
0.0000000000000019
  0
LINE
  5
92
330
1F
100
AcDbEntity
  8
0
 62
    98
420
   346117
370
    -3
100
AcDbLine
 10
235.4284774647307
 20
45.2840307339327
 30
0.0000000000000009
 11
239.9620585777723
 21
44.81362940471787
 31
-0.000000000000005
  0
LINE
  5
93
330
1F
100
AcDbEntity
  8
0
 62
    98
420
   346117
370
    -3
100
AcDbLine
 10
235.4284774647307
 20
45.28403073393271
 30
-0.0000000000000104
 11
231.7662851099767
 21
42.33848275809707
 31
0.0000000000000008
  0
LINE
  5
94
330
1F
100
AcDbEntity
  8
0
 62
    98
420
   346117
370
    -3
100
AcDbLine
 10
236.2998662230182
 20
41.86808142888221
 30
0.0000000000000017
 11
231.7662851099768
 21
42.33848275809705
 31
-0.0000000000000043
  0
LINE
  5
95
330
1F
100
AcDbEntity
  8
0
 62
    98
420
   346117
370
    -3
100
AcDbLine
 10
231.7662851099767
 20
42.33848275809707
 30
0.0
 11
230.5874499907772
 21
16.88927354316026
 31
0.0000000000000014
  0
LINE
  5
96
330
1F
100
AcDbEntity
  8
0
 62
    98
420
   346117
370
    -3
100
AcDbLine
 10
205.6070875226152
 20
26.02666024850812
 30
-0.0000000000000119
 11
221.0212633069562
 21
24.42729572917769
 31
-0.0000000000000059
  0
LINE
  5
97
330
1F
100
AcDbEntity
  8
0
 62
    98
420
   346117
370
    -3
100
AcDbLine
 10
188.8328374043617
 20
27.767145166603
 30
-0.0000000000000022
 11
205.6070875226152
 21
26.02666024850813
 31
-0.0000000000000001
  0
LINE
  5
98
330
1F
100
AcDbEntity
  8
0
 62
    98
420
   346117
370
    -3
100
AcDbLine
 10
198.3990240881827
 20
20.22912298058555
 30
0.0000000000000007
 11
181.6247739699292
 21
21.96960789868043
 31
-0.0000000000000087
  0
LINE
  5
99
330
1F
100
AcDbEntity
  8
0
 62
    98
420
   346117
370
    -3
100
AcDbLine
 10
213.8131998725238
 20
18.62975846125514
 30
0.0000000000000052
 11
198.3990240881827
 21
20.22912298058555
 31
0.0000000000000052
  0
LINE
  5
9A
330
1F
100
AcDbEntity
  8
0
 62
    98
420
   346117
370
    -3
100
AcDbLine
 10
230.5874499907773
 20
16.88927354316026
 30
0.0000000000000056
 11
213.8131998725238
 21
18.62975846125514
 31
0.0000000000000075
  0
LINE
  5
9B
330
1F
100
AcDbEntity
  8
0
 62
    98
420
   346117
370
    -3
100
AcDbLine
 10
221.0212633069562
 20
24.4272957291777
 30
0.0000000000000021
 11
230.8891861354861
 21
23.40340668883899
 31
0.0000000000000078
  0
LINE
  5
9C
330
1F
100
AcDbEntity
  8
0
 62
    98
420
   346117
370
    -3
100
AcDbLine
 10
197.2405328550867
 20
17.26718289457024
 30
-0.0000000000000037
 11
176.9491074668676
 21
19.37260755474098
 31
-0.0000000000000204
  0
LINE
  5
9D
330
1F
100
AcDbEntity
  8
0
 62
    98
420
   346117
370
    -3
100
AcDbLine
 10
210.6020550583792
 20
5.326656284413095
 30
-0.0000000000000173
 11
210.2906085891731
 21
12.8433728225332
 31
-0.0000000000000098
  0
LINE
  5
9E
330
1F
100
AcDbEntity
  8
0
 62
    98
420
   346117
370
    -3
100
AcDbLine
 10
194.876432804832
 20
14.4427373418637
 30
0.0000000000000017
 11
210.2906085891731
 21
12.84337282253327
 31
0.0000000000000067
  0
LINE
  5
9F
330
1F
100
AcDbEntity
  8
0
 62
    98
420
   346117
370
    -3
100
AcDbLine
 10
194.876432804832
 20
14.44273734186367
 30
0.0000000000000009
 11
195.1878792740381
 21
6.926020803743539
 31
0.0000000000000096
  0
LINE
  5
A0
330
1F
100
AcDbEntity
  8
0
 62
    98
420
   346117
370
    -3
100
AcDbLine
 10
195.1878792740381
 20
6.926020803743542
 30
0.0000000000000035
 11
210.6020550583791
 21
5.326656284413125
 31
-0.0000000000000086
  0
LINE
  5
A1
330
1F
100
AcDbEntity
  8
0
 62
    98
420
   346117
370
    -3
100
AcDbLine
 10
210.2906085891731
 20
12.84337282253323
 30
-0.0000000000000004
 11
212.1280223429276
 21
14.32122811763225
 31
-0.0000000000000099
  0
LINE
  5
A2
330
1F
100
AcDbEntity
  8
0
 62
    98
420
   346117
370
    -3
100
AcDbLine
 10
196.7138465585866
 20
15.92059263696267
 30
0.0000000000000013
 11
212.1280223429276
 21
14.32122811763226
 31
-0.0000000000000079
  0
LINE
  5
A3
330
1F
100
AcDbEntity
  8
0
 62
    98
420
   346117
370
    -3
100
AcDbLine
 10
196.7138465585866
 20
15.92059263696268
 30
0.0000000000000065
 11
194.876432804832
 21
14.4427373418637
 31
0.0000000000000072
  0
LINE
  5
A4
330
1F
100
AcDbEntity
  8
0
 62
    98
420
   346117
370
    -3
100
AcDbLine
 10
212.1280223429276
 20
14.32122811763224
 30
-0.0000000000000243
 11
213.8131998725238
 21
18.62975846125514
 31
-0.0000000000000143
  0
LINE
  5
A5
330
1F
100
AcDbEntity
  8
0
 62
    98
420
   346117
370
    -3
100
AcDbLine
 10
198.3990240881826
 20
20.22912298058557
 30
-0.0000000000000059
 11
196.7138465585866
 21
15.92059263696266
 31
-0.000000000000001
  0
LINE
  5
A6
330
1F
100
AcDbEntity
  8
0
 62
    98
420
   346117
370
    -3
100
AcDbLine
 10
213.8131998725238
 20
18.62975846125514
 30
0.0000000000000022
 11
213.6711144825037
 21
15.56235678810084
 31
0.0000000000000107
  0
LINE
  5
A7
330
1F
100
AcDbEntity
  8
0
 62
    98
420
   346117
370
    -3
100
AcDbLine
 10
234.9789457137987
 20
13.35147054079111
 30
0.0000000000000095
 11
213.6711144825037
 21
15.56235678810085
 31
-0.0000000000000018
  0
LINE
  5
A8
330
1F
100
AcDbEntity
  8
0
 62
    98
420
   346117
370
    -3
100
AcDbLine
 10
212.7289205449688
 20
28.80172071375768
 30
0.0000000000000078
 11
208.8591554825359
 21
25.68921936417349
 31
-0.0000000000000027
  0
LINE
  5
A9
330
1F
100
AcDbEntity
  8
0
 62
    98
420
   346117
370
    -3
100
AcDbLine
 10
223.7880656261483
 20
14.51260229872512
 30
-0.0000000000000095
 11
210.6020550583791
 21
5.326656284413089
 31
-0.0000000000000078
  0
LINE
  5
AA
330
1F
100
AcDbEntity
  8
0
 62
    98
420
   346117
370
    -3
100
AcDbLine
 10
228.2893250143477
 20
23.67314753788325
 30
0.000000000000001
 11
228.1430963293098
 21
27.2023561944273
 31
0.0000000000000126
  0
LINE
  5
AB
330
1F
100
AcDbEntity
  8
0
 62
    98
420
   346117
370
    -3
100
AcDbLine
 10
224.273331266877
 20
24.08985484484305
 30
-0.0000000000000084
 11
228.1430963293099
 21
27.20235619442723
 31
0.0000000000000017
  0
LINE
  5
AC
330
1F
100
AcDbEntity
  8
0
 62
    98
420
   346117
370
    -3
100
AcDbLine
 10
230.1485537019215
 20
-21.19907419466204
 30
-0.0000000000000139
 11
214.7343779175805
 21
-19.59970967533158
 31
-0.0000000000000107
  0
LINE
  5
AD
330
1F
100
AcDbEntity
  8
0
 62
    98
420
   346117
370
    -3
100
AcDbLine
 10
214.7343779175804
 20
-19.59970967533157
 30
-0.0000000000000035
 11
196.8044817604012
 21
-32.09045183692631
 31
-0.0000000000000016
  0
LINE
  5
AE
330
1F
100
AcDbEntity
  8
0
 62
    98
420
   346117
370
    -3
100
AcDbLine
 10
212.2186575447423
 20
-33.68981635625674
 30
-0.0000000000000104
 11
196.8044817604012
 21
-32.09045183692633
 31
-0.0000000000000119
  0
LINE
  5
AF
330
1F
100
AcDbEntity
  8
0
 62
    98
420
   346117
370
    -3
100
AcDbLine
 10
230.1485537019214
 20
-21.19907419466201
 30
-0.0000000000000139
 11
212.2186575447423
 21
-33.68981635625676
 31
-0.0000000000000017
  0
LINE
  5
B0
330
1F
100
AcDbEntity
  8
0
 62
    98
420
   346117
370
    -3
100
AcDbLine
 10
212.5498186784161
 20
-41.68234353633632
 30
-0.0000000000000104
 11
212.2186575447422
 21
-33.68981635625676
 31
-0.0000000000000113
  0
LINE
  5
B1
330
1F
100
AcDbEntity
  8
0
 62
    98
420
   346117
370
    -3
100
AcDbLine
 10
230.5571232526379
 20
-31.05984258504086
 30
-0.0000000000000139
 11
212.5498186784161
 21
-41.68234353633628
 31
-0.0000000000000237
  0
LINE
  5
B2
330
1F
100
AcDbEntity
  8
0
 62
    98
420
   346117
370
    -3
100
AcDbLine
 10
230.5571232526379
 20
-31.05984258504082
 30
0.0000000000000035
 11
230.1485537019215
 21
-21.19907419466202
 31
-0.0000000000000239
  0
LINE
  5
B3
330
1F
100
AcDbEntity
  8
0
 62
    98
420
   346117
370
    -3
100
AcDbLine
 10
196.8044817604012
 20
-32.09045183692631
 30
-0.0000000000000069
 11
197.1356428940751
 21
-40.08297901700585
 31
0.0000000000000033
  0
LINE
  5
B4
330
1F
100
AcDbEntity
  8
0
 62
    98
420
   346117
370
    -3
100
AcDbLine
 10
212.5498186784161
 20
-41.6823435363363
 30
-0.0000000000000035
 11
197.1356428940751
 21
-40.08297901700586
 31
-0.0000000000000067
  0
LINE
  5
B5
330
1F
100
AcDbEntity
  8
0
 62
    98
420
   346117
370
    -3
100
AcDbLine
 10
228.1430963293098
 20
27.20235619442724
 30
-0.0000000000000073
 11
231.051175030767
 21
26.90061590291869
 31
-0.0000000000000136
  0
LINE
  5
B6
330
1F
100
AcDbEntity
  8
0
 62
    98
420
   346117
370
    -3
100
AcDbLine
 10
241.9569511587533
 20
25.76903990178203
 30
-0.0000000000000079
 11
243.1039140023467
 21
25.65003180801827
 31
-0.0000000000000005
  0
LINE
  5
B7
330
1F
100
AcDbEntity
  8
0
 62
    98
420
   346117
370
    -3
100
AcDbLine
 10
243.1039140023467
 20
25.65003180801827
 30
-0.0000000000000178
 11
243.2950206899742
 21
25.80374135202371
 31
-0.0000000000000087
  0
LINE
  5
B8
330
1F
100
AcDbEntity
  8
0
 62
    98
420
   346117
370
    -3
100
AcDbLine
 10
197.9334567919936
 20
30.4870413650684
 30
0.0000000000000173
 11
197.7681028719319
 21
30.35404510016665
 31
-0.0000000000000035
  0
LINE
  5
B9
330
1F
100
AcDbEntity
  8
0
 62
    98
420
   346117
370
    -3
100
AcDbLine
 10
197.7681028719319
 20
30.35404510016664
 30
0.0000000000000004
 11
212.7289205449688
 21
28.80172071375769
 31
0.0000000000000061
  0
LINE
  5
BA
330
1F
100
AcDbEntity
  8
0
 62
    98
420
   346117
370
    -3
100
AcDbLine
 10
244.53945451732
 20
27.03014732778838
 30
0.0000000000000098
 11
247.9204299818392
 21
26.67933958598411
 31
0.0000000000000101
  0
LINE
  5
BB
330
1F
100
AcDbEntity
  8
0
 62
    98
420
   346117
370
    -3
100
AcDbLine
 10
163.4500130171109
 20
35.44393327666183
 30
-0.0000000000000095
 11
166.8309884816301
 21
35.09312553485757
 31
-0.0000000000000163
  0
LINE
  5
BC
330
1F
100
AcDbEntity
  8
0
 62
    98
420
   346117
370
    -3
100
AcDbLine
 10
173.4620016198533
 20
-10.11672205090001
 30
-0.0000000000000104
 11
163.4500130171109
 21
35.44393327666183
 31
-0.0000000000000026
  0
LINE
  5
BD
330
1F
100
AcDbEntity
  8
0
 62
    98
420
   346117
370
    -3
100
AcDbLine
 10
202.869518041436
 20
-27.85297281636347
 30
-0.0000000000000104
 11
199.8639231124927
 21
6.440789221403863
 31
-0.0000000000000142
  0
LINE
  5
BE
330
1F
100
AcDbEntity
  8
0
 62
    98
420
   346117
370
    -3
100
AcDbLine
 10
198.0789085621659
 20
26.80776004417764
 30
-0.0000000000000074
 11
197.7681028719319
 21
30.35404510016669
 31
-0.0000000000000052
  0
LINE
  5
BF
330
1F
100
AcDbEntity
  8
0
 62
    98
420
   346117
370
    -3
100
AcDbLine
 10
202.869518041436
 20
-27.8529728163635
 30
-0.0000000000000104
 11
202.8717275206042
 21
-27.86376324832261
 31
-0.0000000000000151
  0
LINE
  5
C0
330
1F
100
AcDbEntity
  8
0
 62
    98
420
   346117
370
    -3
100
AcDbLine
 10
242.8012921480607
 20
-32.33028932017687
 30
0.0
 11
230.5571232526379
 21
-31.05984258504087
 31
0.0000000000000021
  0
LINE
  5
C1
330
1F
100
AcDbEntity
  8
0
 62
    98
420
   346117
370
    -3
100
AcDbLine
 10
242.8525103320204
 20
-22.51722819611918
 30
0.0000000000000069
 11
242.8012921480606
 21
-32.33028932017685
 31
0.0000000000000058
  0
LINE
  5
C2
330
1F
100
AcDbEntity
  8
0
 62
    98
420
   346117
370
    -3
100
AcDbLine
 10
243.1039140023467
 20
25.65003180801834
 30
-0.0000000000000053
 11
242.8525103320203
 21
-22.51722819611918
 31
-0.0000000000000026
  0
LINE
  5
C3
330
1F
100
AcDbEntity
  8
0
 62
    98
420
   346117
370
    -3
100
AcDbLine
 10
242.8146080447667
 20
-32.3223440385358
 30
0.0000000000000035
 11
242.8012921480607
 21
-32.33028932017689
 31
-0.0000000000000048
  0
SPLINE
  5
C4
330
1F
100
AcDbEntity
  8
0
 62
    98
420
   346117
370
    -3
100
AcDbSpline
210
0.0
220
0.0
230
1.0
 70
     8
 71
     3
 72
    10
 73
     6
 74
     0
 42
0.000000001
 43
0.00000001
 40
0.0458941340125418
 40
0.0458941340125418
 40
0.0458941340125418
 40
0.0458941340125418
 40
0.066408823719217
 40
0.066408823719217
 40
0.075011354007214
 40
0.075011354007214
 40
0.075011354007214
 40
0.075011354007214
 10
242.8146080447667
 20
-32.32234403853582
 30
-0.0000000000000347
 10
243.1972462096415
 20
-25.37422957051582
 30
-0.0000000000000139
 10
243.4299599593197
 20
-18.16040410088001
 30
-0.0000000000000139
 10
243.5353610723924
 20
-8.069380164390326
 30
-0.0000000000000052
 10
243.5390331688611
 20
-5.10585522370885
 30
-0.0000000000000243
 10
243.5165278429595
 20
-2.186235242987375
 30
-0.0000000000000191
  0
SPLINE
  5
C5
330
1F
100
AcDbEntity
  8
0
 62
    98
420
   346117
370
    -3
100
AcDbSpline
210
0.0
220
0.0
230
1.0
 70
    12
 71
     2
 72
     6
 73
     3
 74
     0
 42
0.000000001
 43
0.00000001
 40
6.617394675263765
 40
6.617394675263765
 40
6.617394675263765
 40
6.702171141951215
 40
6.702171141951215
 40
6.702171141951215
 10
243.5165278429595
 20
-2.186235242987371
 30
-0.000000000000033
 41
10.66057561699752
 10
243.4144110790272
 20
11.06139092550358
 30
-0.000000000000026
 41
10.26601993243078
 10
243.2950206899735
 20
25.80374135202387
 30
-0.0000000000000458
 41
9.859769271482982
  0
ELLIPSE
  5
C6
330
1F
100
AcDbEntity
  8
0
 62
    98
420
   346117
370
    -3
100
AcDbEllipse
 10
210.3589987614404
 20
-12.16729354122204
 30
-0.0000000000000069
 11
-37.01858974908921
 21
-4.002334620570103
 31
-2.356739526142070E-15
210
-6.889501335176984E-17
220
4.838593652060404E-17
230
1.0
 40
0.4213367627752357
 41
3.512602613413256
 42
3.558947603036541
  0
LINE
  5
C7
330
1F
100
AcDbEntity
  8
0
 62
    98
420
   346117
370
    -3
100
AcDbLine
 10
244.1199617606885
 20
-15.67030837087504
 30
-0.0000000000000035
 11
244.53945451732
 21
27.0301473277884
 31
-0.0000000000000058
  0
LINE
  5
C8
330
1F
100
AcDbEntity
  8
0
 62
    98
420
   346117
370
    -3
100
AcDbLine
 10
246.5924024515237
 20
-39.35258764274599
 30
-0.0000000000000139
 11
242.8118614975174
 21
-38.96032125430531
 31
-0.0000000000000058
  0
ELLIPSE
  5
C9
330
1F
100
AcDbEntity
  8
0
 62
    98
420
   346117
370
    -3
100
AcDbEllipse
 10
-25.93272575199483
 20
40.76176335622909
 30
0.0
 11
-215.1148463930692
 21
209.1066781843331
 31
-1.665334536937735E-14
210
1.111734446859956E-18
220
-7.849675068790313E-17
230
-1.0
 40
0.8083691836631502
 41
2.481589776768837
 42
2.563521777591266
  0
ELLIPSE
  5
CA
330
1F
100
AcDbEntity
  8
0
 62
    98
420
   346117
370
    -3
100
AcDbEllipse
 10
-29.4500752114374
 20
43.83858957666569
 30
0.0000000000000035
 11
215.1148463930692
 21
-209.1066781843331
 31
1.665334536937735E-14
210
-1.111734446859956E-18
220
7.849675068790313E-17
230
1.0
 40
0.8083691836631502
 41
0.567724821363915
 42
0.6564874808649092
  0
ELLIPSE
  5
CB
330
1F
100
AcDbEntity
  8
0
 62
    98
420
   346117
370
    -3
100
AcDbEllipse
 10
440.4374777972436
 20
-7.628495511020877
 30
-0.0000000000000035
 11
-215.1148463930692
 21
209.1066781843331
 31
-1.665334536937735E-14
210
1.111734446859956E-18
220
-7.849675068790313E-17
230
-1.0
 40
0.8083691836631502
 41
5.315019636243324
 42
5.396951637065759
  0
LINE
  5
CC
330
1F
100
AcDbEntity
  8
0
 62
    98
420
   346117
370
    -3
100
AcDbLine
 10
179.2485007132998
 20
-32.36502966103365
 30
-0.0000000000000139
 11
183.029041667306
 21
-32.75729604947431
 31
-0.0000000000000185
  0
ELLIPSE
  5
CD
330
1F
100
AcDbEntity
  8
0
 62
    98
420
   346117
370
    -3
100
AcDbEllipse
 10
443.3617768061613
 20
-5.220050406152012
 30
-0.0000000000000347
 11
215.1148463930692
 21
-209.1066781843331
 31
1.665334536937735E-14
210
-1.111734446859956E-18
220
7.849675068790313E-17
230
1.0
 40
0.8083691836631502
 41
4.031341719659673
 42
4.120104379160668
  0
SPLINE
  5
CE
330
1F
100
AcDbEntity
  8
0
 62
    98
420
   346117
370
    -3
100
AcDbSpline
210
0.0
220
0.0
230
1.0
 70
     8
 71
     3
 72
    14
 73
    10
 74
     0
 42
0.000000001
 43
0.00000001
 40
0.076632641360679
 40
0.076632641360679
 40
0.076632641360679
 40
0.076632641360679
 40
0.0871440846133971
 40
0.0871440846133971
 40
0.0976555278661152
 40
0.0976555278661152
 40
0.1053484979515541
 40
0.1053484979515541
 40
0.107538921003578
 40
0.107538921003578
 40
0.107538921003578
 40
0.107538921003578
 10
246.5924024515236
 20
-39.35258764274599
 30
-0.0000000000000069
 10
245.4111166565814
 20
-42.58629918751949
 30
-0.0000000000000382
 10
243.8794816148411
 20
-46.06524738542831
 30
-0.0000000000000208
 10
240.2564685119026
 20
-52.7551364560952
 30
-0.0000000000000243
 10
238.1626506633584
 20
-55.9649374270365
 30
-0.0000000000000069
 10
234.4555301277014
 20
-60.76660401711868
 30
-0.0000000000000347
 10
232.6085876596339
 20
-62.89302105346533
 30
-0.0000000000000069
 10
230.0421573151617
 20
-65.41033467123212
 30
-0.0000000000000208
 10
229.4615887988037
 20
-65.95525657686308
 30
-0.0000000000000069
 10
228.8735488743572
 20
-66.48239740590172
 30
0.0
  0
SPLINE
  5
CF
330
1F
100
AcDbEntity
  8
0
 62
    98
420
   346117
370
    -3
100
AcDbSpline
210
0.0
220
0.0
230
1.0
 70
     8
 71
     3
 72
    10
 73
     6
 74
     0
 42
0.000000001
 43
0.00000001
 40
0.1614826773475763
 40
0.1614826773475763
 40
0.1614826773475763
 40
0.1614826773475763
 40
0.1636731003995488
 40
0.1636731003995488
 40
0.1652680346409733
 40
0.1652680346409733
 40
0.1652680346409733
 40
0.1652680346409733
 10
184.3867633264659
 20
-61.86647843755574
 30
-0.0000000000000139
 10
184.0541523247255
 20
-61.24381148721015
 30
-0.0000000000000416
 10
183.7363981688065
 20
-60.60568022484908
 30
-0.0000000000000208
 10
183.2164564161403
 20
-59.48560582465521
 30
-0.0000000000000104
 10
183.0066856694536
 20
-59.00812909185923
 30
-0.0000000000000139
 10
182.8055419940085
 20
-58.52800080505786
 30
-0.0000000000000347
  0
SPLINE
  5
D0
330
1F
100
AcDbEntity
  8
0
 62
    98
420
   346117
370
    -3
100
AcDbSpline
210
0.0
220
0.0
230
1.0
 70
     8
 71
     3
 72
    12
 73
     8
 74
     0
 42
0.000000001
 43
0.00000001
 40
0.1652680346409733
 40
0.1652680346409733
 40
0.1652680346409733
 40
0.1652680346409733
 40
0.1713660704849877
 40
0.1713660704849877
 40
0.1818775137377058
 40
0.1818775137377058
 40
0.1923889569904239
 40
0.1923889569904239
 40
0.1923889569904239
 40
0.1923889569904239
 10
182.8055419940085
 20
-58.52800080505786
 30
-0.0000000000000347
 10
182.0401430235837
 20
-56.69033056841479
 30
-0.0000000000000035
 10
181.4111596613177
 20
-54.80836975072139
 30
-0.0000000000000069
 10
180.0838497016722
 20
-49.93872007471206
 30
-0.0000000000000104
 10
179.4783607094477
 20
-46.44884084020921
 30
-0.0000000000000243
 10
178.9239450973792
 20
-39.32550457377321
 30
-0.0000000000000139
 10
178.9721935847185
 20
-35.69264118398169
 30
-0.0000000000000312
 10
179.2485007132998
 20
-32.36502966103365
 30
-0.0000000000000139
  0
SPLINE
  5
D1
330
1F
100
AcDbEntity
  8
0
 62
    98
420
   346117
370
    -3
100
AcDbSpline
210
0.0
220
0.0
230
1.0
 70
     8
 71
     3
 72
    16
 73
    12
 74
     0
 42
0.000000001
 43
0.00000001
 40
0.0164654948064584
 40
0.0164654948064584
 40
0.0164654948064584
 40
0.0164654948064584
 40
0.0189433074546273
 40
0.0189433074546273
 40
0.0257411834236019
 40
0.0257411834236019
 40
0.0325390593925766
 40
0.0325390593925766
 40
0.0418796410102076
 40
0.0418796410102076
 40
0.0512202226278386
 40
0.0512202226278386
 40
0.0512202226278386
 40
0.0512202226278386
 10
220.8869284743402
 20
-67.50895563712686
 30
-0.0000000000000069
 10
221.6320249250577
 20
-67.06144260464716
 30
-0.0000000000000139
 10
222.3472143519388
 20
-66.59444943023165
 30
-0.0000000000000347
 10
224.859029648605
 20
-64.84284634271854
 30
-0.0000000000000278
 10
226.762146224575
 20
-63.26467736906841
 30
-0.0000000000000347
 10
230.3006464412544
 20
-59.80987485264045
 30
-0.0000000000000347
 10
231.9381509708715
 20
-57.93553853665248
 30
-0.0000000000000416
 10
235.2397029791932
 20
-53.69020919598201
 30
-0.0000000000000382
 10
237.1119098781267
 20
-50.84484809459708
 30
-0.0000000000000312
 10
240.3616568602548
 20
-44.91335901160623
 30
-0.0000000000000035
 10
241.7414493133678
 20
-41.82830030514708
 30
-0.0000000000000173
 10
242.8118614975174
 20
-38.96032125430533
 30
-0.0000000000000208
  0
SPLINE
  5
D2
330
1F
100
AcDbEntity
  8
0
 62
    98
420
   346117
370
    -3
100
AcDbSpline
210
0.0
220
0.0
230
1.0
 70
     8
 71
     3
 72
    18
 73
    14
 74
     0
 42
0.000000001
 43
0.00000001
 40
0.1895332915223221
 40
0.1895332915223221
 40
0.1895332915223221
 40
0.1895332915223221
 40
0.1988738731399531
 40
0.1988738731399531
 40
0.2082144547575841
 40
0.2082144547575841
 40
0.2094886446665432
 40
0.2094886446665432
 40
0.2094886446665432
 40
0.2136435296665268
 40
0.2136435296665268
 40
0.2136435296665268
 40
0.21377186135044
 40
0.21377186135044
 40
0.21377186135044
 40
0.21377186135044
 10
183.029041667306
 20
-32.75729604947431
 30
-0.0000000000000451
 10
182.8056903270613
 20
-35.71316556415988
 30
-0.0000000000000069
 10
182.7835030207584
 20
-38.93908846818924
 30
-0.0000000000000139
 10
183.3108365206713
 20
-45.26248488337549
 30
-0.0000000000000312
 10
183.8629725752527
 20
-48.35939418018703
 30
-0.0000000000000173
 10
184.7239978319098
 20
-51.46633729324683
 30
-0.0000000000000347
 10
184.8340570109866
 20
-51.84405576985469
 30
-0.0000000000000104
 10
184.9510043277254
 20
-52.22481215926333
 30
-0.0000000000000312
 10
185.3323467388451
 20
-53.46638454959415
 30
-0.0000000000000104
 10
185.7698581836254
 20
-54.68498017903554
 30
0.0
 10
186.2664184713209
 20
-55.87063703929494
 30
-0.0000000000000173
 10
186.2817556991586
 20
-55.90725835165881
 30
-0.0000000000000139
 10
186.2971513285728
 20
-55.94385290543747
 30
-0.0000000000000069
 10
186.312605173034
 20
-55.98042042372549
 30
-0.0000000000000173
  0
SPLINE
  5
D3
330
1F
100
AcDbEntity
  8
0
 62
    98
420
   346117
370
    -3
100
AcDbSpline
210
0.0
220
0.0
230
1.0
 70
     8
 71
     3
 72
     8
 73
     4
 74
     0
 42
0.000000001
 43
0.00000001
 40
0.21377186135044
 40
0.21377186135044
 40
0.21377186135044
 40
0.21377186135044
 40
0.2183598501950151
 40
0.2183598501950151
 40
0.2183598501950151
 40
0.2183598501950151
 10
186.312605173034
 20
-55.98042042372549
 30
-0.0000000000000173
 10
186.8651053482327
 20
-57.28774145475531
 30
-0.0000000000000312
 10
187.492341280229
 20
-58.56032917342496
 30
-0.0000000000000451
 10
188.1975581794148
 20
-59.77915391250114
 30
-0.0000000000000104
  0
SPLINE
  5
D4
330
1F
100
AcDbEntity
  8
0
 62
    98
420
   346117
370
    -3
100
AcDbSpline
210
1.394945770867588E-9
220
5.277920468565334E-10
230
1.0
 70
     8
 71
     3
 72
     8
 73
     4
 74
     0
 42
0.000000001
 43
0.00000001
 40
-0.0047151970311655
 40
-0.0047151970311655
 40
-0.0047151970311655
 40
-0.0047151970311655
 40
-0.0045778038989338
 40
-0.0045778038989338
 40
-0.0045778038989338
 40
-0.0045778038989338
 10
188.1975581794267
 20
-59.77915391252179
 30
-0.0000000000000382
 10
188.2092666638704
 20
-59.81015840752701
 30
-0.0000000000000069
 10
188.2209920675469
 20
-59.84115858111213
 30
-0.0000000000000173
 10
188.2327341077611
 20
-59.87215618490065
 30
-0.0000000000000208
  0
LINE
  5
D5
330
1F
100
AcDbEntity
  8
0
 62
    98
420
   346117
370
    -3
100
AcDbLine
 10
188.1975581794131
 20
-59.77915391253187
 30
-0.0000000000000243
 11
188.1815906658402
 21
-59.790946381152
 31
-0.0000000000000186
  0
LINE
  5
D6
330
1F
100
AcDbEntity
  8
0
 62
    98
420
   346117
370
    -3
100
AcDbLine
 10
244.2890352593765
 20
-66.63577856465915
 30
-0.0000000000000069
 11
246.7593175421255
 21
-53.82887653925772
 31
-0.0000000000000098
  0
LINE
  5
D7
330
1F
100
AcDbEntity
  8
0
 62
    98
420
   346117
370
    -3
100
AcDbLine
 10
183.7043866070189
 20
-60.6461790581962
 30
0.0
 11
188.8548721136047
 21
-72.62914657149915
 31
-0.0000000000000043
  0
LINE
  5
D8
330
1F
100
AcDbEntity
  8
0
 62
    98
420
   346117
370
    -3
100
AcDbLine
 10
251.2648661354186
 20
-10.47866169721531
 30
0.0000000000000017
 11
252.0425415169672
 21
35.03179851401841
 31
-0.0000000000000058
  0
SPLINE
  5
D9
330
1F
100
AcDbEntity
  8
0
 62
    98
420
   346117
370
    -3
100
AcDbSpline
210
0.0
220
0.0
230
1.0
 70
     8
 71
     3
 72
     8
 73
     4
 74
     0
 42
0.000000001
 43
0.00000001
 40
0.044636884355318
 40
0.044636884355318
 40
0.044636884355318
 40
0.044636884355318
 40
0.0470883600020419
 40
0.0470883600020419
 40
0.0470883600020419
 40
0.0470883600020419
 10
182.8215276839356
 20
-58.56619519284349
 30
-0.0000000000000069
 10
183.1127661587045
 20
-59.26108261269473
 30
-0.0000000000000486
 10
183.4070561098261
 20
-59.95441868196175
 30
-0.0000000000000069
 10
183.7043868781827
 20
-60.64617968907782
 30
0.0000000000000069
  0
SPLINE
  5
DA
330
1F
100
AcDbEntity
  8
0
 62
    98
420
   346117
370
    -3
100
AcDbSpline
210
0.0
220
0.0
230
1.0
 70
     8
 71
     3
 72
    10
 73
     6
 74
     0
 42
0.000000001
 43
0.00000001
 40
0.0000051624836517
 40
0.0000051624836517
 40
0.0000051624836517
 40
0.0000051624836517
 40
0.023537054639186
 40
0.023537054639186
 40
0.0379797311309939
 40
0.0379797311309939
 40
0.0379797311309939
 40
0.0379797311309939
 10
246.7593171857588
 20
-53.8288783868006
 30
-0.0000000000000243
 10
248.1283944395613
 20
-46.73105040526497
 30
-0.0000000000000104
 10
249.1926545820497
 20
-39.55130872044471
 30
0.0000000000000069
 10
250.4078158914241
 20
-27.87415932177436
 30
-0.0000000000000069
 10
250.7523109427181
 20
-23.41596464370457
 30
-0.0000000000000208
 10
250.9784489972486
 20
-18.94630071780034
 30
-0.0000000000000035
  0
SPLINE
  5
DB
330
1F
100
AcDbEntity
  8
0
 62
    98
420
   346117
370
    -3
100
AcDbSpline
210
0.0
220
0.0
230
1.0
 70
     8
 71
     3
 72
     8
 73
     4
 74
     0
 42
0.000000001
 43
0.00000001
 40
0.0435216704402471
 40
0.0435216704402471
 40
0.0435216704402471
 40
0.0435216704402471
 40
0.0470869322388145
 40
0.0470869322388145
 40
0.0470869322388145
 40
0.0470869322388145
 10
251.1864413188166
 20
-13.79628848642837
 30
-0.0000000000000069
 10
251.2198145685858
 20
-12.69096609108773
 30
-0.0000000000000295
 10
251.2459597903704
 20
-11.58507347194173
 30
-0.0000000000000173
 10
251.2648654986305
 20
-10.47869896263015
 30
-0.0000000000000382
  0
LINE
  5
DC
330
1F
100
AcDbEntity
  8
0
 62
    98
420
   346117
370
    -3
100
AcDbLine
 10
230.1485537019214
 20
-21.19907419466202
 30
-0.0000000000000208
 11
214.7343779175804
 21
-19.59970967533157
 31
-0.0000000000000062
  0
LINE
  5
DD
330
1F
100
AcDbEntity
  8
0
 62
    98
420
   346117
370
    -3
100
AcDbLine
 10
230.5571232526379
 20
-31.05984258504084
 30
-0.0000000000000035
 11
230.1485537019215
 21
-21.19907419466202
 31
-0.0000000000000221
  0
ELLIPSE
  5
E0
330
1F
100
AcDbEntity
  8
Hidden
370
    -3
100
AcDbEllipse
 10
216.1159627939271
 20
-65.41488773876284
 30
0.0
 11
-24.21050100511303
 21
-2.617563959375173
 31
-1.541329506423356E-15
210
-6.889501335177003E-17
220
4.838593652060404E-17
230
1.0
 40
0.4213367627752357
 41
6.027521643930134
 42
10.17767952969363
  0
ELLIPSE
  5
E1
330
1F
100
AcDbEntity
  8
Hidden
370
    -3
100
AcDbEllipse
 10
222.4629763521851
 20
-66.0734495996636
 30
-0.0000000000000069
 11
1.988412230085247
 21
0.2149809369394194
 31
1.265896331726552E-16
210
6.889501335177002E-17
220
-4.838593652060402E-17
230
-1.0
 40
0.4213367627752356
 41
5.653334718565819
 42
8.230522336518177
  0
ELLIPSE
  5
E2
330
1F
100
AcDbEntity
  8
Hidden
370
    -3
100
AcDbEllipse
 10
210.0613999261676
 20
-67.46127515365885
 30
0.0000000000000069
 11
-1.988412230085258
 21
-0.2149809369394206
 31
-1.265896331726559E-16
210
-6.889501335177002E-17
220
4.838593652060402E-17
230
1.0
 40
0.4213367627752356
 41
0.0
 42
6.283185307179586
  0
ELLIPSE
  5
E3
330
1F
100
AcDbEntity
  8
Hidden
370
    -3
100
AcDbEllipse
 10
222.7554270426838
 20
-68.77839887546038
 30
0.0000000000000069
 11
-1.988412230085247
 21
-0.2149809369394194
 31
-1.265896331726552E-16
210
-6.889501335177002E-17
220
4.838593652060402E-17
230
1.0
 40
0.4213367627752356
 41
0.0
 42
6.283185307179586
  0
ELLIPSE
  5
E4
330
1F
100
AcDbEntity
  8
Hidden
370
    -3
100
AcDbEllipse
 10
215.1819473334511
 20
-56.77594611380196
 30
-0.0000000000000104
 11
27.00264979829321
 21
2.91944239008992
 31
1.719087964224130E-15
210
6.889501335177002E-17
220
-4.838593652060402E-17
230
-1.0
 40
0.4213367627752357
 41
2.990215269027075
 42
3.135629475034145
  0
ELLIPSE
  5
E5
330
1F
100
AcDbEntity
  8
Hidden
370
    -3
100
AcDbEllipse
 10
215.1819473334511
 20
-56.77594611380196
 30
-0.0000000000000104
 11
27.00264979829321
 21
2.91944239008992
 31
1.719087964224130E-15
210
6.889501335177002E-17
220
-4.838593652060402E-17
230
-1.0
 40
0.4213367627752357
 41
5.780860520940617
 42
7.686848620073935
  0
SPLINE
  5
E6
330
1F
100
AcDbEntity
  8
Hidden
370
    -3
100
AcDbSpline
210
0.0
220
0.0
230
1.0
 70
     8
 71
     3
 72
    11
 73
     7
 74
     0
 42
0.000000001
 43
0.00000001
 40
0.0
 40
0.0
 40
0.0
 40
0.0
 40
0.0006963061403848
 40
0.0006963061403848
 40
0.0006963061403848
 40
0.0018529974014907
 40
0.0018529974014907
 40
0.0018529974014907
 40
0.0018529974014907
 10
188.6735857706197
 20
-61.37768473676322
 30
-0.0000000000000104
 10
188.7447292709174
 20
-61.52814747014379
 30
-0.0000000000000069
 10
188.8203034135332
 20
-61.68217259554012
 30
-0.0000000000000382
 10
188.9003455574641
 20
-61.83931154631693
 30
-0.0000000000000069
 10
189.0333101302521
 20
-62.10034795043256
 30
-0.0000000000000347
 10
189.1760259833724
 20
-62.36490273787897
 30
-0.0000000000000347
 10
189.327669135853
 20
-62.63086638175955
 30
-0.0000000000000347
  0
SPLINE
  5
E7
330
1F
100
AcDbEntity
  8
Hidden
370
    -3
100
AcDbSpline
210
1.570833251779143E-10
220
6.456649114598337E-11
230
1.0
 70
     8
 71
     3
 72
     8
 73
     4
 74
     0
 42
0.000000001
 43
0.00000001
 40
0.0024940519559876
 40
0.0024940519559876
 40
0.0024940519559876
 40
0.0024940519559876
 40
0.0031982854450919
 40
0.0031982854450919
 40
0.0031982854450919
 40
0.0031982854450919
 10
189.3276691350992
 20
-62.63086638047302
 30
-0.0000000000000416
 10
189.2628425304789
 20
-62.4737950409853
 30
0.0
 10
189.198220666494
 20
-62.31660668043521
 30
-0.0000000000000347
 10
189.1338093648885
 20
-62.15933388910395
 30
-0.0000000000000347
  0
SPLINE
  5
E8
330
1F
100
AcDbEntity
  8
Hidden
370
    -3
100
AcDbSpline
210
0.0
220
0.0
230
1.0
 70
     8
 71
     3
 72
     8
 73
     4
 74
     0
 42
0.000000001
 43
0.00000001
 40
0.0031982854450919
 40
0.0031982854450919
 40
0.0031982854450919
 40
0.0031982854450919
 40
0.0067297620003086
 40
0.0067297620003086
 40
0.0067297620003086
 40
0.0067297620003086
 10
189.1338093648885
 20
-62.15933388910395
 30
-0.0000000000000347
 10
188.8108143947571
 20
-61.37066408606462
 30
-0.0000000000000139
 10
188.4931321775946
 20
-60.57985681678885
 30
-0.0000000000000278
 10
188.1815906658404
 20
-59.79094638115215
 30
-0.0000000000000035
  0
ELLIPSE
  5
E9
330
1F
100
AcDbEntity
  8
Hidden
370
    -3
100
AcDbEllipse
 10
216.4084134844258
 20
-68.11983701455965
 30
0.0
 11
27.94861643062039
 21
3.021717355941646
 31
1.779311677983291E-15
210
6.889501335177003E-17
220
-4.838593652060404E-17
230
-1.0
 40
0.4213367627752357
 41
3.012714333838951
 42
6.411993690780395
  0
ELLIPSE
  5
EA
330
1F
100
AcDbEntity
  8
Hidden
370
    -3
100
AcDbEllipse
 10
215.0458297325862
 20
-55.51696052120511
 30
-0.0000000000000173
 11
-31.79082884435238
 21
-3.437125394640422
 31
-2.023921046537065E-15
210
-6.889501335177002E-17
220
4.838593652060402E-17
230
1.0
 40
0.4213367627752357
 41
3.012783556953759
 42
6.411994065857234
  0
SPLINE
  5
EB
330
1F
100
AcDbEntity
  8
Hidden
370
    -3
100
AcDbSpline
210
0.0
220
0.0
230
1.0
 70
     8
 71
     3
 72
    12
 73
     8
 74
     0
 42
0.000000001
 43
0.00000001
 40
-0.0142781257947999
 40
-0.0142781257947999
 40
-0.0142781257947999
 40
-0.0142781257947999
 40
-0.0132978432990935
 40
-0.0132978432990935
 40
-0.0121279661168084
 40
-0.0121279661168084
 40
-0.0109433119053149
 40
-0.0109433119053149
 40
-0.0109433119053149
 40
-0.0109433119053149
 10
246.9425972929181
 20
-14.79081348772014
 30
-0.0000000000000035
 10
246.9589716420289
 20
-14.52883356756821
 30
-0.0000000000000312
 10
246.9804465432938
 20
-14.29209110670795
 30
-0.000000000000033
 10
247.0349081396569
 20
-13.84525213614211
 30
0.0000000000000087
 10
247.0686757086614
 20
-13.65357125003272
 30
-0.0000000000000139
 10
247.1352438966493
 20
-13.38755972151901
 30
-0.0000000000000139
 10
247.1673725002843
 20
-13.31669784461329
 30
-0.000000000000026
 10
247.1936128729251
 20
-13.31202833017084
 30
-0.0000000000000087
  0
SPLINE
  5
EC
330
1F
100
AcDbEntity
  8
Hidden
370
    -3
100
AcDbSpline
210
0.0
220
0.0
230
1.0
 70
     8
 71
     3
 72
    20
 73
    16
 74
     0
 42
0.000000001
 43
0.00000001
 40
-0.0109433119053149
 40
-0.0109433119053149
 40
-0.0109433119053149
 40
-0.0109433119053149
 40
-0.0107371208728955
 40
-0.0107371208728955
 40
-0.0099960329557533
 40
-0.0099960329557533
 40
-0.0096250981581141
 40
-0.0096250981581141
 40
-0.0093566671918995
 40
-0.0093566671918995
 40
-0.0090842398635594
 40
-0.0090842398635594
 40
-0.008694799092519
 40
-0.008694799092519
 40
-0.0081994603525453
 40
-0.0081994603525453
 40
-0.0081994603525453
 40
-0.0081994603525453
 10
247.1936128729251
 20
-13.31202833017084
 30
-0.0000000000000087
 10
247.1981687563885
 20
-13.31121462137761
 30
-0.0000000000000278
 10
247.2025555926044
 20
-13.31240694558395
 30
-0.0000000000000312
 10
247.2217788549308
 20
-13.32717480295587
 30
-0.0000000000000069
 10
247.2341073611021
 20
-13.36475780623011
 30
-0.0000000000000087
 10
247.2476167924326
 20
-13.45952396345845
 30
-0.0000000000000312
 10
247.2512890064871
 20
-13.49749904673786
 30
0.0
 10
247.2561157799189
 20
-13.57373599702145
 30
-0.0000000000000156
 10
247.2576843119878
 20
-13.60899045693045
 30
-0.0000000000000156
 10
247.2599131579696
 20
-13.68644503500791
 30
-0.000000000000026
 10
247.2605591284965
 20
-13.72872502538535
 30
-0.0000000000000191
 10
247.2609784899021
 20
-13.83920185789539
 30
-0.0000000000000191
 10
247.2602566441167
 20
-13.91071688562111
 30
-0.000000000000033
 10
247.2564963093421
 20
-14.08744313503942
 30
-0.000000000000033
 10
247.2528737896764
 20
-14.19627741551093
 30
-0.0000000000000173
 10
247.2479280638032
 20
-14.31428341638094
 30
-0.0000000000000347
  0
SPLINE
  5
ED
330
1F
100
AcDbEntity
  8
Hidden
370
    -3
100
AcDbSpline
210
0.0
220
0.0
230
1.0
 70
     8
 71
     3
 72
    14
 73
    10
 74
     0
 42
0.000000001
 43
0.00000001
 40
-0.0081994603525453
 40
-0.0081994603525453
 40
-0.0081994603525453
 40
-0.0081994603525453
 40
-0.0078394211387655
 40
-0.0078394211387655
 40
-0.006783891773892
 40
-0.006783891773892
 40
-0.005717115269886
 40
-0.005717115269886
 40
-0.004712245669596
 40
-0.004712245669596
 40
-0.004712245669596
 40
-0.004712245669596
 10
247.2479280638032
 20
-14.31428341638094
 30
-0.0000000000000347
 10
247.2443187333024
 20
-14.40005240295107
 30
-0.0000000000000104
 10
247.2400142923394
 20
-14.49066812047318
 30
0.0
 10
247.2206048813354
 20
-14.8648930229986
 30
-0.0000000000000173
 10
247.2012908363599
 20
-15.17317296000017
 30
-0.0000000000000173
 10
247.1596170222993
 20
-15.82245009346807
 30
-0.0000000000000069
 10
247.137517092714
 20
-16.16034098124146
 30
-0.0000000000000382
 10
247.0983009973736
 20
-16.80728179615177
 30
-0.0000000000000208
 10
247.0813785341075
 20
-17.11102030108453
 30
-0.0000000000000208
 10
247.0676779302923
 20
-17.39145965270538
 30
-0.0000000000000382
  0
SPLINE
  5
EE
330
1F
100
AcDbEntity
  8
Hidden
370
    -3
100
AcDbSpline
210
0.0
220
0.0
230
1.0
 70
     8
 71
     3
 72
    14
 73
    10
 74
     0
 42
0.000000001
 43
0.00000001
 40
-0.004712245669596
 40
-0.004712245669596
 40
-0.004712245669596
 40
-0.004712245669596
 40
-0.0046291086022227
 40
-0.0046291086022227
 40
-0.0035363493714083
 40
-0.0035363493714083
 40
-0.0024689271117374
 40
-0.0024689271117374
 40
-0.0018631357852779
 40
-0.0018631357852779
 40
-0.0018631357852779
 40
-0.0018631357852779
 10
247.0676779302923
 20
-17.39145965270538
 30
-0.0000000000000382
 10
247.0665470754326
 20
-17.41466172414984
 30
-0.0000000000000278
 10
247.0654358401238
 20
-17.43770417633751
 30
-0.0000000000000312
 10
247.0500396241673
 20
-17.76125647581282
 30
-0.0000000000000173
 10
247.0398570612616
 20
-18.02852827445282
 30
-0.0000000000000173
 10
247.0261918708187
 20
-18.46346530963404
 30
-0.0000000000000416
 10
247.0225932571299
 20
-18.62974256435819
 30
-0.0000000000000069
 10
247.0183011610704
 20
-18.80148098316901
 30
-0.0000000000000208
 10
247.0170128385608
 20
-18.84435495300776
 30
-0.0000000000000139
 10
247.0155818258353
 20
-18.86831050809591
 30
-0.0000000000000104
  0
SPLINE
  5
EF
330
1F
100
AcDbEntity
  8
Hidden
370
    -3
100
AcDbSpline
210
0.0
220
0.0
230
1.0
 70
     8
 71
     3
 72
    12
 73
     8
 74
     0
 42
0.000000001
 43
0.00000001
 40
-0.0018631357852779
 40
-0.0018631357852779
 40
-0.0018631357852779
 40
-0.0018631357852779
 40
-0.0017472632577271
 40
-0.0016893269939517
 40
-0.0016313907301763
 40
-0.0015734544664009
 40
-0.0014575819388501
 40
-0.0014575819388501
 40
-0.0014575819388501
 40
-0.0014575819388501
 10
247.0155818258353
 20
-18.86831050809591
 30
-0.0000000000000104
 10
247.0154446706811
 20
-18.87054743320866
 30
-0.0000000000000139
 10
247.015226635914
 20
-18.8739006829748
 30
-0.0000000000000035
 10
247.0148740852357
 20
-18.87836502247778
 30
-0.0000000000000278
 10
247.014579324407
 20
-18.88171318982924
 30
-0.0000000000000243
 10
247.0140524402325
 20
-18.88613093352368
 30
-0.0000000000000347
 10
247.0136821679075
 20
-18.88963869437104
 30
-0.0000000000000139
 10
247.0123388515114
 20
-18.8911205507792
 30
-0.0000000000000173
  0
SPLINE
  5
F0
330
1F
100
AcDbEntity
  8
Hidden
370
    -3
100
AcDbSpline
210
0.0
220
0.0
230
1.0
 70
     8
 71
     3
 72
    12
 73
     8
 74
     0
 42
0.000000001
 43
0.00000001
 40
-0.0014575819388501
 40
-0.0014575819388501
 40
-0.0014575819388501
 40
-0.0014575819388501
 40
-0.0010411299563215
 40
-0.0008329039650572
 40
-0.0006246779737929
 40
-0.0004164519825286
 40
0.0
 40
0.0
 40
0.0
 40
0.0
 10
247.0123388515114
 20
-18.8911205507792
 30
-0.0000000000000069
 10
247.0069572163456
 20
-18.86123500262389
 30
-0.0000000000000243
 10
247.004035072561
 20
-18.81547670584125
 30
-0.0000000000000104
 10
246.9998691284272
 20
-18.75460574717383
 30
-0.0000000000000104
 10
246.9970315604384
 20
-18.70891387984963
 30
-0.0000000000000416
 10
246.9933423282069
 20
-18.64799745207506
 30
-0.0000000000000312
 10
246.9906938397635
 20
-18.60230520507551
 30
-0.0000000000000416
 10
246.9889464283085
 20
-18.57178326208474
 30
-0.0000000000000208
  0
SPLINE
  5
F1
330
1F
100
AcDbEntity
  8
Hidden
370
    -3
100
AcDbSpline
210
0.0
220
0.0
230
1.0
 70
     8
 71
     3
 72
    20
 73
    16
 74
     0
 42
0.000000001
 43
0.00000001
 40
-0.0190708503126219
 40
-0.0190708503126219
 40
-0.0190708503126219
 40
-0.0190708503126219
 40
-0.0188097399444614
 40
-0.0188097399444614
 40
-0.0184344036482073
 40
-0.0184344036482073
 40
-0.0176699897983987
 40
-0.0176699897983987
 40
-0.0165360184142828
 40
-0.0165360184142828
 40
-0.0154629284522884
 40
-0.0154629284522884
 40
-0.0144190378189006
 40
-0.0144190378189006
 40
-0.0142781257947999
 40
-0.0142781257947999
 40
-0.0142781257947999
 40
-0.0142781257947999
 10
246.9889464283085
 20
-18.57178326208474
 30
-0.0000000000000208
 10
246.9868510084611
 20
-18.53513269301365
 30
-0.0000000000000208
 10
246.9846264136282
 20
-18.49548046628695
 30
-0.0000000000000347
 10
246.9789140795367
 20
-18.39171473519445
 30
-0.0000000000000173
 10
246.9753059866931
 20
-18.32462739355147
 30
-0.0000000000000173
 10
246.9637967081429
 20
-18.10404182970575
 30
-0.0000000000000173
 10
246.9552889468081
 20
-17.93296585721698
 30
0.0000000000000069
 10
246.9342837920659
 20
-17.45832193631129
 30
-0.0000000000000035
 10
246.9222467635345
 20
-17.1390668555766
 30
-0.0000000000000243
 10
246.9071902186664
 20
-16.48140256261602
 30
-0.0000000000000347
 10
246.9039333232748
 20
-16.14956423242587
 30
-0.0000000000000139
 10
246.910545473445
 20
-15.50114513248582
 30
-0.0000000000000278
 10
246.9200370861899
 20
-15.19186353555011
 30
-0.0000000000000173
 10
246.9380026933327
 20
-14.86665162103531
 30
-0.0000000000000139
 10
246.940250109105
 20
-14.82847156651049
 30
-0.0000000000000069
 10
246.9425972929181
 20
-14.79081348772014
 30
-0.0000000000000035
  0
SPLINE
  5
F2
330
1F
100
AcDbEntity
  8
Hidden
370
    -3
100
AcDbSpline
210
0.0
220
0.0
230
1.0
 70
     8
 71
     3
 72
     8
 73
     4
 74
     0
 42
0.000000001
 43
0.00000001
 40
-0.0180100524850678
 40
-0.0180100524850678
 40
-0.0180100524850678
 40
-0.0180100524850678
 40
-0.0172729675345933
 40
-0.0172729675345933
 40
-0.0172729675345933
 40
-0.0172729675345933
 10
251.1864150106473
 20
-13.79715709299763
 30
-0.0000000000000156
 10
251.1879194377472
 20
-13.74658596932335
 30
0.0
 10
251.1864371182582
 20
-13.72262705558373
 30
-0.0000000000000173
 10
251.1824595386854
 20
-13.72561497267898
 30
-0.0000000000000173
  0
SPLINE
  5
F3
330
1F
100
AcDbEntity
  8
Hidden
370
    -3
100
AcDbSpline
210
0.0
220
0.0
230
1.0
 70
     8
 71
     3
 72
    14
 73
    10
 74
     0
 42
0.000000001
 43
0.00000001
 40
-0.0172729675345933
 40
-0.0172729675345933
 40
-0.0172729675345933
 40
-0.0172729675345933
 40
-0.0169351047549066
 40
-0.0169351047549066
 40
-0.0156842050340669
 40
-0.0156842050340669
 40
-0.0145148432811564
 40
-0.0145148432811564
 40
-0.0140078196197904
 40
-0.0140078196197904
 40
-0.0140078196197904
 40
-0.0140078196197904
 10
251.182459538674
 20
-13.7256149726875
 30
-0.0000000000000052
 10
251.1806124537225
 20
-13.72698349000573
 30
-0.0000000000000191
 10
251.1782540108873
 20
-13.73401437380421
 30
-0.0000000000000399
 10
251.1648973531251
 20
-13.79385072885621
 30
-0.0000000000000226
 10
251.1480671088931
 20
-13.91812421279174
 30
-0.000000000000026
 10
251.1118141227049
 20
-14.29459852164128
 30
-0.0000000000000173
 10
251.0930524445397
 20
-14.53488398670068
 30
0.0000000000000035
 10
251.0690889446863
 20
-14.94668693534367
 30
-0.0000000000000208
 10
251.0622963727907
 20
-15.07897261474004
 30
0.0000000000000069
 10
251.0560395677615
 20
-15.21762149346391
 30
-0.0000000000000104
  0
SPLINE
  5
F4
330
1F
100
AcDbEntity
  8
Hidden
370
    -3
100
AcDbSpline
210
0.0
220
0.0
230
1.0
 70
     8
 71
     3
 72
     8
 73
     4
 74
     0
 42
0.000000001
 43
0.00000001
 40
-0.0140078196197904
 40
-0.0140078196197904
 40
-0.0140078196197904
 40
-0.0140078196197904
 40
-0.0136780998008213
 40
-0.0136780998008213
 40
-0.0136780998008213
 40
-0.0136780998008213
 10
251.0560395677615
 20
-15.21762149346391
 30
-0.0000000000000104
 10
251.051999694195
 20
-15.30778556254974
 30
-0.0000000000000173
 10
251.0481870220835
 20
-15.40064060505742
 30
-0.0000000000000139
 10
251.0446281496138
 20
-15.49580927431159
 30
-0.0000000000000069
  0
ELLIPSE
  5
F5
330
1F
100
AcDbEntity
  8
Hidden
370
    -3
100
AcDbEllipse
 10
205.6852214994751
 20
31.06163643132298
 30
-0.0000000000000139
 11
42.60331413340172
 21
4.606137626064819
 31
2.712283613270426E-15
210
6.889501335177002E-17
220
-4.838593652060402E-17
230
-1.0
 40
0.4213367627752357
 41
4.051936853269975
 42
4.303192220000615
  0
ELLIPSE
  5
F6
330
1F
100
AcDbEntity
  8
Hidden
370
    -3
100
AcDbEllipse
 10
210.3589987614404
 20
-12.16729354122204
 30
-0.0000000000000069
 11
-37.01858974908921
 21
-4.002334620570103
 31
-2.356739526142078E-15
210
-6.889501335177003E-17
220
4.838593652060403E-17
230
1.0
 40
0.4213367627752357
 41
4.927624515269341
 42
4.943325679190332
  0
SPLINE
  5
F7
330
1F
100
AcDbEntity
  8
Hidden
370
    -3
100
AcDbSpline
210
0.0
220
0.0
230
1.0
 70
    12
 71
     2
 72
     6
 73
     3
 74
     0
 42
0.000000001
 43
0.00000001
 40
0.8205508817306045
 40
0.8205508817306045
 40
0.8205508817306045
 40
0.9062521264350226
 40
0.9062521264350226
 40
0.9062521264350226
 10
197.9334567919935
 20
30.48704136506844
 30
-0.0000000000000278
 41
9.84925564900707
 10
199.4492671130238
 20
15.59396887253075
 30
-0.0000000000000156
 41
10.25471389489827
 10
200.8052391218416
 20
2.215300347409771
 30
-0.0000000000000095
 41
10.64833543266308
  0
ELLIPSE
  5
F8
330
1F
100
AcDbEntity
  8
Hidden
370
    -3
100
AcDbEllipse
 10
210.5533936145517
 20
-13.96529995469835
 30
-0.0000000000000104
 11
40.67037493880098
 21
4.397154260938173
 31
2.589225597489128E-15
210
6.889501335177002E-17
220
-4.838593652060402E-17
230
-1.0
 40
0.4213367627752356
 41
3.612074239246323
 42
6.336020768360035
  0
ELLIPSE
  5
F9
330
1F
100
AcDbEntity
  8
Hidden
370
    -3
100
AcDbEllipse
 10
204.4041812293908
 20
-30.95730227671438
 30
0.0000000000000035
 11
-0.1290065766757091
 21
-1.243325099551366
 31
6.938893903907227E-17
210
-1.953272439630063E-17
220
-5.378246538711722E-17
230
-1.0
 40
0.4111138470519562
 41
0.0
 42
6.283185307179586
  0
ELLIPSE
  5
FA
330
1F
100
AcDbEntity
  8
Hidden
370
    -3
100
AcDbEllipse
 10
217.098208345907
 20
-32.27442599851591
 30
-0.0000000000000035
 11
0.1290065766757091
 21
1.243325099551366
 31
-6.938893903907227E-17
210
1.953272439630063E-17
220
5.378246538711722E-17
230
1.0
 40
0.4111138470519562
 41
0.0
 42
6.283185307179586
  0
ELLIPSE
  5
FB
330
1F
100
AcDbEntity
  8
Hidden
370
    -3
100
AcDbEllipse
 10
200.4151876813895
 20
-33.73620793548466
 30
0.0000000000000035
 11
-0.1290065766757091
 21
-1.243325099551366
 31
6.938893903907227E-17
210
-1.953272439630063E-17
220
-5.378246538711722E-17
230
-1.0
 40
0.4111138470519562
 41
0.0
 42
6.283185307179586
  0
ELLIPSE
  5
FC
330
1F
100
AcDbEntity
  8
Hidden
370
    -3
100
AcDbEllipse
 10
213.1092147979056
 20
-35.05333165728619
 30
-0.0000000000000173
 11
0.1290065766757091
 21
1.243325099551366
 31
-6.938893903907227E-17
210
1.953272439630063E-17
220
5.378246538711722E-17
230
1.0
 40
0.4111138470519562
 41
0.0
 42
6.283185307179586
  0
ELLIPSE
  5
FD
330
1F
100
AcDbEntity
  8
Hidden
370
    -3
100
AcDbEllipse
 10
210.2066072226087
 20
-28.36655714963002
 30
-0.0000000000000208
 11
-0.1290065766757118
 21
-1.243325099551392
 31
6.938893903907374E-17
210
-1.953272439630063E-17
220
-5.378246538711722E-17
230
-1.0
 40
0.4111138470519561
 41
0.0
 42
6.283185307179586
  0
ELLIPSE
  5
FE
330
1F
100
AcDbEntity
  8
Hidden
370
    -3
100
AcDbEllipse
 10
214.1956007706099
 20
-25.5876514908597
 30
-0.0000000000000173
 11
-0.1290065766757092
 21
-1.243325099551367
 31
6.938893903907235E-17
210
-1.953272439630063E-17
220
-5.378246538711722E-17
230
-1.0
 40
0.4111138470519561
 41
0.0
 42
6.283185307179586
  0
ELLIPSE
  5
FF
330
1F
100
AcDbEntity
  8
Hidden
370
    -3
100
AcDbEllipse
 10
221.86585040494
 20
17.08007088288602
 30
-0.0000000000000134
 11
0.1290065766757093
 21
1.243325099551368
 31
-6.938893903907238E-17
210
1.953272439630063E-17
220
5.378246538711722E-17
230
1.0
 40
0.4111138470519561
 41
0.0
 42
6.283185307179586
  0
ELLIPSE
  5
100
330
1F
100
AcDbEntity
  8
Hidden
370
    -3
100
AcDbEllipse
 10
208.2651070658156
 20
18.49127487053055
 30
-0.0000000000000004
 11
-0.1290065766757093
 21
-1.243325099551368
 31
6.938893903907238E-17
210
-1.953272439630063E-17
220
-5.378246538711722E-17
230
-1.0
 40
0.4111138470519561
 41
0.0
 42
6.283185307179586
  0
ELLIPSE
  5
101
330
1F
100
AcDbEntity
  8
Hidden
370
    -3
100
AcDbEllipse
 10
225.8548439529413
 20
19.85897654165634
 30
0.0000000000000158
 11
0.1290065766757091
 21
1.243325099551366
 31
-6.938893903907227E-17
210
1.953272439630063E-17
220
5.378246538711722E-17
230
1.0
 40
0.4111138470519562
 41
0.0
 42
6.283185307179586
  0
ELLIPSE
  5
102
330
1F
100
AcDbEntity
  8
Hidden
370
    -3
100
AcDbEllipse
 10
212.2541006138168
 20
21.27018052930088
 30
0.00000000000001
 11
-0.1290065766757091
 21
-1.243325099551366
 31
6.938893903907227E-17
210
-1.953272439630063E-17
220
-5.378246538711722E-17
230
-1.0
 40
0.4111138470519562
 41
0.0
 42
6.283185307179586
  0
ELLIPSE
  5
103
330
1F
100
AcDbEntity
  8
Hidden
370
    -3
100
AcDbEllipse
 10
198.4736875245963
 20
13.12162408467587
 30
-0.0000000000000074
 11
-0.1290065766757093
 21
-1.243325099551368
 31
6.938893903907237E-17
210
-1.953272439630063E-17
220
-5.378246538711722E-17
230
-1.0
 40
0.4111138470519561
 41
0.0
 42
6.283185307179586
  0
ELLIPSE
  5
104
330
1F
100
AcDbEntity
  8
Hidden
370
    -3
100
AcDbEllipse
 10
211.1677146411125
 20
11.80450036287433
 30
-0.0000000000000043
 11
0.1290065766757093
 21
1.243325099551368
 31
-6.938893903907237E-17
210
1.953272439630063E-17
220
5.378246538711722E-17
230
1.0
 40
0.4111138470519561
 41
0.0
 42
6.283185307179586
  0
ELLIPSE
  5
105
330
1F
100
AcDbEntity
  8
Hidden
370
    -3
100
AcDbEllipse
 10
202.4626810725977
 20
15.90052974344621
 30
0.0
 11
-0.1290065766757095
 21
-1.24332509955137
 31
6.938893903907251E-17
210
-1.953272439630063E-17
220
-5.378246538711722E-17
230
-1.0
 40
0.4111138470519561
 41
0.0
 42
6.283185307179586
  0
ELLIPSE
  5
106
330
1F
100
AcDbEntity
  8
Hidden
370
    -3
100
AcDbEllipse
 10
215.1567081891137
 20
14.58340602164466
 30
0.000000000000003
 11
0.1290065766757095
 21
1.24332509955137
 31
-6.938893903907251E-17
210
1.953272439630063E-17
220
5.378246538711722E-17
230
1.0
 40
0.4111138470519561
 41
0.0
 42
6.283185307179586
  0
ELLIPSE
  5
107
330
1F
100
AcDbEntity
  8
Hidden
370
    -3
100
AcDbEllipse
 10
218.6752040409464
 20
-68.35503767916705
 30
-0.0000000000000139
 11
-1.988412230085265
 21
-0.2149809369394214
 31
-1.265896331726563E-16
210
-6.889501335177002E-17
220
4.838593652060402E-17
230
1.0
 40
0.4213367627752357
 41
0.0
 42
6.283185307179586
  0
ELLIPSE
  5
108
330
1F
100
AcDbEntity
  8
Hidden
370
    -3
100
AcDbEllipse
 10
214.1416229279049
 20
-67.88463634995223
 30
0.0000000000000069
 11
-1.988412230085265
 21
-0.2149809369394214
 31
-1.265896331726563E-16
210
-6.889501335177002E-17
220
4.838593652060402E-17
230
1.0
 40
0.4213367627752357
 41
0.0
 42
6.283185307179586
  0
LINE
  5
109
330
1F
100
AcDbEntity
  8
Hidden
370
    -3
100
AcDbLine
 10
184.5845559249657
 20
25.51389604308383
 30
-0.0000000000000126
 11
181.9322203308412
 21
50.8347664186677
 31
-0.0000000000000027
  0
LINE
  5
10A
330
1F
100
AcDbEntity
  8
Hidden
370
    -3
100
AcDbLine
 10
184.5845559249657
 20
25.51389604308382
 30
-0.000000000000003
 11
176.9491074668677
 21
19.37260755474097
 31
-0.0000000000000161
  0
LINE
  5
10B
330
1F
100
AcDbEntity
  8
Hidden
370
    -3
100
AcDbLine
 10
237.7955134252097
 20
22.68681081108285
 30
-0.00000000000001
 11
235.4284774647307
 21
45.2840307339327
 31
-0.0000000000000075
  0
LINE
  5
10C
330
1F
100
AcDbEntity
  8
Hidden
370
    -3
100
AcDbLine
 10
237.7955134252097
 20
22.68681081108282
 30
-0.0000000000000033
 11
230.5874499907773
 21
16.88927354316026
 31
0.0000000000000016
  0
LINE
  5
10D
330
1F
100
AcDbEntity
  8
Hidden
370
    -3
100
AcDbLine
 10
230.8891861354861
 20
23.40340668883898
 30
0.0000000000000017
 11
237.7955134252097
 21
22.68681081108283
 31
-0.0000000000000088
  0
LINE
  5
10E
330
1F
100
AcDbEntity
  8
Hidden
370
    -3
100
AcDbLine
 10
205.6070875226151
 20
26.02666024850812
 30
-0.0000000000000147
 11
205.8923871562607
 21
23.30300979577409
 31
-0.0000000000000027
  0
LINE
  5
10F
330
1F
100
AcDbEntity
  8
Hidden
370
    -3
100
AcDbLine
 10
184.5845559249657
 20
25.51389604308381
 30
0.0000000000000095
 11
205.8923871562608
 21
23.30300979577412
 31
-0.0000000000000015
  0
LINE
  5
110
330
1F
100
AcDbEntity
  8
Hidden
370
    -3
100
AcDbLine
 10
205.8923871562607
 20
23.30300979577412
 30
-0.0000000000000097
 11
198.2569386981626
 21
17.16172130743126
 31
0.0000000000000001
  0
LINE
  5
111
330
1F
100
AcDbEntity
  8
Hidden
370
    -3
100
AcDbLine
 10
198.2569386981626
 20
17.16172130743126
 30
0.0000000000000098
 11
197.2405328550867
 21
17.26718289457024
 31
0.0000000000000063
  0
LINE
  5
112
330
1F
100
AcDbEntity
  8
Hidden
370
    -3
100
AcDbLine
 10
198.2569386981626
 20
17.16172130743129
 30
-0.0000000000000186
 11
198.3990240881827
 21
20.22912298058556
 31
0.0000000000000011
  0
LINE
  5
113
330
1F
100
AcDbEntity
  8
Hidden
370
    -3
100
AcDbLine
 10
213.6711144825037
 20
15.56235678810085
 30
-0.0000000000000108
 11
221.3065629406018
 21
21.70364527644368
 31
-0.0000000000000068
  0
LINE
  5
114
330
1F
100
AcDbEntity
  8
Hidden
370
    -3
100
AcDbLine
 10
221.3065629406018
 20
21.70364527644368
 30
-0.0000000000000001
 11
242.6143941718967
 21
19.49275902913397
 31
-0.000000000000001
  0
LINE
  5
115
330
1F
100
AcDbEntity
  8
Hidden
370
    -3
100
AcDbLine
 10
221.3065629406018
 20
21.70364527644369
 30
-0.0000000000000126
 11
221.0212633069562
 21
24.42729572917769
 31
-0.0000000000000106
  0
LINE
  5
116
330
1F
100
AcDbEntity
  8
Hidden
370
    -3
100
AcDbLine
 10
222.9273390786247
 20
23.00725617673911
 30
-0.0000000000000021
 11
207.5131632942835
 21
24.60662069606952
 31
0.0000000000000016
  0
LINE
  5
117
330
1F
100
AcDbEntity
  8
Hidden
370
    -3
100
AcDbLine
 10
207.5131632942836
 20
24.60662069606952
 30
0.0000000000000044
 11
205.6070875226152
 21
26.02666024850814
 31
0.0000000000000085
  0
LINE
  5
118
330
1F
100
AcDbEntity
  8
Hidden
370
    -3
100
AcDbLine
 10
221.0212633069562
 20
24.42729572917771
 30
-0.0000000000000089
 11
222.9273390786247
 21
23.00725617673911
 31
-0.0000000000000024
  0
LINE
  5
119
330
1F
100
AcDbEntity
  8
Hidden
370
    -3
100
AcDbLine
 10
213.1177754312174
 20
19.41676296533828
 30
-0.0000000000000067
 11
195.1878792740381
 21
6.926020803743528
 31
0.0000000000000006
  0
LINE
  5
11A
330
1F
100
AcDbEntity
  8
Hidden
370
    -3
100
AcDbLine
 10
208.8591554825359
 20
25.68921936417349
 30
-0.0000000000000165
 11
207.5131632942835
 21
24.60662069606953
 31
-0.0000000000000131
  0
LINE
  5
11B
330
1F
100
AcDbEntity
  8
Hidden
370
    -3
100
AcDbLine
 10
212.7289205449688
 20
28.80172071375771
 30
0.0000000000000104
 11
213.1177754312173
 21
19.41676296533823
 31
-0.0000000000000089
  0
LINE
  5
11C
330
1F
100
AcDbEntity
  8
Hidden
370
    -3
100
AcDbLine
 10
213.1177754312174
 20
19.41676296533824
 30
-0.0000000000000043
 11
228.5319512155584
 21
17.81739844600781
 31
0.0000000000000017
  0
LINE
  5
11D
330
1F
100
AcDbEntity
  8
Hidden
370
    -3
100
AcDbLine
 10
228.5319512155584
 20
17.81739844600782
 30
-0.0000000000000013
 11
223.7880656261483
 21
14.51260229872513
 31
0.0000000000000009
  0
LINE
  5
11E
330
1F
100
AcDbEntity
  8
Hidden
370
    -3
100
AcDbLine
 10
228.5319512155584
 20
17.81739844600782
 30
-0.0000000000000013
 11
228.2893250143478
 21
23.67314753788325
 31
0.0000000000000023
  0
LINE
  5
11F
330
1F
100
AcDbEntity
  8
Hidden
370
    -3
100
AcDbLine
 10
222.9273390786247
 20
23.00725617673911
 30
-0.0000000000000006
 11
224.273331266877
 21
24.08985484484305
 31
-0.0000000000000116
  0
LINE
  5
120
330
1F
100
AcDbEntity
  8
Hidden
370
    -3
100
AcDbLine
 10
214.7343779175804
 20
-19.59970967533156
 30
0.0000000000000035
 11
215.1429474682968
 21
-29.46047806571042
 31
0.0000000000000073
  0
LINE
  5
121
330
1F
100
AcDbEntity
  8
Hidden
370
    -3
100
AcDbLine
 10
197.1356428940751
 20
-40.08297901700585
 30
-0.0000000000000035
 11
215.1429474682969
 21
-29.46047806571042
 31
-0.0000000000000087
  0
LINE
  5
122
330
1F
100
AcDbEntity
  8
Hidden
370
    -3
100
AcDbLine
 10
231.051175030767
 20
26.90061590291869
 30
0.0000000000000035
 11
241.9569511587532
 21
25.76903990178204
 31
-0.0000000000000089
  0
ELLIPSE
  5
123
330
1F
100
AcDbEntity
  8
Hidden
370
    -3
100
AcDbEllipse
 10
206.9832859064777
 20
17.1489077563971
 30
-0.0000000000000095
 11
-41.0174189024002
 21
-2.624424098640875
 31
5.276153913225672E-15
210
1.245630478463302E-16
220
6.359459968358711E-17
230
1.0
 40
0.3448129900286129
 41
3.673634337982998
 42
4.059133238849263
  0
ELLIPSE
  5
124
330
1F
100
AcDbEntity
  8
Hidden
370
    -3
100
AcDbEllipse
 10
205.685221499475
 20
31.061636431323
 30
-0.0000000000000022
 11
-46.31052306803907
 21
-5.00694950910396
 31
-2.948298163990631E-15
210
-6.889501335177002E-17
220
4.838593652060402E-17
230
1.0
 40
0.4213367627752357
 41
5.086987124891353
 42
5.30387947410456
  0
SPLINE
  5
125
330
1F
100
AcDbEntity
  8
Hidden
370
    -3
100
AcDbSpline
210
0.0
220
0.0
230
1.0
 70
     8
 71
     3
 72
    10
 73
     6
 74
     0
 42
0.000000001
 43
0.00000001
 40
0.307011948532203
 40
0.307011948532203
 40
0.307011948532203
 40
0.307011948532203
 40
0.3155376087995133
 40
0.3155376087995133
 40
0.335784495175936
 40
0.335784495175936
 40
0.335784495175936
 40
0.335784495175936
 10
200.8052391218416
 20
2.215300347409771
 30
-0.0000000000000095
 10
201.1014300835323
 20
-0.7070613760089064
 30
-0.0000000000000035
 10
201.3739456267474
 20
-3.672728340361503
 30
-0.0000000000000347
 10
202.2010272642878
 20
-13.74039452371646
 30
-0.000000000000033
 10
202.6262265639873
 20
-20.92636260767302
 30
-0.0000000000000069
 10
202.869518041436
 20
-27.85297281636349
 30
-0.0000000000000347
  0
LINE
  5
126
330
1F
100
AcDbEntity
  8
Hidden
370
    -3
100
AcDbLine
 10
199.8639231124927
 20
6.440789221403866
 30
-0.0000000000000147
 11
198.594604944969
 21
20.92367737379399
 31
-0.0000000000000002
  0
LINE
  5
127
330
1F
100
AcDbEntity
  8
Hidden
370
    -3
100
AcDbLine
 10
198.594604944969
 20
20.92367737379399
 30
-0.0000000000000007
 11
198.0789085621659
 21
26.80776004417764
 31
-0.0000000000000125
  0
SPLINE
  5
128
330
1F
100
AcDbEntity
  8
Hidden
370
    -3
100
AcDbSpline
210
0.0
220
0.0
230
1.0
 70
     8
 71
     3
 72
     8
 73
     4
 74
     0
 42
0.000000001
 43
0.00000001
 40
0.2609533018422339
 40
0.2609533018422339
 40
0.2609533018422339
 40
0.2609533018422339
 40
0.261269579641026
 40
0.261269579641026
 40
0.261269579641026
 40
0.261269579641026
 10
202.8717275206042
 20
-27.86376324832265
 30
-0.0000000000000382
 10
202.8942905581401
 20
-27.97394017757157
 30
-0.0000000000000104
 10
202.9169412732177
 20
-28.08411147807045
 30
-0.0000000000000208
 10
202.9396793504268
 20
-28.19427516776338
 30
-0.0000000000000139
  0
LINE
  5
129
330
1F
100
AcDbEntity
  8
Hidden
370
    -3
100
AcDbLine
 10
215.1429474682968
 20
-29.46047806571042
 30
0.0
 11
202.9396793504268
 21
-28.19427516776339
 31
-0.0000000000000112
  0
SPLINE
  5
12A
330
1F
100
AcDbEntity
  8
Hidden
370
    -3
100
AcDbSpline
210
0.0
220
0.0
230
1.0
 70
     8
 71
     3
 72
    23
 73
    19
 74
     0
 42
0.000000001
 43
0.00000001
 40
0.173924033800535
 40
0.173924033800535
 40
0.173924033800535
 40
0.173924033800535
 40
0.1790975091516677
 40
0.1790975091516677
 40
0.1850063698590591
 40
0.1850063698590591
 40
0.1908304500642246
 40
0.1908304500642246
 40
0.1966545302693901
 40
0.1966545302693901
 40
0.1966545302693901
 40
0.2025023791108306
 40
0.2025023791108306
 40
0.208350227952271
 40
0.208350227952271
 40
0.2142838165941348
 40
0.2142838165941348
 40
0.2193361782783945
 40
0.2193361782783945
 40
0.2193361782783945
 40
0.2193361782783945
 10
202.9396793504268
 20
-28.19427516776338
 30
-0.0000000000000139
 10
204.6199317380526
 20
-28.02164682048227
 30
-0.0000000000000451
 10
206.4605950181552
 20
-27.87351001008497
 30
-0.0000000000000104
 10
210.4519676927637
 20
-27.65010178997109
 30
-0.0000000000000208
 10
212.610396661412
 20
-27.58889888432562
 30
-0.0000000000000139
 10
216.5148107132503
 20
-27.56951215100802
 30
-0.0000000000000139
 10
218.6225131405324
 20
-27.60808955344845
 30
-0.0000000000000104
 10
222.731826065337
 20
-27.79996885158114
 30
0.0000000000000104
 10
224.7334197510618
 20
-27.95328894688434
 30
-0.0000000000000382
 10
226.4936824189936
 20
-28.13593261821525
 30
-0.0000000000000243
 10
228.2611288896254
 20
-28.31932167608598
 30
-0.0000000000000416
 10
230.1130770897675
 20
-28.56628687514293
 30
-0.0000000000000382
 10
233.5581316242874
 20
-29.16012302414094
 30
0.0000000000000069
 10
235.1512792813215
 20
-29.50697803310927
 30
-0.0000000000000139
 10
237.8384335383724
 20
-30.21368576722498
 30
-0.0000000000000347
 10
239.1769950318198
 20
-30.6399924006058
 30
-0.0000000000000312
 10
241.3034748004283
 20
-31.49486151463488
 30
-0.0000000000000173
 10
242.145919533347
 20
-31.91338263852423
 30
-0.0000000000000139
 10
242.8146080447667
 20
-32.32234403853582
 30
-0.0000000000000347
  0
ELLIPSE
  5
12B
330
1F
100
AcDbEntity
  8
Hidden
370
    -3
100
AcDbEllipse
 10
210.3589987614404
 20
-12.16729354122204
 30
-0.0000000000000069
 11
-37.01858974908921
 21
-4.002334620570103
 31
-2.356739526142070E-15
210
-6.889501335176984E-17
220
4.838593652060404E-17
230
1.0
 40
0.4213367627752357
 41
2.671111067933263
 42
3.512602613413256
  0
SPLINE
  5
12C
330
1F
100
AcDbEntity
  8
Hidden
370
    -3
100
AcDbSpline
210
0.0
220
0.0
230
1.0
 70
     8
 71
     3
 72
     8
 73
     4
 74
     0
 42
0.000000001
 43
0.00000001
 40
-0.0011817403062904
 40
-0.0011817403062904
 40
-0.0011817403062904
 40
-0.0011817403062904
 40
-0.0004736480749421
 40
-0.0004736480749421
 40
-0.0004736480749421
 40
-0.0004736480749421
 10
189.1338093648899
 20
-62.15933388910764
 30
-0.0000000000000069
 10
189.1985074570549
 20
-62.31730126184755
 30
-0.0000000000000139
 10
189.2636260517664
 20
-62.47502126446084
 30
-0.0000000000000416
 10
189.3291600874195
 20
-62.63246643242899
 30
-0.0000000000000208
  0
SPLINE
  5
12D
330
1F
100
AcDbEntity
  8
Hidden
370
    -3
100
AcDbSpline
210
0.0
220
0.0
230
1.0
 70
     8
 71
     3
 72
    10
 73
     6
 74
     0
 42
0.000000001
 43
0.00000001
 40
-0.003739883310194
 40
-0.003739883310194
 40
-0.003739883310194
 40
-0.003739883310194
 40
-0.00212611831647
 40
-0.00212611831647
 40
-0.0018294390590339
 40
-0.0018294390590339
 40
-0.0018294390590339
 40
-0.0018294390590339
 10
189.3291600880236
 20
-62.6324664338755
 30
-0.0000000000000278
 10
189.1265644513541
 20
-62.27772178140888
 30
-0.0000000000000208
 10
188.9375835111094
 20
-61.92123935914564
 30
0.0000000000000069
 10
188.7348939918698
 20
-61.50627634603698
 30
-0.0000000000000208
 10
188.7039540470676
 20
-61.44190712263127
 30
-0.0000000000000139
 10
188.6735857706196
 20
-61.37768473676284
 30
0.0000000000000035
  0
SPLINE
  5
12E
330
1F
100
AcDbEntity
  8
Hidden
370
    -3
100
AcDbSpline
210
0.0
220
0.0
230
1.0
 70
     8
 71
     3
 72
     8
 73
     4
 74
     0
 42
0.000000001
 43
0.00000001
 40
-0.0045778038989338
 40
-0.0045778038989338
 40
-0.0045778038989338
 40
-0.0045778038989338
 40
-0.0011817403062904
 40
-0.0011817403062904
 40
-0.0011817403062904
 40
-0.0011817403062904
 10
188.2327341081598
 20
-59.87215618595334
 30
0.0000000000000069
 10
188.5229783624229
 20
-60.63830085358209
 30
-0.0000000000000173
 10
188.8235357565883
 20
-61.40168567014138
 30
-0.0000000000000173
 10
189.133809364584
 20
-62.15933388836094
 30
-0.0000000000000416
  0
LINE
  5
12F
330
1F
100
AcDbEntity
  8
Hidden
370
    -3
100
AcDbLine
 10
189.3276691351436
 20
-62.63086638044889
 30
-0.0000000000000069
 11
189.3291600881183
 21
-62.63246643397228
 31
0.0000000000000115
  0
LINE
  5
130
330
1F
100
AcDbEntity
  8
Hidden
370
    -3
100
AcDbLine
 10
212.0498124889531
 20
-67.24629729394731
 30
0.0
 11
211.7573612057862
 21
-64.54134253641409
 31
0.0000000000000014
  0
LINE
  5
131
330
1F
100
AcDbEntity
  8
Hidden
370
    -3
100
AcDbLine
 10
207.7805367456157
 20
-64.97130441029293
 30
-0.0000000000000139
 11
208.0729880287826
 21
-67.67625916782613
 31
0.0000000000000021
  0
LINE
  5
132
330
1F
100
AcDbEntity
  8
Hidden
370
    -3
100
AcDbLine
 10
224.7438396054693
 20
-68.56342101574877
 30
-0.0000000000000069
 11
224.4513883223024
 21
-65.85846625821559
 31
-0.0000000000000118
  0
LINE
  5
133
330
1F
100
AcDbEntity
  8
Hidden
370
    -3
100
AcDbLine
 10
220.4745638621319
 20
-66.28842813209444
 30
0.0000000000000069
 11
220.7670151452988
 21
-68.99338288962763
 31
-0.000000000000011
  0
LINE
  5
134
330
1F
100
AcDbEntity
  8
Hidden
370
    -3
100
AcDbLine
 10
188.5983517244317
 20
-61.21751693898162
 30
-0.0000000000000035
 11
192.2811843764002
 21
-69.39718730857764
 31
-0.0000000000000104
  0
LINE
  5
135
330
1F
100
AcDbEntity
  8
Hidden
370
    -3
100
AcDbLine
 10
240.2511155167747
 20
-64.21082917278909
 30
0.0000000000000069
 11
242.1005593516379
 21
-55.43302459689517
 31
0.0000000000000054
  0
LINE
  5
136
330
1F
100
AcDbEntity
  8
Hidden
370
    -3
100
AcDbLine
 10
251.1832210163763
 20
-13.72537464587865
 30
-0.0000000000000173
 11
247.197547351275
 21
-13.31182382520689
 31
0.0000000000000006
  0
LINE
  5
137
330
1F
100
AcDbEntity
  8
Hidden
370
    -3
100
AcDbLine
 10
247.0124393081407
 20
-18.8911712396108
 30
-0.0000000000000035
 11
250.9324489077339
 21
-19.29790880097904
 31
-0.0000000000000088
  0
LINE
  5
138
330
1F
100
AcDbEntity
  8
Hidden
370
    -3
100
AcDbLine
 10
204.2751746873033
 20
-32.20062737985458
 30
-0.0000000000000069
 11
216.9692005067514
 21
-33.51775096707322
 31
-0.0000000000000156
  0
LINE
  5
139
330
1F
100
AcDbEntity
  8
Hidden
370
    -3
100
AcDbLine
 10
217.2272136601029
 20
-31.03110076797048
 30
-0.0000000000000104
 11
204.5331878406546
 21
-29.71397718075184
 31
-0.0000000000000132
  0
LINE
  5
13A
330
1F
100
AcDbEntity
  8
Hidden
370
    -3
100
AcDbLine
 10
200.286181139302
 20
-34.9795330386249
 30
0.0000000000000104
 11
212.9802069587502
 21
-36.29665662584353
 31
-0.0000000000000089
  0
LINE
  5
13B
330
1F
100
AcDbEntity
  8
Hidden
370
    -3
100
AcDbLine
 10
213.2382201121016
 20
-33.81000642674081
 30
-0.0000000000000139
 11
200.5441942926534
 21
-32.49288283952214
 31
-0.0000000000000282
  0
LINE
  5
13C
330
1F
100
AcDbEntity
  8
Hidden
370
    -3
100
AcDbLine
 10
210.077604355547
 20
-29.60988263408846
 30
-0.0000000000000035
 11
223.6783482351165
 21
-31.02108667780918
 31
0.0000000000000039
  0
LINE
  5
13D
330
1F
100
AcDbEntity
  8
Hidden
370
    -3
100
AcDbLine
 10
223.9363613884679
 20
-28.5344364787064
 30
0.0000000000000104
 11
210.3356175088984
 21
-27.12323243498571
 31
0.0000000000000059
  0
LINE
  5
13E
330
1F
100
AcDbEntity
  8
Hidden
370
    -3
100
AcDbLine
 10
214.0665979035482
 20
-26.83097697531814
 30
-0.0000000000000208
 11
227.6673417831176
 21
-28.24218101903885
 31
-0.0000000000000081
  0
LINE
  5
13F
330
1F
100
AcDbEntity
  8
Hidden
370
    -3
100
AcDbLine
 10
227.9253549364691
 20
-25.75553081993613
 30
-0.0000000000000069
 11
214.3246110568997
 21
-24.34432677621541
 31
-0.0000000000000026
  0
LINE
  5
140
330
1F
100
AcDbEntity
  8
Hidden
370
    -3
100
AcDbLine
 10
208.1361041987538
 20
17.24794938607214
 30
-0.0000000000000091
 11
221.7368480783232
 21
15.83674534235143
 31
-0.0000000000000093
  0
LINE
  5
141
330
1F
100
AcDbEntity
  8
Hidden
370
    -3
100
AcDbLine
 10
221.9948612316745
 20
18.32339554145415
 30
-0.0000000000000074
 11
208.3941173521051
 21
19.73459958517486
 31
-0.0000000000000078
  0
LINE
  5
142
330
1F
100
AcDbEntity
  8
Hidden
370
    -3
100
AcDbLine
 10
212.125097746755
 20
20.02685504484245
 30
-0.0000000000000104
 11
225.7258416263244
 21
18.61565100112173
 31
-0.0000000000000019
  0
LINE
  5
143
330
1F
100
AcDbEntity
  8
Hidden
370
    -3
100
AcDbLine
 10
225.9838547796758
 20
21.10230120022448
 30
-0.0000000000000056
 11
212.3831109001063
 21
22.51350524394518
 31
-0.0000000000000041
  0
LINE
  5
144
330
1F
100
AcDbEntity
  8
Hidden
370
    -3
100
AcDbLine
 10
198.3446809825087
 20
11.87829898153567
 30
-0.0000000000000117
 11
211.0387068019569
 21
10.56117539431702
 31
-0.0000000000000153
  0
LINE
  5
145
330
1F
100
AcDbEntity
  8
Hidden
370
    -3
100
AcDbLine
 10
211.2967199553083
 20
13.04782559341976
 30
-0.0000000000000108
 11
198.6026941358602
 21
14.3649491806384
 31
0.0000000000000101
  0
LINE
  5
146
330
1F
100
AcDbEntity
  8
Hidden
370
    -3
100
AcDbLine
 10
202.33367453051
 20
14.65720464030601
 30
-0.0000000000000035
 11
215.0277003499582
 21
13.34008105308735
 31
-0.0000000000000091
  0
LINE
  5
147
330
1F
100
AcDbEntity
  8
Hidden
370
    -3
100
AcDbLine
 10
215.2857135033096
 20
15.8267312521901
 30
-0.0000000000000004
 11
202.5916876838614
 21
17.14385483940874
 31
-0.0000000000000026
  0
LINE
  5
148
330
1F
100
AcDbEntity
  8
Hidden
370
    -3
100
AcDbLine
 10
220.663616603732
 20
-68.14005981945546
 30
-0.0000000000000069
 11
220.371165320565
 21
-65.43510506192224
 31
-0.0000000000000171
  0
LINE
  5
149
330
1F
100
AcDbEntity
  8
Hidden
370
    -3
100
AcDbLine
 10
216.3943408603946
 20
-65.86506693580111
 30
-0.0000000000000069
 11
216.6867921435615
 21
-68.5700216933343
 31
-0.0000000000000137
  0
LINE
  5
14A
330
1F
100
AcDbEntity
  8
Hidden
370
    -3
100
AcDbLine
 10
216.1300354906904
 20
-67.66965849024064
 30
-0.0000000000000139
 11
215.8375842075235
 21
-64.96470373270745
 31
-0.0000000000000071
  0
LINE
  5
14B
330
1F
100
AcDbEntity
  8
Hidden
370
    -3
100
AcDbLine
 10
211.8607597473531
 20
-65.39466560658629
 30
0.0
 11
212.15321103052
 21
-68.09962036411947
 31
0.0000000000000047
  0
LINE
  5
14C
330
1F
100
AcDbEntity
  8
Hidden
370
    -3
100
AcDbLine
 10
247.4144979659707
 20
-9.01988855413274
 30
-0.0000000000000017
 11
248.3310133275093
 21
34.68386643500396
 31
-0.0000000000000017
  0
SPLINE
  5
14D
330
1F
100
AcDbEntity
  8
Hidden
370
    -3
100
AcDbSpline
210
0.0
220
0.0
230
1.0
 70
     8
 71
     3
 72
     8
 73
     4
 74
     0
 42
0.000000001
 43
0.00000001
 40
0.0000048838741421
 40
0.0000048838741421
 40
0.0000048838741421
 40
0.0000048838741421
 40
0.0057110603370332
 40
0.0057110603370332
 40
0.0057110603370332
 40
0.0057110603370332
 10
247.4144979655502
 20
-9.019888574181886
 30
-0.000000000000033
 10
247.377457778769
 20
-10.78613856228816
 30
-0.0000000000000121
 10
247.3219193772202
 20
-12.55100815761844
 30
-0.0000000000000399
 10
247.247934148824
 20
-14.31413882495301
 30
-0.0000000000000364
  0
SPLINE
  5
14E
330
1F
100
AcDbEntity
  8
Hidden
370
    -3
100
AcDbSpline
210
0.0
220
0.0
230
1.0
 70
     8
 71
     3
 72
    10
 73
     6
 74
     0
 42
0.000000001
 43
0.00000001
 40
0.0106281493213677
 40
0.0106281493213677
 40
0.0106281493213677
 40
0.0106281493213677
 40
0.0256622179666505
 40
0.0256622179666505
 40
0.0506465856138539
 40
0.0506465856138539
 40
0.0506465856138539
 40
0.0506465856138539
 10
247.0155992103766
 20
-18.86802156615987
 30
-0.0000000000000312
 10
246.7369769186522
 20
-23.50486165728046
 30
-0.0000000000000347
 10
246.3305795337261
 20
-28.12759862256963
 30
-0.0000000000000173
 10
244.9110389459834
 20
-40.37819546183744
 30
-0.0000000000000347
 10
243.6758731773069
 20
-47.9562897032544
 30
-0.0000000000000278
 10
242.1005352616143
 20
-55.43313893250181
 30
-0.0000000000000035
  0
SPLINE
  5
14F
330
1F
100
AcDbEntity
  8
Hidden
370
    -3
100
AcDbSpline
210
0.0
220
0.0
230
1.0
 70
     8
 71
     3
 72
     8
 73
     4
 74
     0
 42
0.000000001
 43
0.00000001
 40
0.0006805003080031
 40
0.0006805003080031
 40
0.0006805003080031
 40
0.0006805003080031
 40
0.0068934213992328
 40
0.0068934213992328
 40
0.0068934213992328
 40
0.0068934213992328
 10
188.5983946187852
 20
-61.21761220844316
 30
-0.0000000000000347
 10
187.8181504260429
 20
-59.48466835382397
 30
-0.0000000000000416
 10
187.0571252849731
 20
-57.74110789639621
 30
-0.0000000000000243
 10
186.3155338104895
 20
-55.98734825738052
 30
0.0
  0
LINE
  5
150
330
1F
100
AcDbEntity
  8
Hidden
370
    -3
100
AcDbLine
 10
214.7343779175804
 20
-19.59970967533157
 30
-0.0000000000000035
 11
215.1429474682969
 21
-29.46047806571042
 31
0.0000000000000004
  0
LINE
  5
151
330
1F
100
AcDbEntity
  8
Hidden
370
    -3
100
AcDbLine
 10
230.5571232526378
 20
-31.05984258504086
 30
0.0000000000000035
 11
215.1429474682968
 21
-29.46047806571041
 31
-0.0000000000000077
  0
ENDSEC
  0
SECTION
  2
OBJECTS
  0
DICTIONARY
  5
C
330
0
100
AcDbDictionary
281
     1
  3
ACAD_DETAILVIEWSTYLE
350
156
  3
ACAD_GROUP
350
D
  3
ACAD_LAYOUT
350
1A
  3
ACAD_MATERIAL
350
43
  3
ACAD_MLEADERSTYLE
350
155
  3
ACAD_MLINESTYLE
350
17
  3
ACAD_PLOTSETTINGS
350
19
  3
ACAD_PLOTSTYLENAME
350
E
  3
ACAD_SCALELIST
350
47
  3
ACAD_SECTIONVIEWSTYLE
350
157
  3
ACAD_TABLESTYLE
350
154
  3
ACAD_VISUALSTYLE
350
2A
  3
AcDbVariableDictionary
350
152
  0
SUN
  5
69
330
29
100
AcDbSun
 90
        1
290
     0
 63
     7
421
 16777215
 40
1.0
291
     1
 91
  2455826
 92
 54000000
292
     0
 70
     2
 71
   256
280
     1
  0
DICTIONARY
  5
156
102
{ACAD_REACTORS
330
C
102
}
330
C
100
AcDbDictionary
281
     1
  0
DICTIONARY
  5
D
102
{ACAD_REACTORS
330
C
102
}
330
C
100
AcDbDictionary
281
     1
  0
DICTIONARY
  5
1A
102
{ACAD_REACTORS
330
C
102
}
330
C
100
AcDbDictionary
281
     1
  3
Layout1
350
1E
  3
Layout2
350
26
  3
Model
350
22
  0
DICTIONARY
  5
43
102
{ACAD_REACTORS
330
C
102
}
330
C
100
AcDbDictionary
281
     1
  3
ByBlock
350
45
  3
ByLayer
350
44
  3
Global
350
46
  0
DICTIONARY
  5
155
102
{ACAD_REACTORS
330
C
102
}
330
C
100
AcDbDictionary
281
     1
  0
DICTIONARY
  5
17
102
{ACAD_REACTORS
330
C
102
}
330
C
100
AcDbDictionary
281
     1
  3
Standard
350
18
  0
DICTIONARY
  5
19
102
{ACAD_REACTORS
330
C
102
}
330
C
100
AcDbDictionary
281
     1
  0
ACDBDICTIONARYWDFLT
  5
E
102
{ACAD_REACTORS
330
C
102
}
330
C
100
AcDbDictionary
281
     1
  3
Normal
350
F
100
AcDbDictionaryWithDefault
340
F
  0
DICTIONARY
  5
47
102
{ACAD_REACTORS
330
C
102
}
330
C
100
AcDbDictionary
281
     1
  3
A0
350
48
  3
A1
350
49
  3
A2
350
4A
  3
A3
350
4B
  3
A4
350
4C
  3
A5
350
4D
  3
A6
350
4E
  3
A7
350
4F
  3
A8
350
50
  3
A9
350
51
  3
B0
350
52
  3
B1
350
53
  3
B2
350
54
  3
B3
350
55
  3
B4
350
56
  3
B5
350
57
  3
B6
350
58
  3
B7
350
59
  3
B8
350
5A
  3
B9
350
5B
  3
C0
350
5C
  3
C1
350
5D
  3
C2
350
5E
  3
C3
350
5F
  3
C4
350
60
  3
C5
350
61
  3
C6
350
62
  3
C7
350
63
  3
C8
350
64
  3
C9
350
65
  3
D0
350
66
  3
D1
350
67
  3
D2
350
68
  0
DICTIONARY
  5
157
102
{ACAD_REACTORS
330
C
102
}
330
C
100
AcDbDictionary
281
     1
  0
DICTIONARY
  5
154
102
{ACAD_REACTORS
330
C
102
}
330
C
100
AcDbDictionary
281
     1
  0
DICTIONARY
  5
2A
102
{ACAD_REACTORS
330
C
102
}
330
C
100
AcDbDictionary
281
     1
  3
2dWireframe
350
2F
  3
Basic
350
32
  3
Brighten
350
36
  3
ColorChange
350
3A
  3
Conceptual
350
34
  3
Dim
350
35
  3
EdgeColorOff
350
3D
  3
Facepattern
350
39
  3
Flat
350
2B
  3
FlatWithEdges
350
2C
  3
Gouraud
350
2D
  3
GouraudWithEdges
350
2E
  3
Hidden
350
31
  3
JitterOff
350
3B
  3
Linepattern
350
38
  3
OverhangOff
350
3C
  3
Realistic
350
33
  3
Shaded
350
42
  3
Shaded with edges
350
41
  3
Shades of Gray
350
3E
  3
Sketchy
350
3F
  3
Thicken
350
37
  3
Wireframe
350
30
  3
X-Ray
350
40
  0
DICTIONARY
  5
152
102
{ACAD_REACTORS
330
C
102
}
330
C
100
AcDbDictionary
281
     1
  3
CANNOSCALE
350
153
  0
LAYOUT
  5
1E
102
{ACAD_REACTORS
330
1A
102
}
330
1A
100
AcDbPlotSettings
  1

  2
none_device
  4

  6

 40
0.0
 41
0.0
 42
0.0
 43
0.0
 44
0.0
 45
0.0
 46
0.0
 47
0.0
 48
0.0
 49
0.0
140
0.0
141
0.0
142
1.0
143
1.0
 70
   688
 72
     1
 73
     0
 74
     5
  7

 75
    16
 76
     0
 77
     2
 78
   300
147
1.0
148
0.0
149
0.0
100
AcDbLayout
  1
Layout1
 70
     1
 71
     1
 10
0.0
 20
0.0
 11
420.0
 21
297.0
 12
0.0
 22
0.0
 32
0.0
 14
1.000000000000000E+20
 24
1.000000000000000E+20
 34
1.000000000000000E+20
 15
-1.000000000000000E+20
 25
-1.000000000000000E+20
 35
-1.000000000000000E+20
146
0.0
 13
0.0
 23
0.0
 33
0.0
 16
1.0
 26
0.0
 36
0.0
 17
0.0
 27
1.0
 37
0.0
 76
     0
330
1B
  0
LAYOUT
  5
26
102
{ACAD_REACTORS
330
1A
102
}
330
1A
100
AcDbPlotSettings
  1

  2
none_device
  4

  6

 40
0.0
 41
0.0
 42
0.0
 43
0.0
 44
0.0
 45
0.0
 46
0.0
 47
0.0
 48
0.0
 49
0.0
140
0.0
141
0.0
142
1.0
143
1.0
 70
   688
 72
     1
 73
     0
 74
     5
  7

 75
    16
 76
     0
 77
     2
 78
   300
147
1.0
148
0.0
149
0.0
100
AcDbLayout
  1
Layout2
 70
     1
 71
     2
 10
0.0
 20
0.0
 11
0.0
 21
0.0
 12
0.0
 22
0.0
 32
0.0
 14
0.0
 24
0.0
 34
0.0
 15
0.0
 25
0.0
 35
0.0
146
0.0
 13
0.0
 23
0.0
 33
0.0
 16
1.0
 26
0.0
 36
0.0
 17
0.0
 27
1.0
 37
0.0
 76
     0
330
23
  0
LAYOUT
  5
22
102
{ACAD_REACTORS
330
1A
102
}
330
1A
100
AcDbPlotSettings
  1

  2
none_device
  4
Letter_(8.50_x_11.00_Inches)
  6

 40
6.35
 41
6.35
 42
6.35000508
 43
6.35000508
 44
215.9
 45
279.4
 46
0.0
 47
0.0
 48
0.0
 49
0.0
140
0.0
141
0.0
142
1.0
143
1.0
 70
  1712
 72
     1
 73
     0
 74
     0
  7

 75
     0
 76
     0
 77
     2
 78
   300
147
1.0
148
0.0
149
0.0
100
AcDbLayout
  1
Model
 70
     1
 71
     0
 10
0.0
 20
0.0
 11
420.0
 21
297.0
 12
0.0
 22
0.0
 32
0.0
 14
163.4500130171109
 24
-80.27712948789424
 34
-92.19181956333426
 15
254.2968404611553
 25
51.20612461838145
 35
-58.16449131498144
146
0.0
 13
0.0
 23
0.0
 33
0.0
 16
1.0
 26
0.0
 36
0.0
 17
0.0
 27
1.0
 37
0.0
 76
     0
330
1F
331
29
  0
MATERIAL
  5
45
102
{ACAD_REACTORS
330
43
102
}
330
43
100
AcDbMaterial
  1
ByBlock
 72
     1
 94
      127
  0
MATERIAL
  5
44
102
{ACAD_REACTORS
330
43
102
}
330
43
100
AcDbMaterial
  1
ByLayer
 72
     1
 94
      127
  0
MATERIAL
  5
46
102
{ACAD_REACTORS
330
43
102
}
330
43
100
AcDbMaterial
  1
Global
 72
     1
 94
      127
  0
MLINESTYLE
  5
18
102
{ACAD_REACTORS
330
17
102
}
330
17
100
AcDbMlineStyle
  2
Standard
 70
     0
  3

 62
   256
 51
90.0
 52
90.0
 71
     2
 49
0.5
 62
   256
  6
BYLAYER
 49
-0.5
 62
   256
  6
BYLAYER
  0
ACDBPLACEHOLDER
  5
F
102
{ACAD_REACTORS
330
E
102
}
330
E
  0
SCALE
  5
48
102
{ACAD_REACTORS
330
47
102
}
330
47
100
AcDbScale
 70
     0
300
1:1
140
1.0
141
1.0
290
     1
  0
SCALE
  5
49
102
{ACAD_REACTORS
330
47
102
}
330
47
100
AcDbScale
 70
     0
300
1:2
140
1.0
141
2.0
290
     0
  0
SCALE
  5
4A
102
{ACAD_REACTORS
330
47
102
}
330
47
100
AcDbScale
 70
     0
300
1:4
140
1.0
141
4.0
290
     0
  0
SCALE
  5
4B
102
{ACAD_REACTORS
330
47
102
}
330
47
100
AcDbScale
 70
     0
300
1:5
140
1.0
141
5.0
290
     0
  0
SCALE
  5
4C
102
{ACAD_REACTORS
330
47
102
}
330
47
100
AcDbScale
 70
     0
300
1:8
140
1.0
141
8.0
290
     0
  0
SCALE
  5
4D
102
{ACAD_REACTORS
330
47
102
}
330
47
100
AcDbScale
 70
     0
300
1:10
140
1.0
141
10.0
290
     0
  0
SCALE
  5
4E
102
{ACAD_REACTORS
330
47
102
}
330
47
100
AcDbScale
 70
     0
300
1:16
140
1.0
141
16.0
290
     0
  0
SCALE
  5
4F
102
{ACAD_REACTORS
330
47
102
}
330
47
100
AcDbScale
 70
     0
300
1:20
140
1.0
141
20.0
290
     0
  0
SCALE
  5
50
102
{ACAD_REACTORS
330
47
102
}
330
47
100
AcDbScale
 70
     0
300
1:30
140
1.0
141
30.0
290
     0
  0
SCALE
  5
51
102
{ACAD_REACTORS
330
47
102
}
330
47
100
AcDbScale
 70
     0
300
1:40
140
1.0
141
40.0
290
     0
  0
SCALE
  5
52
102
{ACAD_REACTORS
330
47
102
}
330
47
100
AcDbScale
 70
     0
300
1:50
140
1.0
141
50.0
290
     0
  0
SCALE
  5
53
102
{ACAD_REACTORS
330
47
102
}
330
47
100
AcDbScale
 70
     0
300
1:100
140
1.0
141
100.0
290
     0
  0
SCALE
  5
54
102
{ACAD_REACTORS
330
47
102
}
330
47
100
AcDbScale
 70
     0
300
2:1
140
2.0
141
1.0
290
     0
  0
SCALE
  5
55
102
{ACAD_REACTORS
330
47
102
}
330
47
100
AcDbScale
 70
     0
300
4:1
140
4.0
141
1.0
290
     0
  0
SCALE
  5
56
102
{ACAD_REACTORS
330
47
102
}
330
47
100
AcDbScale
 70
     0
300
8:1
140
8.0
141
1.0
290
     0
  0
SCALE
  5
57
102
{ACAD_REACTORS
330
47
102
}
330
47
100
AcDbScale
 70
     0
300
10:1
140
10.0
141
1.0
290
     0
  0
SCALE
  5
58
102
{ACAD_REACTORS
330
47
102
}
330
47
100
AcDbScale
 70
     0
300
100:1
140
100.0
141
1.0
290
     0
  0
SCALE
  5
59
102
{ACAD_REACTORS
330
47
102
}
330
47
100
AcDbScale
 70
     0
300
1/128" = 1'-0"
140
0.0078125
141
12.0
290
     0
  0
SCALE
  5
5A
102
{ACAD_REACTORS
330
47
102
}
330
47
100
AcDbScale
 70
     0
300
1/64" = 1'-0"
140
0.015625
141
12.0
290
     0
  0
SCALE
  5
5B
102
{ACAD_REACTORS
330
47
102
}
330
47
100
AcDbScale
 70
     0
300
1/32" = 1'-0"
140
0.03125
141
12.0
290
     0
  0
SCALE
  5
5C
102
{ACAD_REACTORS
330
47
102
}
330
47
100
AcDbScale
 70
     0
300
1/16" = 1'-0"
140
0.0625
141
12.0
290
     0
  0
SCALE
  5
5D
102
{ACAD_REACTORS
330
47
102
}
330
47
100
AcDbScale
 70
     0
300
3/32" = 1'-0"
140
0.09375
141
12.0
290
     0
  0
SCALE
  5
5E
102
{ACAD_REACTORS
330
47
102
}
330
47
100
AcDbScale
 70
     0
300
1/8" = 1'-0"
140
0.125
141
12.0
290
     0
  0
SCALE
  5
5F
102
{ACAD_REACTORS
330
47
102
}
330
47
100
AcDbScale
 70
     0
300
3/16" = 1'-0"
140
0.1875
141
12.0
290
     0
  0
SCALE
  5
60
102
{ACAD_REACTORS
330
47
102
}
330
47
100
AcDbScale
 70
     0
300
1/4" = 1'-0"
140
0.25
141
12.0
290
     0
  0
SCALE
  5
61
102
{ACAD_REACTORS
330
47
102
}
330
47
100
AcDbScale
 70
     0
300
3/8" = 1'-0"
140
0.375
141
12.0
290
     0
  0
SCALE
  5
62
102
{ACAD_REACTORS
330
47
102
}
330
47
100
AcDbScale
 70
     0
300
1/2" = 1'-0"
140
0.5
141
12.0
290
     0
  0
SCALE
  5
63
102
{ACAD_REACTORS
330
47
102
}
330
47
100
AcDbScale
 70
     0
300
3/4" = 1'-0"
140
0.75
141
12.0
290
     0
  0
SCALE
  5
64
102
{ACAD_REACTORS
330
47
102
}
330
47
100
AcDbScale
 70
     0
300
1" = 1'-0"
140
1.0
141
12.0
290
     0
  0
SCALE
  5
65
102
{ACAD_REACTORS
330
47
102
}
330
47
100
AcDbScale
 70
     0
300
1-1/2" = 1'-0"
140
1.5
141
12.0
290
     0
  0
SCALE
  5
66
102
{ACAD_REACTORS
330
47
102
}
330
47
100
AcDbScale
 70
     0
300
3" = 1'-0"
140
3.0
141
12.0
290
     0
  0
SCALE
  5
67
102
{ACAD_REACTORS
330
47
102
}
330
47
100
AcDbScale
 70
     0
300
6" = 1'-0"
140
6.0
141
12.0
290
     0
  0
SCALE
  5
68
102
{ACAD_REACTORS
330
47
102
}
330
47
100
AcDbScale
 70
     0
300
1'-0" = 1'-0"
140
12.0
141
12.0
290
     0
  0
VISUALSTYLE
  5
2F
102
{ACAD_REACTORS
330
2A
102
}
330
2A
100
AcDbVisualStyle
  2
2dWireframe
 70
     4
177
     3
291
     0
 70
    58
 90
        0
176
     1
 90
        2
176
     1
 90
        0
176
     1
 90
        0
176
     1
 40
0.6
176
     1
 40
30.0
176
     1
 62
     7
420
 16777215
176
     1
 90
        1
176
     1
 90
        4
176
     1
 62
     7
176
     1
 62
   257
176
     1
 90
        1
176
     1
 90
        1
176
     1
 40
1.0
176
     1
 90
        0
176
     1
 62
   257
176
     1
 40
1.0
176
     1
 90
        1
176
     1
 90
        6
176
     1
 90
        2
176
     1
 62
     7
176
     1
 90
        5
176
     1
 90
        0
176
     1
 90
        0
176
     1
290
     0
176
     1
 90
        1
176
     1
 40
0.0
176
     1
 90
        0
176
     1
290
     1
176
     1
290
     1
176
     1
290
     0
176
     1
290
     0
176
     1
290
     0
176
     1
290
     0
176
     1
290
     0
176
     1
290
     0
176
     1
290
     0
176
     1
 90
       50
176
     1
 40
0.0
176
     1
 40
1.0
176
     1
 90
        0
176
     1
 62
    18
420
        0
176
     1
 90
       50
176
     1
 90
        3
176
     1
 62
     5
420
      255
176
     1
290
     0
176
     1
 90
       50
176
     1
 90
       50
176
     1
 90
       50
176
     1
290
     0
176
     1
 90
       50
176
     1
 62
   256
176
     0
 40
1.0
176
     0
 90
        2
176
     1
  1
strokes_ogs.tif
176
     1
290
     0
176
     1
 40
1.0
176
     1
 40
1.0
176
     1
  0
VISUALSTYLE
  5
32
102
{ACAD_REACTORS
330
2A
102
}
330
2A
100
AcDbVisualStyle
  2
Basic
 70
     7
177
     3
291
     1
 70
    58
 90
        1
176
     1
 90
        0
176
     1
 90
        1
176
     1
 90
        0
176
     1
 40
0.6
176
     1
 40
30.0
176
     1
 62
     7
420
 16777215
176
     1
 90
        0
176
     1
 90
        4
176
     1
 62
     7
176
     1
 62
   257
176
     1
 90
        1
176
     1
 90
        1
176
     1
 40
1.0
176
     1
 90
        8
176
     1
 62
     7
176
     1
 40
1.0
176
     1
 90
        1
176
     1
 90
        6
176
     1
 90
        2
176
     1
 62
     7
176
     1
 90
        5
176
     1
 90
        0
176
     1
 90
        0
176
     1
290
     0
176
     1
 90
        1
176
     1
 40
0.0
176
     1
 90
        0
176
     1
290
     0
176
     1
290
     1
176
     1
290
     1
176
     1
290
     0
176
     1
290
     0
176
     1
290
     0
176
     1
290
     0
176
     1
290
     0
176
     1
290
     0
176
     1
 90
       50
176
     1
 40
0.0
176
     1
 40
1.0
176
     1
 90
        0
176
     1
 62
    18
420
        0
176
     1
 90
       50
176
     1
 90
        3
176
     1
 62
     5
420
      255
176
     1
290
     0
176
     1
 90
       50
176
     1
 90
       50
176
     1
 90
       50
176
     1
290
     0
176
     1
 90
       50
176
     1
 62
   256
176
     0
 40
1.0
176
     0
 90
        2
176
     1
  1
strokes_ogs.tif
176
     1
290
     0
176
     1
 40
1.0
176
     1
 40
1.0
176
     1
  0
VISUALSTYLE
  5
36
102
{ACAD_REACTORS
330
2A
102
}
330
2A
100
AcDbVisualStyle
  2
Brighten
 70
    12
177
     3
291
     1
 70
    58
 90
        2
176
     1
 90
        2
176
     1
 90
        0
176
     1
 90
        0
176
     1
 40
0.6
176
     1
 40
30.0
176
     1
 62
     7
420
 16777215
176
     1
 90
        1
176
     1
 90
        4
176
     1
 62
     7
176
     1
 62
   257
176
     1
 90
        1
176
     1
 90
        1
176
     1
 40
1.0
176
     1
 90
        8
176
     1
 62
     7
176
     1
 40
1.0
176
     1
 90
        1
176
     1
 90
        6
176
     1
 90
        2
176
     1
 62
     7
176
     1
 90
        5
176
     1
 90
        0
176
     1
 90
        0
176
     1
290
     0
176
     1
 90
        1
176
     1
 40
50.0
176
     1
 90
        0
176
     1
290
     0
176
     1
290
     1
176
     1
290
     1
176
     1
290
     0
176
     1
290
     0
176
     1
290
     0
176
     1
290
     0
176
     1
290
     0
176
     1
290
     0
176
     1
 90
       50
176
     1
 40
0.0
176
     1
 40
1.0
176
     1
 90
        0
176
     1
 62
    18
420
        0
176
     1
 90
       50
176
     1
 90
        3
176
     1
 62
     5
420
      255
176
     1
290
     0
176
     1
 90
       50
176
     1
 90
       50
176
     1
 90
       50
176
     1
290
     0
176
     1
 90
       50
176
     1
 62
   256
176
     0
 40
1.0
176
     0
 90
        2
176
     1
  1
strokes_ogs.tif
176
     1
290
     0
176
     1
 40
1.0
176
     1
 40
1.0
176
     1
  0
VISUALSTYLE
  5
3A
102
{ACAD_REACTORS
330
2A
102
}
330
2A
100
AcDbVisualStyle
  2
ColorChange
 70
    16
177
     3
291
     1
 70
    58
 90
        2
176
     1
 90
        2
176
     1
 90
        3
176
     1
 90
        0
176
     1
 40
0.6
176
     1
 40
30.0
176
     1
 62
     8
420
  8421504
176
     1
 90
        1
176
     1
 90
        4
176
     1
 62
     7
176
     1
 62
   257
176
     1
 90
        1
176
     1
 90
        1
176
     1
 40
1.0
176
     1
 90
        8
176
     1
 62
     8
420
  8421504
176
     1
 40
1.0
176
     1
 90
        1
176
     1
 90
        6
176
     1
 90
        2
176
     1
 62
     7
176
     1
 90
        5
176
     1
 90
        0
176
     1
 90
        0
176
     1
290
     0
176
     1
 90
        1
176
     1
 40
0.0
176
     1
 90
        0
176
     1
290
     0
176
     1
290
     1
176
     1
290
     1
176
     1
290
     0
176
     1
290
     0
176
     1
290
     0
176
     1
290
     0
176
     1
290
     0
176
     1
290
     0
176
     1
 90
       50
176
     1
 40
0.0
176
     1
 40
1.0
176
     1
 90
        0
176
     1
 62
    18
420
        0
176
     1
 90
       50
176
     1
 90
        3
176
     1
 62
     5
420
      255
176
     1
290
     0
176
     1
 90
       50
176
     1
 90
       50
176
     1
 90
       50
176
     1
290
     0
176
     1
 90
       50
176
     1
 62
   256
176
     0
 40
1.0
176
     0
 90
        2
176
     1
  1
strokes_ogs.tif
176
     1
290
     0
176
     1
 40
1.0
176
     1
 40
1.0
176
     1
  0
VISUALSTYLE
  5
34
102
{ACAD_REACTORS
330
2A
102
}
330
2A
100
AcDbVisualStyle
  2
Conceptual
 70
     9
177
     3
291
     0
 70
    58
 90
        3
176
     1
 90
        2
176
     1
 90
        0
176
     1
 90
        0
176
     1
 40
0.6
176
     1
 40
30.0
176
     1
 62
     7
420
 16777215
176
     1
 90
        2
176
     1
 90
        2
176
     1
 62
     7
176
     1
 62
   257
176
     1
 90
        1
176
     1
 90
        1
176
     1
 40
179.0
176
     1
 90
        8
176
     1
 62
     7
176
     1
 40
1.0
176
     1
 90
        1
176
     1
 90
        6
176
     1
 90
        2
176
     1
 62
     7
176
     1
 90
        3
176
     1
 90
        0
176
     1
 90
        0
176
     1
290
     0
176
     1
 90
        1
176
     1
 40
0.0
176
     1
 90
        0
176
     1
290
     0
176
     1
290
     1
176
     1
290
     1
176
     1
290
     0
176
     1
290
     0
176
     1
290
     0
176
     1
290
     0
176
     1
290
     0
176
     1
290
     0
176
     1
 90
       50
176
     1
 40
0.0
176
     1
 40
1.0
176
     1
 90
        0
176
     1
 62
    18
420
        0
176
     1
 90
       50
176
     1
 90
        3
176
     1
 62
     5
420
      255
176
     1
290
     0
176
     1
 90
       50
176
     1
 90
       50
176
     1
 90
       50
176
     1
290
     0
176
     1
 90
       50
176
     1
 62
   256
176
     0
 40
1.0
176
     0
 90
        2
176
     1
  1
strokes_ogs.tif
176
     1
290
     0
176
     1
 40
1.0
176
     1
 40
1.0
176
     1
  0
VISUALSTYLE
  5
35
102
{ACAD_REACTORS
330
2A
102
}
330
2A
100
AcDbVisualStyle
  2
Dim
 70
    11
177
     3
291
     1
 70
    58
 90
        2
176
     1
 90
        2
176
     1
 90
        0
176
     1
 90
        0
176
     1
 40
0.6
176
     1
 40
30.0
176
     1
 62
     7
420
 16777215
176
     1
 90
        1
176
     1
 90
        4
176
     1
 62
     7
176
     1
 62
   257
176
     1
 90
        1
176
     1
 90
        1
176
     1
 40
1.0
176
     1
 90
        8
176
     1
 62
     7
176
     1
 40
1.0
176
     1
 90
        1
176
     1
 90
        6
176
     1
 90
        2
176
     1
 62
     7
176
     1
 90
        5
176
     1
 90
        0
176
     1
 90
        0
176
     1
290
     0
176
     1
 90
        1
176
     1
 40
-50.0
176
     1
 90
        0
176
     1
290
     0
176
     1
290
     1
176
     1
290
     1
176
     1
290
     0
176
     1
290
     0
176
     1
290
     0
176
     1
290
     0
176
     1
290
     0
176
     1
290
     0
176
     1
 90
       50
176
     1
 40
0.0
176
     1
 40
1.0
176
     1
 90
        0
176
     1
 62
    18
420
        0
176
     1
 90
       50
176
     1
 90
        3
176
     1
 62
     5
420
      255
176
     1
290
     0
176
     1
 90
       50
176
     1
 90
       50
176
     1
 90
       50
176
     1
290
     0
176
     1
 90
       50
176
     1
 62
   256
176
     0
 40
1.0
176
     0
 90
        2
176
     1
  1
strokes_ogs.tif
176
     1
290
     0
176
     1
 40
1.0
176
     1
 40
1.0
176
     1
  0
VISUALSTYLE
  5
3D
102
{ACAD_REACTORS
330
2A
102
}
330
2A
100
AcDbVisualStyle
  2
EdgeColorOff
 70
    22
177
     3
291
     1
 70
    58
 90
        2
176
     0
 90
        2
176
     0
 90
        0
176
     0
 90
        0
176
     0
 40
0.6
176
     0
 40
30.0
176
     0
 62
     7
420
 16777215
176
     0
 90
        1
176
     0
 90
        4
176
     0
 62
     7
176
     0
 62
   257
176
     0
 90
        1
176
     0
 90
        1
176
     0
 40
1.0
176
     0
 90
        8
176
     2
 62
     7
176
     0
 40
1.0
176
     0
 90
        1
176
     0
 90
        6
176
     0
 90
        2
176
     0
 62
     7
176
     0
 90
        5
176
     0
 90
        0
176
     0
 90
        0
176
     0
290
     0
176
     0
 90
        1
176
     0
 40
0.0
176
     0
 90
        0
176
     0
290
     0
176
     0
290
     1
176
     0
290
     1
176
     0
290
     0
176
     0
290
     0
176
     0
290
     0
176
     0
290
     0
176
     0
290
     0
176
     0
290
     0
176
     0
 90
       50
176
     0
 40
0.0
176
     0
 40
1.0
176
     0
 90
        0
176
     0
 62
    18
420
        0
176
     0
 90
       50
176
     0
 90
        3
176
     0
 62
     5
420
      255
176
     0
290
     0
176
     0
 90
       50
176
     0
 90
       50
176
     0
 90
       50
176
     0
290
     0
176
     0
 90
       50
176
     0
 62
   256
176
     0
 40
1.0
176
     0
 90
        2
176
     0
  1
strokes_ogs.tif
176
     0
290
     0
176
     0
 40
1.0
176
     0
 40
1.0
176
     0
  0
VISUALSTYLE
  5
39
102
{ACAD_REACTORS
330
2A
102
}
330
2A
100
AcDbVisualStyle
  2
Facepattern
 70
    15
177
     3
291
     1
 70
    58
 90
        2
176
     1
 90
        2
176
     1
 90
        0
176
     1
 90
        0
176
     1
 40
0.6
176
     1
 40
30.0
176
     1
 62
     7
420
 16777215
176
     1
 90
        1
176
     1
 90
        4
176
     1
 62
     7
176
     1
 62
   257
176
     1
 90
        1
176
     1
 90
        1
176
     1
 40
1.0
176
     1
 90
        8
176
     1
 62
     7
176
     1
 40
1.0
176
     1
 90
        1
176
     1
 90
        6
176
     1
 90
        2
176
     1
 62
     7
176
     1
 90
        5
176
     1
 90
        0
176
     1
 90
        0
176
     1
290
     0
176
     1
 90
        1
176
     1
 40
0.0
176
     1
 90
        0
176
     1
290
     0
176
     1
290
     1
176
     1
290
     1
176
     1
290
     0
176
     1
290
     0
176
     1
290
     0
176
     1
290
     0
176
     1
290
     0
176
     1
290
     0
176
     1
 90
       50
176
     1
 40
0.0
176
     1
 40
1.0
176
     1
 90
        0
176
     1
 62
    18
420
        0
176
     1
 90
       50
176
     1
 90
        3
176
     1
 62
     5
420
      255
176
     1
290
     0
176
     1
 90
       50
176
     1
 90
       50
176
     1
 90
       50
176
     1
290
     0
176
     1
 90
       50
176
     1
 62
   256
176
     0
 40
1.0
176
     0
 90
        2
176
     1
  1
strokes_ogs.tif
176
     1
290
     0
176
     1
 40
1.0
176
     1
 40
1.0
176
     1
  0
VISUALSTYLE
  5
2B
102
{ACAD_REACTORS
330
2A
102
}
330
2A
100
AcDbVisualStyle
  2
Flat
 70
     0
177
     3
291
     1
 70
    58
 90
        2
176
     1
 90
        1
176
     1
 90
        1
176
     1
 90
        2
176
     1
 40
0.6
176
     1
 40
30.0
176
     1
 62
     7
420
 16777215
176
     1
 90
        0
176
     1
 90
        0
176
     1
 62
     7
176
     1
 62
   257
176
     1
 90
        1
176
     1
 90
        1
176
     1
 40
1.0
176
     1
 90
        8
176
     1
 62
     7
176
     1
 40
1.0
176
     1
 90
        1
176
     1
 90
        6
176
     1
 90
        2
176
     1
 62
     7
176
     1
 90
        5
176
     1
 90
        0
176
     1
 90
        0
176
     1
290
     0
176
     1
 90
       13
176
     1
 40
0.0
176
     1
 90
        0
176
     1
290
     0
176
     1
290
     1
176
     1
290
     1
176
     1
290
     0
176
     1
290
     0
176
     1
290
     0
176
     1
290
     0
176
     1
290
     0
176
     1
290
     0
176
     1
 90
       50
176
     1
 40
0.0
176
     1
 40
1.0
176
     1
 90
        0
176
     1
 62
    18
420
        0
176
     1
 90
       50
176
     1
 90
        3
176
     1
 62
     5
420
      255
176
     1
290
     0
176
     1
 90
       50
176
     1
 90
       50
176
     1
 90
       50
176
     1
290
     0
176
     1
 90
       50
176
     1
 62
   256
176
     0
 40
1.0
176
     0
 90
        2
176
     1
  1
strokes_ogs.tif
176
     1
290
     0
176
     1
 40
1.0
176
     1
 40
1.0
176
     1
  0
VISUALSTYLE
  5
2C
102
{ACAD_REACTORS
330
2A
102
}
330
2A
100
AcDbVisualStyle
  2
FlatWithEdges
 70
     1
177
     3
291
     1
 70
    58
 90
        2
176
     1
 90
        1
176
     1
 90
        1
176
     1
 90
        2
176
     1
 40
0.6
176
     1
 40
30.0
176
     1
 62
     7
420
 16777215
176
     1
 90
        1
176
     1
 90
        0
176
     1
 62
     7
176
     1
 62
   257
176
     1
 90
        1
176
     1
 90
        1
176
     1
 40
1.0
176
     1
 90
        0
176
     1
 62
   257
176
     1
 40
1.0
176
     1
 90
        1
176
     1
 90
        6
176
     1
 90
        2
176
     1
 62
     7
176
     1
 90
        5
176
     1
 90
        0
176
     1
 90
        0
176
     1
290
     0
176
     1
 90
       13
176
     1
 40
0.0
176
     1
 90
        0
176
     1
290
     0
176
     1
290
     1
176
     1
290
     1
176
     1
290
     0
176
     1
290
     0
176
     1
290
     0
176
     1
290
     0
176
     1
290
     0
176
     1
290
     0
176
     1
 90
       50
176
     1
 40
0.0
176
     1
 40
1.0
176
     1
 90
        0
176
     1
 62
    18
420
        0
176
     1
 90
       50
176
     1
 90
        3
176
     1
 62
     5
420
      255
176
     1
290
     0
176
     1
 90
       50
176
     1
 90
       50
176
     1
 90
       50
176
     1
290
     0
176
     1
 90
       50
176
     1
 62
   256
176
     0
 40
1.0
176
     0
 90
        2
176
     1
  1
strokes_ogs.tif
176
     1
290
     0
176
     1
 40
1.0
176
     1
 40
1.0
176
     1
  0
VISUALSTYLE
  5
2D
102
{ACAD_REACTORS
330
2A
102
}
330
2A
100
AcDbVisualStyle
  2
Gouraud
 70
     2
177
     3
291
     1
 70
    58
 90
        2
176
     1
 90
        2
176
     1
 90
        1
176
     1
 90
        2
176
     1
 40
0.6
176
     1
 40
30.0
176
     1
 62
     7
420
 16777215
176
     1
 90
        0
176
     1
 90
        0
176
     1
 62
     7
176
     1
 62
   257
176
     1
 90
        1
176
     1
 90
        1
176
     1
 40
1.0
176
     1
 90
        0
176
     1
 62
     7
176
     1
 40
1.0
176
     1
 90
        1
176
     1
 90
        6
176
     1
 90
        2
176
     1
 62
     7
176
     1
 90
        5
176
     1
 90
        0
176
     1
 90
        0
176
     1
290
     0
176
     1
 90
       13
176
     1
 40
0.0
176
     1
 90
        0
176
     1
290
     0
176
     1
290
     1
176
     1
290
     1
176
     1
290
     0
176
     1
290
     0
176
     1
290
     0
176
     1
290
     0
176
     1
290
     0
176
     1
290
     0
176
     1
 90
       50
176
     1
 40
0.0
176
     1
 40
1.0
176
     1
 90
        0
176
     1
 62
    18
420
        0
176
     1
 90
       50
176
     1
 90
        3
176
     1
 62
     5
420
      255
176
     1
290
     0
176
     1
 90
       50
176
     1
 90
       50
176
     1
 90
       50
176
     1
290
     0
176
     1
 90
       50
176
     1
 62
   256
176
     0
 40
1.0
176
     0
 90
        2
176
     1
  1
strokes_ogs.tif
176
     1
290
     0
176
     1
 40
1.0
176
     1
 40
1.0
176
     1
  0
VISUALSTYLE
  5
2E
102
{ACAD_REACTORS
330
2A
102
}
330
2A
100
AcDbVisualStyle
  2
GouraudWithEdges
 70
     3
177
     3
291
     1
 70
    58
 90
        2
176
     1
 90
        2
176
     1
 90
        1
176
     1
 90
        2
176
     1
 40
0.6
176
     1
 40
30.0
176
     1
 62
     7
420
 16777215
176
     1
 90
        1
176
     1
 90
        0
176
     1
 62
     7
176
     1
 62
   257
176
     1
 90
        1
176
     1
 90
        1
176
     1
 40
1.0
176
     1
 90
        0
176
     1
 62
   257
176
     1
 40
1.0
176
     1
 90
        1
176
     1
 90
        6
176
     1
 90
        2
176
     1
 62
     7
176
     1
 90
        5
176
     1
 90
        0
176
     1
 90
        0
176
     1
290
     0
176
     1
 90
       13
176
     1
 40
0.0
176
     1
 90
        0
176
     1
290
     0
176
     1
290
     1
176
     1
290
     1
176
     1
290
     0
176
     1
290
     0
176
     1
290
     0
176
     1
290
     0
176
     1
290
     0
176
     1
290
     0
176
     1
 90
       50
176
     1
 40
0.0
176
     1
 40
1.0
176
     1
 90
        0
176
     1
 62
    18
420
        0
176
     1
 90
       50
176
     1
 90
        3
176
     1
 62
     5
420
      255
176
     1
290
     0
176
     1
 90
       50
176
     1
 90
       50
176
     1
 90
       50
176
     1
290
     0
176
     1
 90
       50
176
     1
 62
   256
176
     0
 40
1.0
176
     0
 90
        2
176
     1
  1
strokes_ogs.tif
176
     1
290
     0
176
     1
 40
1.0
176
     1
 40
1.0
176
     1
  0
VISUALSTYLE
  5
31
102
{ACAD_REACTORS
330
2A
102
}
330
2A
100
AcDbVisualStyle
  2
Hidden
 70
     6
177
     3
291
     0
 70
    58
 90
        1
176
     1
 90
        2
176
     1
 90
        2
176
     1
 90
        0
176
     1
 40
0.6
176
     1
 40
30.0
176
     1
 62
     7
420
 16777215
176
     1
 90
        2
176
     1
 90
        2
176
     1
 62
     7
176
     1
 62
   257
176
     1
 90
        2
176
     1
 90
        1
176
     1
 40
40.0
176
     1
 90
        0
176
     1
 62
   257
176
     1
 40
1.0
176
     1
 90
        1
176
     1
 90
        6
176
     1
 90
        2
176
     1
 62
     7
176
     1
 90
        3
176
     1
 90
        0
176
     1
 90
        0
176
     1
290
     0
176
     1
 90
        1
176
     1
 40
0.0
176
     1
 90
        0
176
     1
290
     0
176
     1
290
     1
176
     1
290
     1
176
     1
290
     0
176
     1
290
     0
176
     1
290
     0
176
     1
290
     0
176
     1
290
     0
176
     1
290
     0
176
     1
 90
       50
176
     1
 40
0.0
176
     1
 40
1.0
176
     1
 90
        0
176
     1
 62
    18
420
        0
176
     1
 90
       50
176
     1
 90
        3
176
     1
 62
     5
420
      255
176
     1
290
     0
176
     1
 90
       50
176
     1
 90
       50
176
     1
 90
       50
176
     1
290
     0
176
     1
 90
       50
176
     1
 62
   256
176
     0
 40
1.0
176
     0
 90
        2
176
     1
  1
strokes_ogs.tif
176
     1
290
     0
176
     1
 40
1.0
176
     1
 40
1.0
176
     1
  0
VISUALSTYLE
  5
3B
102
{ACAD_REACTORS
330
2A
102
}
330
2A
100
AcDbVisualStyle
  2
JitterOff
 70
    20
177
     3
291
     1
 70
    58
 90
        2
176
     0
 90
        2
176
     0
 90
        0
176
     0
 90
        0
176
     0
 40
0.6
176
     0
 40
30.0
176
     0
 62
     7
420
 16777215
176
     0
 90
        1
176
     0
 90
        4
176
     0
 62
     7
176
     0
 62
   257
176
     0
 90
        1
176
     0
 90
        1
176
     0
 40
1.0
176
     0
 90
       10
176
     2
 62
     7
176
     0
 40
1.0
176
     0
 90
        1
176
     0
 90
        6
176
     0
 90
        2
176
     0
 62
     7
176
     0
 90
        5
176
     0
 90
        0
176
     0
 90
        0
176
     0
290
     0
176
     0
 90
        1
176
     0
 40
0.0
176
     0
 90
        0
176
     0
290
     0
176
     0
290
     1
176
     0
290
     1
176
     0
290
     0
176
     0
290
     0
176
     0
290
     0
176
     0
290
     0
176
     0
290
     0
176
     0
290
     0
176
     0
 90
       50
176
     0
 40
0.0
176
     0
 40
1.0
176
     0
 90
        0
176
     0
 62
    18
420
        0
176
     0
 90
       50
176
     0
 90
        3
176
     0
 62
     5
420
      255
176
     0
290
     0
176
     0
 90
       50
176
     0
 90
       50
176
     0
 90
       50
176
     0
290
     0
176
     0
 90
       50
176
     0
 62
   256
176
     0
 40
1.0
176
     0
 90
        2
176
     0
  1
strokes_ogs.tif
176
     0
290
     0
176
     0
 40
1.0
176
     0
 40
1.0
176
     0
  0
VISUALSTYLE
  5
38
102
{ACAD_REACTORS
330
2A
102
}
330
2A
100
AcDbVisualStyle
  2
Linepattern
 70
    14
177
     3
291
     1
 70
    58
 90
        2
176
     1
 90
        2
176
     1
 90
        0
176
     1
 90
        0
176
     1
 40
0.6
176
     1
 40
30.0
176
     1
 62
     7
420
 16777215
176
     1
 90
        1
176
     1
 90
        4
176
     1
 62
     7
176
     1
 62
   257
176
     1
 90
        7
176
     1
 90
        7
176
     1
 40
1.0
176
     1
 90
        8
176
     1
 62
     7
176
     1
 40
1.0
176
     1
 90
        1
176
     1
 90
        6
176
     1
 90
        2
176
     1
 62
     7
176
     1
 90
        5
176
     1
 90
        0
176
     1
 90
        0
176
     1
290
     0
176
     1
 90
        1
176
     1
 40
0.0
176
     1
 90
        0
176
     1
290
     0
176
     1
290
     1
176
     1
290
     1
176
     1
290
     0
176
     1
290
     0
176
     1
290
     0
176
     1
290
     0
176
     1
290
     0
176
     1
290
     0
176
     1
 90
       50
176
     1
 40
0.0
176
     1
 40
1.0
176
     1
 90
        0
176
     1
 62
    18
420
        0
176
     1
 90
       50
176
     1
 90
        3
176
     1
 62
     5
420
      255
176
     1
290
     0
176
     1
 90
       50
176
     1
 90
       50
176
     1
 90
       50
176
     1
290
     0
176
     1
 90
       50
176
     1
 62
   256
176
     0
 40
1.0
176
     0
 90
        2
176
     1
  1
strokes_ogs.tif
176
     1
290
     0
176
     1
 40
1.0
176
     1
 40
1.0
176
     1
  0
VISUALSTYLE
  5
3C
102
{ACAD_REACTORS
330
2A
102
}
330
2A
100
AcDbVisualStyle
  2
OverhangOff
 70
    21
177
     3
291
     1
 70
    58
 90
        2
176
     0
 90
        2
176
     0
 90
        0
176
     0
 90
        0
176
     0
 40
0.6
176
     0
 40
30.0
176
     0
 62
     7
420
 16777215
176
     0
 90
        1
176
     0
 90
        4
176
     0
 62
     7
176
     0
 62
   257
176
     0
 90
        1
176
     0
 90
        1
176
     0
 40
1.0
176
     0
 90
        9
176
     2
 62
     7
176
     0
 40
1.0
176
     0
 90
        1
176
     0
 90
        6
176
     0
 90
        2
176
     0
 62
     7
176
     0
 90
        5
176
     0
 90
        0
176
     0
 90
        0
176
     0
290
     0
176
     0
 90
        1
176
     0
 40
0.0
176
     0
 90
        0
176
     0
290
     0
176
     0
290
     1
176
     0
290
     1
176
     0
290
     0
176
     0
290
     0
176
     0
290
     0
176
     0
290
     0
176
     0
290
     0
176
     0
290
     0
176
     0
 90
       50
176
     0
 40
0.0
176
     0
 40
1.0
176
     0
 90
        0
176
     0
 62
    18
420
        0
176
     0
 90
       50
176
     0
 90
        3
176
     0
 62
     5
420
      255
176
     0
290
     0
176
     0
 90
       50
176
     0
 90
       50
176
     0
 90
       50
176
     0
290
     0
176
     0
 90
       50
176
     0
 62
   256
176
     0
 40
1.0
176
     0
 90
        2
176
     0
  1
strokes_ogs.tif
176
     0
290
     0
176
     0
 40
1.0
176
     0
 40
1.0
176
     0
  0
VISUALSTYLE
  5
33
102
{ACAD_REACTORS
330
2A
102
}
330
2A
100
AcDbVisualStyle
  2
Realistic
 70
     8
177
     3
291
     0
 70
    58
 90
        2
176
     1
 90
        3
176
     1
 90
        0
176
     1
 90
        2
176
     1
 40
0.6
176
     1
 40
30.0
176
     1
 62
     7
420
 16777215
176
     1
 90
        0
176
     1
 90
        0
176
     1
 62
     7
176
     1
 62
   257
176
     1
 90
        1
176
     1
 90
        1
176
     1
 40
1.0
176
     1
 90
        8
176
     1
 62
   257
176
     1
 40
1.0
176
     1
 90
        1
176
     1
 90
        6
176
     1
 90
        2
176
     1
 62
     7
176
     1
 90
        3
176
     1
 90
        0
176
     1
 90
        0
176
     1
290
     0
176
     1
 90
       13
176
     1
 40
0.0
176
     1
 90
        0
176
     1
290
     0
176
     1
290
     1
176
     1
290
     1
176
     1
290
     0
176
     1
290
     0
176
     1
290
     0
176
     1
290
     0
176
     1
290
     0
176
     1
290
     0
176
     1
 90
       50
176
     1
 40
0.0
176
     1
 40
1.0
176
     1
 90
        0
176
     1
 62
    18
420
        0
176
     1
 90
       50
176
     1
 90
        3
176
     1
 62
     5
420
      255
176
     1
290
     0
176
     1
 90
       50
176
     1
 90
       50
176
     1
 90
       50
176
     1
290
     0
176
     1
 90
       50
176
     1
 62
   256
176
     0
 40
1.0
176
     0
 90
        2
176
     1
  1
strokes_ogs.tif
176
     1
290
     0
176
     1
 40
1.0
176
     1
 40
1.0
176
     1
  0
VISUALSTYLE
  5
42
102
{ACAD_REACTORS
330
2A
102
}
330
2A
100
AcDbVisualStyle
  2
Shaded
 70
    27
177
     3
291
     0
 70
    58
 90
        2
176
     1
 90
        2
176
     1
 90
        1
176
     1
 90
        2
176
     1
 40
0.6
176
     1
 40
30.0
176
     1
 62
     7
420
 16777215
176
     1
 90
        0
176
     1
 90
        4
176
     1
 62
     7
176
     1
 62
   257
176
     1
 90
        1
176
     1
 90
        1
176
     1
 40
1.0
176
     1
 90
        8
176
     1
 62
   257
176
     1
 40
1.0
176
     1
 90
        1
176
     1
 90
        6
176
     1
 90
        2
176
     1
 62
     8
420
  7895160
176
     1
 90
        3
176
     1
 90
        0
176
     1
 90
        0
176
     1
290
     0
176
     1
 90
        5
176
     1
 40
0.0
176
     1
 90
        0
176
     1
290
     0
176
     1
290
     1
176
     1
290
     1
176
     1
290
     0
176
     1
290
     0
176
     1
290
     0
176
     1
290
     0
176
     1
290
     0
176
     1
290
     0
176
     1
 90
       50
176
     1
 40
0.0
176
     1
 40
1.0
176
     1
 90
        0
176
     1
 62
    18
420
        0
176
     1
 90
       50
176
     1
 90
        3
176
     1
 62
     5
420
      255
176
     1
290
     0
176
     1
 90
       50
176
     1
 90
       50
176
     1
 90
       50
176
     1
290
     0
176
     1
 90
       50
176
     1
 62
   256
176
     0
 40
1.0
176
     0
 90
        2
176
     1
  1
strokes_ogs.tif
176
     1
290
     0
176
     1
 40
1.0
176
     1
 40
1.0
176
     1
  0
VISUALSTYLE
  5
41
102
{ACAD_REACTORS
330
2A
102
}
330
2A
100
AcDbVisualStyle
  2
Shaded with edges
 70
    26
177
     3
291
     0
 70
    58
 90
        2
176
     1
 90
        2
176
     1
 90
        1
176
     1
 90
        2
176
     1
 40
0.6
176
     1
 40
30.0
176
     1
 62
     7
420
 16777215
176
     1
 90
        1
176
     1
 90
       10
176
     1
 62
     7
176
     1
 62
   257
176
     1
 90
        2
176
     1
 90
        1
176
     1
 40
1.0
176
     1
 90
        8
176
     1
 62
   257
176
     1
 40
1.0
176
     1
 90
        1
176
     1
 90
        6
176
     1
 90
        2
176
     1
 62
     7
176
     1
 90
        3
176
     1
 90
        0
176
     1
 90
        0
176
     1
290
     0
176
     1
 90
        5
176
     1
 40
0.0
176
     1
 90
        0
176
     1
290
     0
176
     1
290
     1
176
     1
290
     1
176
     1
290
     0
176
     1
290
     0
176
     1
290
     0
176
     1
290
     0
176
     1
290
     0
176
     1
290
     0
176
     1
 90
       50
176
     1
 40
0.0
176
     1
 40
1.0
176
     1
 90
        0
176
     1
 62
    18
420
        0
176
     1
 90
       50
176
     1
 90
        3
176
     1
 62
     5
420
      255
176
     1
290
     0
176
     1
 90
       50
176
     1
 90
       50
176
     1
 90
       50
176
     1
290
     0
176
     1
 90
       50
176
     1
 62
   256
176
     0
 40
1.0
176
     0
 90
        2
176
     1
  1
strokes_ogs.tif
176
     1
290
     0
176
     1
 40
1.0
176
     1
 40
1.0
176
     1
  0
VISUALSTYLE
  5
3E
102
{ACAD_REACTORS
330
2A
102
}
330
2A
100
AcDbVisualStyle
  2
Shades of Gray
 70
    23
177
     3
291
     0
 70
    58
 90
        2
176
     1
 90
        2
176
     1
 90
        3
176
     1
 90
        0
176
     1
 40
0.6
176
     1
 40
30.0
176
     1
 62
     7
420
 16777215
176
     1
 90
        2
176
     1
 90
        2
176
     1
 62
     7
176
     1
 62
     7
176
     1
 90
        1
176
     1
 90
        1
176
     1
 40
40.0
176
     1
 90
        8
176
     1
 62
     7
176
     1
 40
1.0
176
     1
 90
        1
176
     1
 90
        6
176
     1
 90
        2
176
     1
 62
     7
176
     1
 90
        3
176
     1
 90
        0
176
     1
 90
        0
176
     1
290
     0
176
     1
 90
        1
176
     1
 40
0.0
176
     1
 90
        0
176
     1
290
     0
176
     1
290
     1
176
     1
290
     1
176
     1
290
     0
176
     1
290
     0
176
     1
290
     0
176
     1
290
     0
176
     1
290
     0
176
     1
290
     0
176
     1
 90
       50
176
     1
 40
0.0
176
     1
 40
1.0
176
     1
 90
        0
176
     1
 62
    18
420
        0
176
     1
 90
       50
176
     1
 90
        3
176
     1
 62
     5
420
      255
176
     1
290
     0
176
     1
 90
       50
176
     1
 90
       50
176
     1
 90
       50
176
     1
290
     0
176
     1
 90
       50
176
     1
 62
   256
176
     0
 40
1.0
176
     0
 90
        2
176
     1
  1
strokes_ogs.tif
176
     1
290
     0
176
     1
 40
1.0
176
     1
 40
1.0
176
     1
  0
VISUALSTYLE
  5
3F
102
{ACAD_REACTORS
330
2A
102
}
330
2A
100
AcDbVisualStyle
  2
Sketchy
 70
    24
177
     3
291
     0
 70
    58
 90
        1
176
     1
 90
        2
176
     1
 90
        2
176
     1
 90
        0
176
     1
 40
0.6
176
     1
 40
30.0
176
     1
 62
     7
420
 16777215
176
     1
 90
        2
176
     1
 90
        2
176
     1
 62
     7
176
     1
 62
     7
176
     1
 90
        1
176
     1
 90
        1
176
     1
 40
40.0
176
     1
 90
       11
176
     1
 62
     7
176
     1
 40
1.0
176
     1
 90
        1
176
     1
 90
        6
176
     1
 90
        2
176
     1
 62
     7
176
     1
 90
        6
176
     1
 90
        0
176
     1
 90
        0
176
     1
290
     0
176
     1
 90
        1
176
     1
 40
0.0
176
     1
 90
        0
176
     1
290
     0
176
     1
290
     1
176
     1
290
     1
176
     1
290
     0
176
     1
290
     0
176
     1
290
     0
176
     1
290
     0
176
     1
290
     0
176
     1
290
     0
176
     1
 90
       50
176
     1
 40
0.0
176
     1
 40
1.0
176
     1
 90
        0
176
     1
 62
    18
420
        0
176
     1
 90
       50
176
     1
 90
        3
176
     1
 62
     5
420
      255
176
     1
290
     0
176
     1
 90
       50
176
     1
 90
       50
176
     1
 90
       50
176
     1
290
     0
176
     1
 90
       50
176
     1
 62
   256
176
     0
 40
1.0
176
     0
 90
        2
176
     1
  1
strokes_ogs.tif
176
     1
290
     0
176
     1
 40
1.0
176
     1
 40
1.0
176
     1
  0
VISUALSTYLE
  5
37
102
{ACAD_REACTORS
330
2A
102
}
330
2A
100
AcDbVisualStyle
  2
Thicken
 70
    13
177
     3
291
     1
 70
    58
 90
        2
176
     1
 90
        2
176
     1
 90
        0
176
     1
 90
        0
176
     1
 40
0.6
176
     1
 40
30.0
176
     1
 62
     7
420
 16777215
176
     1
 90
        1
176
     1
 90
        4
176
     1
 62
     7
176
     1
 62
   257
176
     1
 90
        1
176
     1
 90
        1
176
     1
 40
1.0
176
     1
 90
       12
176
     1
 62
     7
176
     1
 40
1.0
176
     1
 90
        1
176
     1
 90
        6
176
     1
 90
        2
176
     1
 62
     7
176
     1
 90
        5
176
     1
 90
        0
176
     1
 90
        0
176
     1
290
     0
176
     1
 90
        1
176
     1
 40
0.0
176
     1
 90
        0
176
     1
290
     0
176
     1
290
     1
176
     1
290
     1
176
     1
290
     0
176
     1
290
     0
176
     1
290
     0
176
     1
290
     0
176
     1
290
     0
176
     1
290
     0
176
     1
 90
       50
176
     1
 40
0.0
176
     1
 40
1.0
176
     1
 90
        0
176
     1
 62
    18
420
        0
176
     1
 90
       50
176
     1
 90
        3
176
     1
 62
     5
420
      255
176
     1
290
     0
176
     1
 90
       50
176
     1
 90
       50
176
     1
 90
       50
176
     1
290
     0
176
     1
 90
       50
176
     1
 62
   256
176
     0
 40
1.0
176
     0
 90
        2
176
     1
  1
strokes_ogs.tif
176
     1
290
     0
176
     1
 40
1.0
176
     1
 40
1.0
176
     1
  0
VISUALSTYLE
  5
30
102
{ACAD_REACTORS
330
2A
102
}
330
2A
100
AcDbVisualStyle
  2
Wireframe
 70
     5
177
     3
291
     0
 70
    58
 90
        0
176
     1
 90
        2
176
     1
 90
        0
176
     1
 90
        0
176
     1
 40
0.6
176
     1
 40
30.0
176
     1
 62
     7
420
 16777215
176
     1
 90
        1
176
     1
 90
        4
176
     1
 62
     7
176
     1
 62
   257
176
     1
 90
        1
176
     1
 90
        1
176
     1
 40
1.0
176
     1
 90
        0
176
     1
 62
   257
176
     1
 40
1.0
176
     1
 90
        1
176
     1
 90
        6
176
     1
 90
        2
176
     1
 62
     7
176
     1
 90
        3
176
     1
 90
        0
176
     1
 90
        0
176
     1
290
     0
176
     1
 90
        1
176
     1
 40
0.0
176
     1
 90
        0
176
     1
290
     0
176
     1
290
     1
176
     1
290
     1
176
     1
290
     0
176
     1
290
     0
176
     1
290
     0
176
     1
290
     0
176
     1
290
     0
176
     1
290
     0
176
     1
 90
       50
176
     1
 40
0.0
176
     1
 40
1.0
176
     1
 90
        0
176
     1
 62
    18
420
        0
176
     1
 90
       50
176
     1
 90
        3
176
     1
 62
     5
420
      255
176
     1
290
     0
176
     1
 90
       50
176
     1
 90
       50
176
     1
 90
       50
176
     1
290
     0
176
     1
 90
       50
176
     1
 62
   256
176
     0
 40
1.0
176
     0
 90
        2
176
     1
  1
strokes_ogs.tif
176
     1
290
     0
176
     1
 40
1.0
176
     1
 40
1.0
176
     1
  0
VISUALSTYLE
  5
40
102
{ACAD_REACTORS
330
2A
102
}
330
2A
100
AcDbVisualStyle
  2
X-Ray
 70
    25
177
     3
291
     0
 70
    58
 90
        2
176
     1
 90
        2
176
     1
 90
        1
176
     1
 90
        1
176
     1
 40
0.5
176
     1
 40
30.0
176
     1
 62
     7
420
 16777215
176
     1
 90
        1
176
     1
 90
        0
176
     1
 62
     7
176
     1
 62
   257
176
     1
 90
        1
176
     1
 90
        1
176
     1
 40
1.0
176
     1
 90
        8
176
     1
 62
     7
176
     1
 40
1.0
176
     1
 90
        1
176
     1
 90
        6
176
     1
 90
        2
176
     1
 62
     7
176
     1
 90
        3
176
     1
 90
        0
176
     1
 90
        0
176
     1
290
     0
176
     1
 90
       13
176
     1
 40
0.0
176
     1
 90
        0
176
     1
290
     0
176
     1
290
     1
176
     1
290
     1
176
     1
290
     0
176
     1
290
     0
176
     1
290
     0
176
     1
290
     0
176
     1
290
     0
176
     1
290
     0
176
     1
 90
       50
176
     1
 40
0.0
176
     1
 40
1.0
176
     1
 90
        0
176
     1
 62
    18
420
        0
176
     1
 90
       50
176
     1
 90
        3
176
     1
 62
     5
420
      255
176
     1
290
     0
176
     1
 90
       50
176
     1
 90
       50
176
     1
 90
       50
176
     1
290
     0
176
     1
 90
       50
176
     1
 62
   256
176
     0
 40
1.0
176
     0
 90
        2
176
     1
  1
strokes_ogs.tif
176
     1
290
     0
176
     1
 40
1.0
176
     1
 40
1.0
176
     1
  0
DICTIONARYVAR
  5
153
102
{ACAD_REACTORS
330
152
102
}
330
152
100
DictionaryVariables
280
     0
  1
1:1
  0
ENDSEC
  0
EOF
